<svg xmlns="http://www.w3.org/2000/svg" id="repeat-annotate-figure" width="310" height="310" viewBox="0 0 310 310"><defs><clipPath id="repeat-annotate-__clipPath-0"><rect x="5.0" y="5.0" width="300.0" height="300.0"/></clipPath><clipPath id="repeat-annotate-__clipPath-1"><rect x="5.0" y="5.0" width="300.0" height="300.0"/></clipPath></defs><g id="repeat-annotate-grid" stroke="#ccc" stroke-width="1"><line x1="5.0" y1="305.0" x2="5.0" y2="5.0"/><line x1="55.0" y1="305.0" x2="55.0" y2="5.0"/><line x1="105.0" y1="305.0" x2="105.0" y2="5.0"/><line x1="155.0" y1="305.0" x2="155.0" y2="5.0"/><line x1="205.0" y1="305.0" x2="205.0" y2="5.0"/><line x1="255.0" y1="305.0" x2="255.0" y2="5.0"/><line x1="305.0" y1="305.0" x2="305.0" y2="5.0"/><line x1="5.0" y1="305.0" x2="305.0" y2="305.0"/><line x1="5.0" y1="255.0" x2="305.0" y2="255.0"/><line x1="5.0" y1="205.0" x2="305.0" y2="205.0"/><line x1="5.0" y1="155.0" x2="305.0" y2="155.0"/><line x1="5.0" y1="105.0" x2="305.0" y2="105.0"/><line x1="5.0" y1="55.0" x2="305.0" y2="55.0"/><line x1="5.0" y1="5.0" x2="305.0" y2="5.0"/></g><g id="repeat-annotate-array"><g id="repeat-annotate-column-col_0"><path id="repeat-annotate-square-col_0-row_0" d="M 42.5 267.5 L 67.5 267.5 L 67.5 242.5 L 42.5 242.5 Z" stroke="black" stroke-width="2" fill="green"/><path id="repeat-annotate-square-col_0-row_1" d="M 42.5 217.5 L 67.5 217.5 L 67.5 192.5 L 42.5 192.5 Z" stroke="black" stroke-width="2" fill="green"/><path id="repeat-annotate-square-col_0-row_2" d="M 42.5 167.5 L 67.5 167.5 L 67.5 142.5 L 42.5 142.5 Z" stroke="black" stroke-width="2" fill="green"/><path id="repeat-annotate-square-col_0-row_3" d="M 42.5 117.5 L 67.5 117.5 L 67.5 92.5 L 42.5 92.5 Z" stroke="black" stroke-width="2" fill="green"/><path id="repeat-annotate-square-col_0-row_4" d="M 42.5 67.5 L 67.5 67.5 L 67.5 42.5 L 42.5 42.5 Z" stroke="black" stroke-width="2" fill="green"/></g><g id="repeat-annotate-column-col_1"><path id="repeat-annotate-square-col_1-row_0" d="M 92.5 267.5 L 117.5 267.5 L 117.5 242.5 L 92.5 242.5 Z" stroke="black" stroke-width="2" fill="green"/><path id="repeat-annotate-square-col_1-row_1" d="M 92.5 217.5 L 117.5 217.5 L 117.5 192.5 L 92.5 192.5 Z" stroke="black" stroke-width="2" fill="green"/><path id="repeat-annotate-square-col_1-row_2" d="M 92.5 167.5 L 117.5 167.5 L 117.5 142.5 L 92.5 142.5 Z" stroke="black" stroke-width="2" fill="green"/><path id="repeat-annotate-square-col_1-row_3" d="M 92.5 117.5 L 117.5 117.5 L 117.5 92.5 L 92.5 92.5 Z" stroke="black" stroke-width="2" fill="green"/></g><g id="repeat-annotate-column-col_2"><path id="repeat-annotate-square-col_2-row_0" d="M 142.5 267.5 L 167.5 267.5 L 167.5 242.5 L 142.5 242.5 Z" stroke="black" stroke-width="2" fill="green"/><path id="repeat-annotate-square-col_2-row_1" d="M 142.5 217.5 L 167.5 217.5 L 167.5 192.5 L 142.5 192.5 Z" stroke="black" stroke-width="2" fill="green"/><path id="repeat-annotate-square-col_2-row_2" d="M 142.5 167.5 L 167.5 167.5 L 167.5 142.5 L 142.5 142.5 Z" stroke="black" stroke-width="2" fill="green"/></g><g id="repeat-annotate-column-col_3"><path id="repeat-annotate-square-col_3-row_0" d="M 192.5 267.5 L 217.5 267.5 L 217.5 242.5 L 192.5 242.5 Z" stroke="black" stroke-width="2" fill="green"/><path id="repeat-annotate-square-col_3-row_1" d="M 192.5 217.5 L 217.5 217.5 L 217.5 192.5 L 192.5 192.5 Z" stroke="black" stroke-width="2" fill="green"/></g><g id="repeat-annotate-column-col_4"><path id="repeat-annotate-square-col_4-row_0" d="M 242.5 267.5 L 267.5 267.5 L 267.5 242.5 L 242.5 242.5 Z" stroke="black" stroke-width="2" fill="green"/></g></g></svg>