<svg xmlns="http://www.w3.org/2000/svg" id="vector-field-exponent-2-figure" width="350" height="350" viewBox="0 0 350 350"><defs><clipPath id="vector-field-exponent-2-__clipPath-0"><rect x="25.0" y="25.0" width="300.0" height="300.0"/></clipPath><clipPath id="vector-field-exponent-2-__clipPath-1"><rect x="25.0" y="25.0" width="300.0" height="300.0"/></clipPath><marker id="vector-field-exponent-2-arrow-head-end-2_None_24_60-blue" markerWidth="9.0" markerHeight="8.0" markerUnits="userSpaceOnUse" orient="auto-start-reverse" refX="6.5" refY="4.0"><path d="M 9.0 4.0L 0.0 8.0L 1.7 5.0L 1.7 3.0L 0.0 0.0Z" fill="blue" stroke="none"/></marker><marker id="vector-field-exponent-2-arrow-head-end-2_None_24_60-blue-outline" markerWidth="13.0" markerHeight="12.0" markerUnits="userSpaceOnUse" orient="auto-start-reverse" refX="8.5" refY="6.0"><path d="M 11.8 7.8 L 2.8 11.8 A 2 2 0 0 1 0.0 10.0 L 0.0 2.0 A 2 2 0 0 1 2.8 0.2 L 11.8 4.2 A 2 2 0 0 1 11.8 7.8 Z" fill="white" stroke="none"/></marker></defs><g id="vector-field-exponent-2-axes" stroke="black" stroke-width="2"><line id="vector-field-exponent-2-__line-0" x1="25.0" y1="175.0" x2="325.0" y2="175.0" stroke="black" stroke-width="2"/><line id="vector-field-exponent-2-__line-1" x1="175.0" y1="325.0" x2="175.0" y2="25.0" stroke="black" stroke-width="2"/></g><g id="vector-field-exponent-2-__label-0" transform="translate(334.0,175.0) translate(0.0,-4.1)"><g id="vector-field-exponent-2-__g-0"><svg xmlns:xlink="http://www.w3.org/1999/xlink" style="vertical-align: -0.200px" width="10.352px" height="8.200px" role="img" focusable="false" viewBox="0 -442 572 453" x="0.0" y="0.0"><defs><path id="vector-field-exponent-2-MJX-1-TEX-I-1D465" d="M52 289Q59 331 106 386T222 442Q257 442 286 424T329 379Q371 442 430 442Q467 442 494 420T522 361Q522 332 508 314T481 292T458 288Q439 288 427 299T415 328Q415 374 465 391Q454 404 425 404Q412 404 406 402Q368 386 350 336Q290 115 290 78Q290 50 306 38T341 26Q378 26 414 59T463 140Q466 150 469 151T485 153H489Q504 153 504 145Q504 144 502 134Q486 77 440 33T333 -11Q263 -11 227 52Q186 -10 133 -10H127Q78 -10 57 16T35 71Q35 103 54 123T99 143Q142 143 142 101Q142 81 130 66T107 46T94 41L91 40Q91 39 97 36T113 29T132 26Q168 26 194 71Q203 87 217 139T245 247T261 313Q266 340 266 352Q266 380 251 392T217 404Q177 404 142 372T93 290Q91 281 88 280T72 278H58Q52 284 52 289Z"/></defs><g stroke="currentColor" fill="currentColor" stroke-width="0" transform="scale(1,-1)"><g data-mml-node="math"><g data-mml-node="mi" data-semantic-type="identifier" data-semantic-role="latinletter" data-semantic-font="italic" data-semantic-annotation="clearspeak:simple" data-semantic-id="0" data-semantic-speech="x"><use data-c="1D465" xlink:href="#vector-field-exponent-2-MJX-1-TEX-I-1D465"/></g></g></g></svg></g></g><g id="vector-field-exponent-2-__label-1" transform="translate(184.0,21.0) translate(0.0,-11.7)"><g id="vector-field-exponent-2-__g-1"><svg xmlns:xlink="http://www.w3.org/1999/xlink" style="vertical-align: -3.712px" width="8.872px" height="11.712px" role="img" focusable="false" viewBox="0 -442 490 647" x="0.0" y="0.0"><defs><path id="vector-field-exponent-2-MJX-2-TEX-I-1D466" d="M21 287Q21 301 36 335T84 406T158 442Q199 442 224 419T250 355Q248 336 247 334Q247 331 231 288T198 191T182 105Q182 62 196 45T238 27Q261 27 281 38T312 61T339 94Q339 95 344 114T358 173T377 247Q415 397 419 404Q432 431 462 431Q475 431 483 424T494 412T496 403Q496 390 447 193T391 -23Q363 -106 294 -155T156 -205Q111 -205 77 -183T43 -117Q43 -95 50 -80T69 -58T89 -48T106 -45Q150 -45 150 -87Q150 -107 138 -122T115 -142T102 -147L99 -148Q101 -153 118 -160T152 -167H160Q177 -167 186 -165Q219 -156 247 -127T290 -65T313 -9T321 21L315 17Q309 13 296 6T270 -6Q250 -11 231 -11Q185 -11 150 11T104 82Q103 89 103 113Q103 170 138 262T173 379Q173 380 173 381Q173 390 173 393T169 400T158 404H154Q131 404 112 385T82 344T65 302T57 280Q55 278 41 278H27Q21 284 21 287Z"/></defs><g stroke="currentColor" fill="currentColor" stroke-width="0" transform="scale(1,-1)"><g data-mml-node="math"><g data-mml-node="mi" data-semantic-type="identifier" data-semantic-role="latinletter" data-semantic-font="italic" data-semantic-annotation="clearspeak:simple" data-semantic-id="0" data-semantic-speech="y"><use data-c="1D466" xlink:href="#vector-field-exponent-2-MJX-2-TEX-I-1D466"/></g></g></g></svg></g></g><g id="vector-field-exponent-2-__vector-field-0"><line id="vector-field-exponent-2-__line-2" x1="25.0" y1="325.0" x2="47.6" y2="308.1" stroke="blue" stroke-width="2" fill="none" marker-end="url(#vector-field-exponent-2-arrow-head-end-2_None_24_60-blue)"/><line id="vector-field-exponent-2-__line-3" x1="25.0" y1="287.5" x2="44.0" y2="268.5" stroke="blue" stroke-width="2" fill="none" marker-end="url(#vector-field-exponent-2-arrow-head-end-2_None_24_60-blue)"/><line id="vector-field-exponent-2-__line-4" x1="25.0" y1="250.0" x2="39.0" y2="228.8" stroke="blue" stroke-width="2" fill="none" marker-end="url(#vector-field-exponent-2-arrow-head-end-2_None_24_60-blue)"/><line id="vector-field-exponent-2-__line-5" x1="25.0" y1="212.5" x2="32.7" y2="189.4" stroke="blue" stroke-width="2" fill="none" marker-end="url(#vector-field-exponent-2-arrow-head-end-2_None_24_60-blue)"/><line id="vector-field-exponent-2-__line-6" x1="25.0" y1="175.0" x2="25.0" y2="151.0" stroke="blue" stroke-width="2" fill="none" marker-end="url(#vector-field-exponent-2-arrow-head-end-2_None_24_60-blue)"/><line id="vector-field-exponent-2-__line-7" x1="25.0" y1="137.5" x2="17.3" y2="114.4" stroke="blue" stroke-width="2" fill="none" marker-end="url(#vector-field-exponent-2-arrow-head-end-2_None_24_60-blue)"/><line id="vector-field-exponent-2-__line-8" x1="25.0" y1="100.0" x2="11.0" y2="78.8" stroke="blue" stroke-width="2" fill="none" marker-end="url(#vector-field-exponent-2-arrow-head-end-2_None_24_60-blue)"/><line id="vector-field-exponent-2-__line-9" x1="25.0" y1="62.5" x2="6.0" y2="43.5" stroke="blue" stroke-width="2" fill="none" marker-end="url(#vector-field-exponent-2-arrow-head-end-2_None_24_60-blue)"/><line id="vector-field-exponent-2-__line-10" x1="25.0" y1="25.0" x2="2.4" y2="8.1" stroke="blue" stroke-width="2" fill="none" marker-end="url(#vector-field-exponent-2-arrow-head-end-2_None_24_60-blue)"/><line id="vector-field-exponent-2-__line-11" x1="62.5" y1="325.0" x2="82.5" y2="308.3" stroke="blue" stroke-width="2" fill="none" marker-end="url(#vector-field-exponent-2-arrow-head-end-2_None_24_60-blue)"/><line id="vector-field-exponent-2-__line-12" x1="62.5" y1="287.5" x2="79.1" y2="269.0" stroke="blue" stroke-width="2" fill="none" marker-end="url(#vector-field-exponent-2-arrow-head-end-2_None_24_60-blue)"/><line id="vector-field-exponent-2-__line-13" x1="62.5" y1="250.0" x2="74.6" y2="229.7" stroke="blue" stroke-width="2" fill="none" marker-end="url(#vector-field-exponent-2-arrow-head-end-2_None_24_60-blue)"/><line id="vector-field-exponent-2-__line-14" x1="62.5" y1="212.5" x2="69.1" y2="190.6" stroke="blue" stroke-width="2" fill="none" marker-end="url(#vector-field-exponent-2-arrow-head-end-2_None_24_60-blue)"/><line id="vector-field-exponent-2-__line-15" x1="62.5" y1="175.0" x2="62.5" y2="152.4" stroke="blue" stroke-width="2" fill="none" marker-end="url(#vector-field-exponent-2-arrow-head-end-2_None_24_60-blue)"/><line id="vector-field-exponent-2-__line-16" x1="62.5" y1="137.5" x2="55.9" y2="115.6" stroke="blue" stroke-width="2" fill="none" marker-end="url(#vector-field-exponent-2-arrow-head-end-2_None_24_60-blue)"/><line id="vector-field-exponent-2-__line-17" x1="62.5" y1="100.0" x2="50.4" y2="79.7" stroke="blue" stroke-width="2" fill="none" marker-end="url(#vector-field-exponent-2-arrow-head-end-2_None_24_60-blue)"/><line id="vector-field-exponent-2-__line-18" x1="62.5" y1="62.5" x2="45.9" y2="44.0" stroke="blue" stroke-width="2" fill="none" marker-end="url(#vector-field-exponent-2-arrow-head-end-2_None_24_60-blue)"/><line id="vector-field-exponent-2-__line-19" x1="62.5" y1="25.0" x2="42.5" y2="8.3" stroke="blue" stroke-width="2" fill="none" marker-end="url(#vector-field-exponent-2-arrow-head-end-2_None_24_60-blue)"/><line id="vector-field-exponent-2-__line-20" x1="100.0" y1="325.0" x2="116.6" y2="308.4" stroke="blue" stroke-width="2" fill="none" marker-end="url(#vector-field-exponent-2-arrow-head-end-2_None_24_60-blue)"/><line id="vector-field-exponent-2-__line-21" x1="100.0" y1="287.5" x2="113.5" y2="269.5" stroke="blue" stroke-width="2" fill="none" marker-end="url(#vector-field-exponent-2-arrow-head-end-2_None_24_60-blue)"/><line id="vector-field-exponent-2-__line-22" x1="100.0" y1="250.0" x2="109.7" y2="230.6" stroke="blue" stroke-width="2" fill="none" marker-end="url(#vector-field-exponent-2-arrow-head-end-2_None_24_60-blue)"/><line id="vector-field-exponent-2-__line-23" x1="100.0" y1="212.5" x2="105.1" y2="192.1" stroke="blue" stroke-width="2" fill="none" marker-end="url(#vector-field-exponent-2-arrow-head-end-2_None_24_60-blue)"/><line id="vector-field-exponent-2-__line-24" x1="100.0" y1="175.0" x2="100.0" y2="154.1" stroke="blue" stroke-width="2" fill="none" marker-end="url(#vector-field-exponent-2-arrow-head-end-2_None_24_60-blue)"/><line id="vector-field-exponent-2-__line-25" x1="100.0" y1="137.5" x2="94.9" y2="117.1" stroke="blue" stroke-width="2" fill="none" marker-end="url(#vector-field-exponent-2-arrow-head-end-2_None_24_60-blue)"/><line id="vector-field-exponent-2-__line-26" x1="100.0" y1="100.0" x2="90.3" y2="80.6" stroke="blue" stroke-width="2" fill="none" marker-end="url(#vector-field-exponent-2-arrow-head-end-2_None_24_60-blue)"/><line id="vector-field-exponent-2-__line-27" x1="100.0" y1="62.5" x2="86.5" y2="44.5" stroke="blue" stroke-width="2" fill="none" marker-end="url(#vector-field-exponent-2-arrow-head-end-2_None_24_60-blue)"/><line id="vector-field-exponent-2-__line-28" x1="100.0" y1="25.0" x2="83.4" y2="8.4" stroke="blue" stroke-width="2" fill="none" marker-end="url(#vector-field-exponent-2-arrow-head-end-2_None_24_60-blue)"/><line id="vector-field-exponent-2-__line-29" x1="137.5" y1="325.0" x2="148.6" y2="308.2" stroke="blue" stroke-width="2" fill="none" marker-end="url(#vector-field-exponent-2-arrow-head-end-2_None_24_60-blue)"/><line id="vector-field-exponent-2-__line-30" x1="137.5" y1="287.5" x2="146.3" y2="269.9" stroke="blue" stroke-width="2" fill="none" marker-end="url(#vector-field-exponent-2-arrow-head-end-2_None_24_60-blue)"/><line id="vector-field-exponent-2-__line-31" x1="137.5" y1="250.0" x2="143.6" y2="231.7" stroke="blue" stroke-width="2" fill="none" marker-end="url(#vector-field-exponent-2-arrow-head-end-2_None_24_60-blue)"/><line id="vector-field-exponent-2-__line-32" x1="137.5" y1="212.5" x2="140.6" y2="193.7" stroke="blue" stroke-width="2" fill="none" marker-end="url(#vector-field-exponent-2-arrow-head-end-2_None_24_60-blue)"/><line id="vector-field-exponent-2-__line-33" x1="137.5" y1="175.0" x2="137.5" y2="156.0" stroke="blue" stroke-width="2" fill="none" marker-end="url(#vector-field-exponent-2-arrow-head-end-2_None_24_60-blue)"/><line id="vector-field-exponent-2-__line-34" x1="137.5" y1="137.5" x2="134.4" y2="118.7" stroke="blue" stroke-width="2" fill="none" marker-end="url(#vector-field-exponent-2-arrow-head-end-2_None_24_60-blue)"/><line id="vector-field-exponent-2-__line-35" x1="137.5" y1="100.0" x2="131.4" y2="81.7" stroke="blue" stroke-width="2" fill="none" marker-end="url(#vector-field-exponent-2-arrow-head-end-2_None_24_60-blue)"/><line id="vector-field-exponent-2-__line-36" x1="137.5" y1="62.5" x2="128.7" y2="44.9" stroke="blue" stroke-width="2" fill="none" marker-end="url(#vector-field-exponent-2-arrow-head-end-2_None_24_60-blue)"/><line id="vector-field-exponent-2-__line-37" x1="137.5" y1="25.0" x2="126.4" y2="8.2" stroke="blue" stroke-width="2" fill="none" marker-end="url(#vector-field-exponent-2-arrow-head-end-2_None_24_60-blue)"/><line id="vector-field-exponent-2-__line-38" x1="175.0" y1="325.0" x2="175.0" y2="308.4" stroke="blue" stroke-width="2" fill="none" marker-end="url(#vector-field-exponent-2-arrow-head-end-2_None_24_60-blue)"/><line id="vector-field-exponent-2-__line-39" x1="175.0" y1="287.5" x2="175.0" y2="270.9" stroke="blue" stroke-width="2" fill="none" marker-end="url(#vector-field-exponent-2-arrow-head-end-2_None_24_60-blue)"/><line id="vector-field-exponent-2-__line-40" x1="175.0" y1="250.0" x2="175.0" y2="233.4" stroke="blue" stroke-width="2" fill="none" marker-end="url(#vector-field-exponent-2-arrow-head-end-2_None_24_60-blue)"/><line id="vector-field-exponent-2-__line-41" x1="175.0" y1="212.5" x2="175.0" y2="195.9" stroke="blue" stroke-width="2" fill="none" marker-end="url(#vector-field-exponent-2-arrow-head-end-2_None_24_60-blue)"/><line id="vector-field-exponent-2-__line-42" x1="175.0" y1="175.0" x2="175.0" y2="158.4" stroke="blue" stroke-width="2" fill="none" marker-end="url(#vector-field-exponent-2-arrow-head-end-2_None_24_60-blue)"/><line id="vector-field-exponent-2-__line-43" x1="175.0" y1="137.5" x2="175.0" y2="120.9" stroke="blue" stroke-width="2" fill="none" marker-end="url(#vector-field-exponent-2-arrow-head-end-2_None_24_60-blue)"/><line id="vector-field-exponent-2-__line-44" x1="175.0" y1="100.0" x2="175.0" y2="83.4" stroke="blue" stroke-width="2" fill="none" marker-end="url(#vector-field-exponent-2-arrow-head-end-2_None_24_60-blue)"/><line id="vector-field-exponent-2-__line-45" x1="175.0" y1="62.5" x2="175.0" y2="45.9" stroke="blue" stroke-width="2" fill="none" marker-end="url(#vector-field-exponent-2-arrow-head-end-2_None_24_60-blue)"/><line id="vector-field-exponent-2-__line-46" x1="175.0" y1="25.0" x2="175.0" y2="8.4" stroke="blue" stroke-width="2" fill="none" marker-end="url(#vector-field-exponent-2-arrow-head-end-2_None_24_60-blue)"/><line id="vector-field-exponent-2-__line-47" x1="212.5" y1="325.0" x2="197.2" y2="317.3" stroke="blue" stroke-width="2" fill="none" marker-end="url(#vector-field-exponent-2-arrow-head-end-2_None_24_60-blue)"/><line id="vector-field-exponent-2-__line-48" x1="212.5" y1="287.5" x2="199.2" y2="278.7" stroke="blue" stroke-width="2" fill="none" marker-end="url(#vector-field-exponent-2-arrow-head-end-2_None_24_60-blue)"/><line id="vector-field-exponent-2-__line-49" x1="212.5" y1="250.0" x2="202.1" y2="239.6" stroke="blue" stroke-width="2" fill="none" marker-end="url(#vector-field-exponent-2-arrow-head-end-2_None_24_60-blue)"/><line id="vector-field-exponent-2-__line-50" x1="212.5" y1="212.5" x2="206.5" y2="200.5" stroke="blue" stroke-width="2" fill="none" marker-end="url(#vector-field-exponent-2-arrow-head-end-2_None_24_60-blue)"/><line id="vector-field-exponent-2-__line-51" x1="212.5" y1="175.0" x2="212.5" y2="162.0" stroke="blue" stroke-width="2" fill="none" marker-end="url(#vector-field-exponent-2-arrow-head-end-2_None_24_60-blue)"/><line id="vector-field-exponent-2-__line-52" x1="212.5" y1="137.5" x2="218.5" y2="125.5" stroke="blue" stroke-width="2" fill="none" marker-end="url(#vector-field-exponent-2-arrow-head-end-2_None_24_60-blue)"/><line id="vector-field-exponent-2-__line-53" x1="212.5" y1="100.0" x2="222.9" y2="89.6" stroke="blue" stroke-width="2" fill="none" marker-end="url(#vector-field-exponent-2-arrow-head-end-2_None_24_60-blue)"/><line id="vector-field-exponent-2-__line-54" x1="212.5" y1="62.5" x2="225.8" y2="53.7" stroke="blue" stroke-width="2" fill="none" marker-end="url(#vector-field-exponent-2-arrow-head-end-2_None_24_60-blue)"/><line id="vector-field-exponent-2-__line-55" x1="212.5" y1="25.0" x2="227.8" y2="17.3" stroke="blue" stroke-width="2" fill="none" marker-end="url(#vector-field-exponent-2-arrow-head-end-2_None_24_60-blue)"/><line id="vector-field-exponent-2-__line-56" x1="250.0" y1="325.0" x2="229.1" y2="325.0" stroke="blue" stroke-width="2" fill="none" marker-end="url(#vector-field-exponent-2-arrow-head-end-2_None_24_60-blue)"/><line id="vector-field-exponent-2-__line-57" x1="250.0" y1="287.5" x2="231.0" y2="287.5" stroke="blue" stroke-width="2" fill="none" marker-end="url(#vector-field-exponent-2-arrow-head-end-2_None_24_60-blue)"/><line id="vector-field-exponent-2-__line-58" x1="250.0" y1="250.0" x2="233.4" y2="250.0" stroke="blue" stroke-width="2" fill="none" marker-end="url(#vector-field-exponent-2-arrow-head-end-2_None_24_60-blue)"/><line id="vector-field-exponent-2-__line-59" x1="250.0" y1="212.5" x2="237.0" y2="212.5" stroke="blue" stroke-width="2" fill="none" marker-end="url(#vector-field-exponent-2-arrow-head-end-2_None_24_60-blue)"/><line id="vector-field-exponent-2-__line-60" x1="250.0" y1="137.5" x2="263.0" y2="137.5" stroke="blue" stroke-width="2" fill="none" marker-end="url(#vector-field-exponent-2-arrow-head-end-2_None_24_60-blue)"/><line id="vector-field-exponent-2-__line-61" x1="250.0" y1="100.0" x2="266.6" y2="100.0" stroke="blue" stroke-width="2" fill="none" marker-end="url(#vector-field-exponent-2-arrow-head-end-2_None_24_60-blue)"/><line id="vector-field-exponent-2-__line-62" x1="250.0" y1="62.5" x2="269.0" y2="62.5" stroke="blue" stroke-width="2" fill="none" marker-end="url(#vector-field-exponent-2-arrow-head-end-2_None_24_60-blue)"/><line id="vector-field-exponent-2-__line-63" x1="250.0" y1="25.0" x2="270.9" y2="25.0" stroke="blue" stroke-width="2" fill="none" marker-end="url(#vector-field-exponent-2-arrow-head-end-2_None_24_60-blue)"/><line id="vector-field-exponent-2-__line-64" x1="287.5" y1="325.0" x2="263.8" y2="329.0" stroke="blue" stroke-width="2" fill="none" marker-end="url(#vector-field-exponent-2-arrow-head-end-2_None_24_60-blue)"/><line id="vector-field-exponent-2-__line-65" x1="287.5" y1="287.5" x2="266.1" y2="292.3" stroke="blue" stroke-width="2" fill="none" marker-end="url(#vector-field-exponent-2-arrow-head-end-2_None_24_60-blue)"/><line id="vector-field-exponent-2-__line-66" x1="287.5" y1="250.0" x2="269.2" y2="256.1" stroke="blue" stroke-width="2" fill="none" marker-end="url(#vector-field-exponent-2-arrow-head-end-2_None_24_60-blue)"/><line id="vector-field-exponent-2-__line-67" x1="287.5" y1="212.5" x2="274.2" y2="221.3" stroke="blue" stroke-width="2" fill="none" marker-end="url(#vector-field-exponent-2-arrow-head-end-2_None_24_60-blue)"/><line id="vector-field-exponent-2-__line-68" x1="287.5" y1="175.0" x2="287.5" y2="188.0" stroke="blue" stroke-width="2" fill="none" marker-end="url(#vector-field-exponent-2-arrow-head-end-2_None_24_60-blue)"/><line id="vector-field-exponent-2-__line-69" x1="287.5" y1="137.5" x2="300.8" y2="146.3" stroke="blue" stroke-width="2" fill="none" marker-end="url(#vector-field-exponent-2-arrow-head-end-2_None_24_60-blue)"/><line id="vector-field-exponent-2-__line-70" x1="287.5" y1="100.0" x2="305.8" y2="106.1" stroke="blue" stroke-width="2" fill="none" marker-end="url(#vector-field-exponent-2-arrow-head-end-2_None_24_60-blue)"/><line id="vector-field-exponent-2-__line-71" x1="287.5" y1="62.5" x2="308.9" y2="67.3" stroke="blue" stroke-width="2" fill="none" marker-end="url(#vector-field-exponent-2-arrow-head-end-2_None_24_60-blue)"/><line id="vector-field-exponent-2-__line-72" x1="287.5" y1="25.0" x2="311.2" y2="28.9" stroke="blue" stroke-width="2" fill="none" marker-end="url(#vector-field-exponent-2-arrow-head-end-2_None_24_60-blue)"/><line id="vector-field-exponent-2-__line-73" x1="325.0" y1="325.0" x2="299.3" y2="331.4" stroke="blue" stroke-width="2" fill="none" marker-end="url(#vector-field-exponent-2-arrow-head-end-2_None_24_60-blue)"/><line id="vector-field-exponent-2-__line-74" x1="325.0" y1="287.5" x2="301.9" y2="295.2" stroke="blue" stroke-width="2" fill="none" marker-end="url(#vector-field-exponent-2-arrow-head-end-2_None_24_60-blue)"/><line id="vector-field-exponent-2-__line-75" x1="325.0" y1="250.0" x2="305.6" y2="259.7" stroke="blue" stroke-width="2" fill="none" marker-end="url(#vector-field-exponent-2-arrow-head-end-2_None_24_60-blue)"/><line id="vector-field-exponent-2-__line-76" x1="325.0" y1="212.5" x2="311.8" y2="225.7" stroke="blue" stroke-width="2" fill="none" marker-end="url(#vector-field-exponent-2-arrow-head-end-2_None_24_60-blue)"/><line id="vector-field-exponent-2-__line-77" x1="325.0" y1="175.0" x2="325.0" y2="191.6" stroke="blue" stroke-width="2" fill="none" marker-end="url(#vector-field-exponent-2-arrow-head-end-2_None_24_60-blue)"/><line id="vector-field-exponent-2-__line-78" x1="325.0" y1="137.5" x2="338.2" y2="150.7" stroke="blue" stroke-width="2" fill="none" marker-end="url(#vector-field-exponent-2-arrow-head-end-2_None_24_60-blue)"/><line id="vector-field-exponent-2-__line-79" x1="325.0" y1="100.0" x2="344.4" y2="109.7" stroke="blue" stroke-width="2" fill="none" marker-end="url(#vector-field-exponent-2-arrow-head-end-2_None_24_60-blue)"/><line id="vector-field-exponent-2-__line-80" x1="325.0" y1="62.5" x2="348.1" y2="70.2" stroke="blue" stroke-width="2" fill="none" marker-end="url(#vector-field-exponent-2-arrow-head-end-2_None_24_60-blue)"/><line id="vector-field-exponent-2-__line-81" x1="325.0" y1="25.0" x2="350.7" y2="31.4" stroke="blue" stroke-width="2" fill="none" marker-end="url(#vector-field-exponent-2-arrow-head-end-2_None_24_60-blue)"/></g></svg>