<svg xmlns="http://www.w3.org/2000/svg" id="labels-lines-figure" width="360" height="210" viewBox="0 0 360 210"><defs><clipPath id="labels-lines-__clipPath-0"><rect x="5.0" y="5.0" width="350.0" height="200.0"/></clipPath><clipPath id="labels-lines-__clipPath-1"><rect x="5.0" y="5.0" width="350.0" height="200.0"/></clipPath></defs><g id="labels-lines-grid" stroke="#ccc" stroke-width="1"><line x1="5.0" y1="205.0" x2="5.0" y2="5.0"/><line x1="40.0" y1="205.0" x2="40.0" y2="5.0"/><line x1="75.0" y1="205.0" x2="75.0" y2="5.0"/><line x1="110.0" y1="205.0" x2="110.0" y2="5.0"/><line x1="145.0" y1="205.0" x2="145.0" y2="5.0"/><line x1="180.0" y1="205.0" x2="180.0" y2="5.0"/><line x1="215.0" y1="205.0" x2="215.0" y2="5.0"/><line x1="250.0" y1="205.0" x2="250.0" y2="5.0"/><line x1="285.0" y1="205.0" x2="285.0" y2="5.0"/><line x1="320.0" y1="205.0" x2="320.0" y2="5.0"/><line x1="355.0" y1="205.0" x2="355.0" y2="5.0"/><line x1="5.0" y1="205.0" x2="355.0" y2="205.0"/><line x1="5.0" y1="185.0" x2="355.0" y2="185.0"/><line x1="5.0" y1="165.0" x2="355.0" y2="165.0"/><line x1="5.0" y1="145.0" x2="355.0" y2="145.0"/><line x1="5.0" y1="125.0" x2="355.0" y2="125.0"/><line x1="5.0" y1="105.0" x2="355.0" y2="105.0"/><line x1="5.0" y1="85.0" x2="355.0" y2="85.0"/><line x1="5.0" y1="65.0" x2="355.0" y2="65.0"/><line x1="5.0" y1="45.0" x2="355.0" y2="45.0"/><line x1="5.0" y1="25.0" x2="355.0" y2="25.0"/><line x1="5.0" y1="5.0" x2="355.0" y2="5.0"/></g><g id="labels-lines-__label-0" transform="translate(44.0,45.0) translate(0.0,-19.3)"><rect x="-6" y="-6" width="196.4876953125" height="50.5048828125" stroke="none" fill="white"/><g id="labels-lines-__g-0"><text font-family="sans-serif" font-size="14" x="0.0" y="10.6">This is a</text><text font-family="sans-serif" font-size="14" font-weight="bold" x="61.7" y="10.6">bold</text><text font-family="sans-serif" font-size="14" x="100.6" y="10.6">statement</text><text font-family="sans-serif" font-size="14" x="0.0" y="24.5">but we can have</text><text font-family="sans-serif" font-size="14" font-style="italic" x="120.6" y="24.5">itatics</text><text font-family="sans-serif" font-size="14" x="0.0" y="38.3">and</text><text font-family="sans-serif" font-size="14" font-style="italic" x="30.8" y="38.3">italicized</text><text font-family="sans-serif" font-size="14" font-style="italic" font-weight="bold" x="97.4" y="38.3">bold</text><text font-family="sans-serif" font-size="14" x="136.3" y="38.3">as well</text></g></g><g id="labels-lines-__label-1" transform="translate(180.0,125.0) translate(-88.9,-18.0)"><rect x="-6" y="-6" width="189.7649296875" height="47.972828125" stroke="none" fill="white"/><g id="labels-lines-__g-1"><text font-family="sans-serif" font-size="14" x="12.9" y="10.6">Math can still appear:</text><text font-family="sans-serif" font-size="14" x="0.0" y="35.8">The</text><text font-family="sans-serif" font-size="14" font-style="italic" x="30.5" y="35.8">derivative</text><text font-family="sans-serif" font-size="14" x="105.2" y="35.8">of</text><svg xmlns:xlink="http://www.w3.org/1999/xlink" style="vertical-align: -0.200px" width="17.256px" height="12.424px" role="img" focusable="false" viewBox="0 -675.5 953.5 686.5" x="123.2" y="23.5"><defs><path id="labels-lines-MJX-1-TEX-I-1D452" d="M39 168Q39 225 58 272T107 350T174 402T244 433T307 442H310Q355 442 388 420T421 355Q421 265 310 237Q261 224 176 223Q139 223 138 221Q138 219 132 186T125 128Q125 81 146 54T209 26T302 45T394 111Q403 121 406 121Q410 121 419 112T429 98T420 82T390 55T344 24T281 -1T205 -11Q126 -11 83 42T39 168ZM373 353Q367 405 305 405Q272 405 244 391T199 357T170 316T154 280T149 261Q149 260 169 260Q282 260 327 284T373 353Z"/><path id="labels-lines-MJX-1-TEX-I-1D465" d="M52 289Q59 331 106 386T222 442Q257 442 286 424T329 379Q371 442 430 442Q467 442 494 420T522 361Q522 332 508 314T481 292T458 288Q439 288 427 299T415 328Q415 374 465 391Q454 404 425 404Q412 404 406 402Q368 386 350 336Q290 115 290 78Q290 50 306 38T341 26Q378 26 414 59T463 140Q466 150 469 151T485 153H489Q504 153 504 145Q504 144 502 134Q486 77 440 33T333 -11Q263 -11 227 52Q186 -10 133 -10H127Q78 -10 57 16T35 71Q35 103 54 123T99 143Q142 143 142 101Q142 81 130 66T107 46T94 41L91 40Q91 39 97 36T113 29T132 26Q168 26 194 71Q203 87 217 139T245 247T261 313Q266 340 266 352Q266 380 251 392T217 404Q177 404 142 372T93 290Q91 281 88 280T72 278H58Q52 284 52 289Z"/></defs><g stroke="currentColor" fill="currentColor" stroke-width="0" transform="scale(1,-1)"><g data-mml-node="math"><g data-mml-node="msup" data-semantic-type="superscript" data-semantic-role="latinletter" data-semantic-id="2" data-semantic-children="0,1" data-semantic-speech="e Superscript x"><g data-mml-node="mi" data-semantic-type="identifier" data-semantic-role="latinletter" data-semantic-font="italic" data-semantic-annotation="clearspeak:simple" data-semantic-id="0" data-semantic-parent="2" data-semantic-speech="e" data-semantic-prefix="Base"><use data-c="1D452" xlink:href="#labels-lines-MJX-1-TEX-I-1D452"/></g><g data-mml-node="mi" transform="translate(499,363) scale(0.707)" data-semantic-type="identifier" data-semantic-role="latinletter" data-semantic-font="italic" data-semantic-annotation="clearspeak:simple" data-semantic-id="1" data-semantic-parent="2" data-semantic-speech="x" data-semantic-prefix="Exponent"><use data-c="1D465" xlink:href="#labels-lines-MJX-1-TEX-I-1D465"/></g></g></g></g></svg><text font-family="sans-serif" font-size="14" x="144.9" y="35.8">is</text><svg xmlns:xlink="http://www.w3.org/1999/xlink" style="vertical-align: -0.200px" width="17.256px" height="12.424px" role="img" focusable="false" viewBox="0 -675.5 953.5 686.5" x="160.5" y="23.5"><defs><path id="labels-lines-MJX-2-TEX-I-1D452" d="M39 168Q39 225 58 272T107 350T174 402T244 433T307 442H310Q355 442 388 420T421 355Q421 265 310 237Q261 224 176 223Q139 223 138 221Q138 219 132 186T125 128Q125 81 146 54T209 26T302 45T394 111Q403 121 406 121Q410 121 419 112T429 98T420 82T390 55T344 24T281 -1T205 -11Q126 -11 83 42T39 168ZM373 353Q367 405 305 405Q272 405 244 391T199 357T170 316T154 280T149 261Q149 260 169 260Q282 260 327 284T373 353Z"/><path id="labels-lines-MJX-2-TEX-I-1D465" d="M52 289Q59 331 106 386T222 442Q257 442 286 424T329 379Q371 442 430 442Q467 442 494 420T522 361Q522 332 508 314T481 292T458 288Q439 288 427 299T415 328Q415 374 465 391Q454 404 425 404Q412 404 406 402Q368 386 350 336Q290 115 290 78Q290 50 306 38T341 26Q378 26 414 59T463 140Q466 150 469 151T485 153H489Q504 153 504 145Q504 144 502 134Q486 77 440 33T333 -11Q263 -11 227 52Q186 -10 133 -10H127Q78 -10 57 16T35 71Q35 103 54 123T99 143Q142 143 142 101Q142 81 130 66T107 46T94 41L91 40Q91 39 97 36T113 29T132 26Q168 26 194 71Q203 87 217 139T245 247T261 313Q266 340 266 352Q266 380 251 392T217 404Q177 404 142 372T93 290Q91 281 88 280T72 278H58Q52 284 52 289Z"/></defs><g stroke="currentColor" fill="currentColor" stroke-width="0" transform="scale(1,-1)"><g data-mml-node="math"><g data-mml-node="msup" data-semantic-type="superscript" data-semantic-role="latinletter" data-semantic-id="2" data-semantic-children="0,1" data-semantic-speech="e Superscript x"><g data-mml-node="mi" data-semantic-type="identifier" data-semantic-role="latinletter" data-semantic-font="italic" data-semantic-annotation="clearspeak:simple" data-semantic-id="0" data-semantic-parent="2" data-semantic-speech="e" data-semantic-prefix="Base"><use data-c="1D452" xlink:href="#labels-lines-MJX-2-TEX-I-1D452"/></g><g data-mml-node="mi" transform="translate(499,363) scale(0.707)" data-semantic-type="identifier" data-semantic-role="latinletter" data-semantic-font="italic" data-semantic-annotation="clearspeak:simple" data-semantic-id="1" data-semantic-parent="2" data-semantic-speech="x" data-semantic-prefix="Exponent"><use data-c="1D465" xlink:href="#labels-lines-MJX-2-TEX-I-1D465"/></g></g></g></g></svg></g></g><g id="labels-lines-__label-2" transform="translate(44.0,169.0) scale(0.6,0.6) translate(0.0,-0.0)"><rect x="-6" y="-6" width="355.875" height="25.548828125" stroke="none" fill="white"/><g id="labels-lines-__g-2"><text font-family="sans-serif" font-size="14" x="0.0" y="10.6">Use the @scale attribute to change the font size.</text></g></g></svg>