<svg xmlns="http://www.w3.org/2000/svg" id="de-pulse-figure" width="340" height="330" viewBox="0 0 340 330"><defs><clipPath id="de-pulse-__clipPath-0"><rect x="20.0" y="25.0" width="300.0" height="300.0"/></clipPath><clipPath id="de-pulse-__clipPath-1"><rect x="20.0" y="25.0" width="300.0" height="300.0"/></clipPath><marker id="de-pulse-arrow-head-end-2_None_24_60-h777" markerWidth="9.0" markerHeight="8.0" markerUnits="userSpaceOnUse" orient="auto-start-reverse" refX="6.5" refY="4.0"><path d="M 9.0 4.0L 0.0 8.0L 1.7 5.0L 1.7 3.0L 0.0 0.0Z" fill="#777" stroke="none"/></marker><marker id="de-pulse-arrow-head-end-2_None_24_60-h777-outline" markerWidth="13.0" markerHeight="12.0" markerUnits="userSpaceOnUse" orient="auto-start-reverse" refX="8.5" refY="6.0"><path d="M 11.8 7.8 L 2.8 11.8 A 2 2 0 0 1 0.0 10.0 L 0.0 2.0 A 2 2 0 0 1 2.8 0.2 L 11.8 4.2 A 2 2 0 0 1 11.8 7.8 Z" fill="white" stroke="none"/></marker></defs><g id="de-pulse-grid-axes"><g id="de-pulse-grid" stroke="#ccc" stroke-width="1"><line x1="37.6" y1="325.0" x2="37.6" y2="25.0"/><line x1="72.9" y1="325.0" x2="72.9" y2="25.0"/><line x1="108.2" y1="325.0" x2="108.2" y2="25.0"/><line x1="143.5" y1="325.0" x2="143.5" y2="25.0"/><line x1="178.8" y1="325.0" x2="178.8" y2="25.0"/><line x1="214.1" y1="325.0" x2="214.1" y2="25.0"/><line x1="249.4" y1="325.0" x2="249.4" y2="25.0"/><line x1="284.7" y1="325.0" x2="284.7" y2="25.0"/><line x1="320.0" y1="325.0" x2="320.0" y2="25.0"/><line x1="20.0" y1="297.7" x2="320.0" y2="297.7"/><line x1="20.0" y1="263.6" x2="320.0" y2="263.6"/><line x1="20.0" y1="229.5" x2="320.0" y2="229.5"/><line x1="20.0" y1="195.5" x2="320.0" y2="195.5"/><line x1="20.0" y1="161.4" x2="320.0" y2="161.4"/><line x1="20.0" y1="127.3" x2="320.0" y2="127.3"/><line x1="20.0" y1="93.2" x2="320.0" y2="93.2"/><line x1="20.0" y1="59.1" x2="320.0" y2="59.1"/><line x1="20.0" y1="25.0" x2="320.0" y2="25.0"/></g><g id="de-pulse-axes" stroke="black" stroke-width="2"><line id="de-pulse-__line-18" x1="20.0" y1="297.7" x2="320.0" y2="297.7" stroke="black" stroke-width="2"/><g><line id="de-pulse-__line-19" x1="108.2" y1="300.7" x2="108.2" y2="294.7"/><line id="de-pulse-__line-20" x1="178.8" y1="300.7" x2="178.8" y2="294.7"/><line id="de-pulse-__line-21" x1="249.4" y1="300.7" x2="249.4" y2="294.7"/></g><line id="de-pulse-__line-22" x1="37.6" y1="325.0" x2="37.6" y2="25.0" stroke="black" stroke-width="2"/><g><line id="de-pulse-__line-23" x1="34.6" y1="229.5" x2="40.6" y2="229.5"/><line id="de-pulse-__line-24" x1="34.6" y1="161.4" x2="40.6" y2="161.4"/><line id="de-pulse-__line-25" x1="34.6" y1="93.2" x2="40.6" y2="93.2"/></g></g><g id="de-pulse-__label-0" transform="translate(108.2,308.7) translate(-4.5,-0.0)"><g id="de-pulse-__g-0"><svg xmlns:xlink="http://www.w3.org/1999/xlink" style="vertical-align: 0.000px" width="9.048px" height="12.056px" role="img" focusable="false" viewBox="0 -666 500 666" x="0.0" y="0.0"><defs><path id="de-pulse-MJX-1-TEX-N-32" d="M109 429Q82 429 66 447T50 491Q50 562 103 614T235 666Q326 666 387 610T449 465Q449 422 429 383T381 315T301 241Q265 210 201 149L142 93L218 92Q375 92 385 97Q392 99 409 186V189H449V186Q448 183 436 95T421 3V0H50V19V31Q50 38 56 46T86 81Q115 113 136 137Q145 147 170 174T204 211T233 244T261 278T284 308T305 340T320 369T333 401T340 431T343 464Q343 527 309 573T212 619Q179 619 154 602T119 569T109 550Q109 549 114 549Q132 549 151 535T170 489Q170 464 154 447T109 429Z"/></defs><g stroke="currentColor" fill="currentColor" stroke-width="0" transform="scale(1,-1)"><g data-mml-node="math"><g data-mml-node="mtext" data-semantic-type="text" data-semantic-role="integer" data-semantic-font="normal" data-semantic-annotation="clearspeak:unit" data-semantic-id="0" data-semantic-speech="2"><use data-c="32" xlink:href="#de-pulse-MJX-1-TEX-N-32"/></g></g></g></svg></g></g><g id="de-pulse-__label-1" transform="translate(178.8,308.7) translate(-4.5,-0.0)"><g id="de-pulse-__g-1"><svg xmlns:xlink="http://www.w3.org/1999/xlink" style="vertical-align: 0.000px" width="9.048px" height="12.256px" role="img" focusable="false" viewBox="0 -677 500 677" x="0.0" y="0.0"><defs><path id="de-pulse-MJX-2-TEX-N-34" d="M462 0Q444 3 333 3Q217 3 199 0H190V46H221Q241 46 248 46T265 48T279 53T286 61Q287 63 287 115V165H28V211L179 442Q332 674 334 675Q336 677 355 677H373L379 671V211H471V165H379V114Q379 73 379 66T385 54Q393 47 442 46H471V0H462ZM293 211V545L74 212L183 211H293Z"/></defs><g stroke="currentColor" fill="currentColor" stroke-width="0" transform="scale(1,-1)"><g data-mml-node="math"><g data-mml-node="mtext" data-semantic-type="text" data-semantic-role="integer" data-semantic-font="normal" data-semantic-annotation="clearspeak:unit" data-semantic-id="0" data-semantic-speech="4"><use data-c="34" xlink:href="#de-pulse-MJX-2-TEX-N-34"/></g></g></g></svg></g></g><g id="de-pulse-__label-2" transform="translate(249.4,308.7) translate(-4.5,-0.0)"><g id="de-pulse-__g-2"><svg xmlns:xlink="http://www.w3.org/1999/xlink" style="vertical-align: -0.400px" width="9.048px" height="12.456px" role="img" focusable="false" viewBox="0 -666 500 688" x="0.0" y="0.0"><defs><path id="de-pulse-MJX-3-TEX-N-36" d="M42 313Q42 476 123 571T303 666Q372 666 402 630T432 550Q432 525 418 510T379 495Q356 495 341 509T326 548Q326 592 373 601Q351 623 311 626Q240 626 194 566Q147 500 147 364L148 360Q153 366 156 373Q197 433 263 433H267Q313 433 348 414Q372 400 396 374T435 317Q456 268 456 210V192Q456 169 451 149Q440 90 387 34T253 -22Q225 -22 199 -14T143 16T92 75T56 172T42 313ZM257 397Q227 397 205 380T171 335T154 278T148 216Q148 133 160 97T198 39Q222 21 251 21Q302 21 329 59Q342 77 347 104T352 209Q352 289 347 316T329 361Q302 397 257 397Z"/></defs><g stroke="currentColor" fill="currentColor" stroke-width="0" transform="scale(1,-1)"><g data-mml-node="math"><g data-mml-node="mtext" data-semantic-type="text" data-semantic-role="integer" data-semantic-font="normal" data-semantic-annotation="clearspeak:unit" data-semantic-id="0" data-semantic-speech="6"><use data-c="36" xlink:href="#de-pulse-MJX-3-TEX-N-36"/></g></g></g></svg></g></g><g id="de-pulse-__label-3" transform="translate(26.6,229.5) translate(-9.0,-6.2)"><g id="de-pulse-__g-3"><svg xmlns:xlink="http://www.w3.org/1999/xlink" style="vertical-align: -0.400px" width="9.048px" height="12.456px" role="img" focusable="false" viewBox="0 -666 500 688" x="0.0" y="0.0"><defs><path id="de-pulse-MJX-4-TEX-N-35" d="M164 157Q164 133 148 117T109 101H102Q148 22 224 22Q294 22 326 82Q345 115 345 210Q345 313 318 349Q292 382 260 382H254Q176 382 136 314Q132 307 129 306T114 304Q97 304 95 310Q93 314 93 485V614Q93 664 98 664Q100 666 102 666Q103 666 123 658T178 642T253 634Q324 634 389 662Q397 666 402 666Q410 666 410 648V635Q328 538 205 538Q174 538 149 544L139 546V374Q158 388 169 396T205 412T256 420Q337 420 393 355T449 201Q449 109 385 44T229 -22Q148 -22 99 32T50 154Q50 178 61 192T84 210T107 214Q132 214 148 197T164 157Z"/></defs><g stroke="currentColor" fill="currentColor" stroke-width="0" transform="scale(1,-1)"><g data-mml-node="math"><g data-mml-node="mtext" data-semantic-type="text" data-semantic-role="integer" data-semantic-font="normal" data-semantic-annotation="clearspeak:unit" data-semantic-id="0" data-semantic-speech="5"><use data-c="35" xlink:href="#de-pulse-MJX-4-TEX-N-35"/></g></g></g></svg></g></g><g id="de-pulse-__label-4" transform="translate(26.6,161.4) translate(-18.1,-6.2)"><g id="de-pulse-__g-4"><svg xmlns:xlink="http://www.w3.org/1999/xlink" style="vertical-align: -0.400px" width="18.096px" height="12.456px" role="img" focusable="false" viewBox="0 -666 1000 688" x="0.0" y="0.0"><defs><path id="de-pulse-MJX-5-TEX-N-31" d="M213 578L200 573Q186 568 160 563T102 556H83V602H102Q149 604 189 617T245 641T273 663Q275 666 285 666Q294 666 302 660V361L303 61Q310 54 315 52T339 48T401 46H427V0H416Q395 3 257 3Q121 3 100 0H88V46H114Q136 46 152 46T177 47T193 50T201 52T207 57T213 61V578Z"/><path id="de-pulse-MJX-5-TEX-N-30" d="M96 585Q152 666 249 666Q297 666 345 640T423 548Q460 465 460 320Q460 165 417 83Q397 41 362 16T301 -15T250 -22Q224 -22 198 -16T137 16T82 83Q39 165 39 320Q39 494 96 585ZM321 597Q291 629 250 629Q208 629 178 597Q153 571 145 525T137 333Q137 175 145 125T181 46Q209 16 250 16Q290 16 318 46Q347 76 354 130T362 333Q362 478 354 524T321 597Z"/></defs><g stroke="currentColor" fill="currentColor" stroke-width="0" transform="scale(1,-1)"><g data-mml-node="math"><g data-mml-node="mtext" data-semantic-type="text" data-semantic-role="unknown" data-semantic-font="normal" data-semantic-annotation="clearspeak:unit" data-semantic-id="0" data-semantic-speech="10"><use data-c="31" xlink:href="#de-pulse-MJX-5-TEX-N-31"/><use data-c="30" xlink:href="#de-pulse-MJX-5-TEX-N-30" transform="translate(500,0)"/></g></g></g></svg></g></g><g id="de-pulse-__label-5" transform="translate(26.6,93.2) translate(-18.1,-6.2)"><g id="de-pulse-__g-5"><svg xmlns:xlink="http://www.w3.org/1999/xlink" style="vertical-align: -0.400px" width="18.096px" height="12.456px" role="img" focusable="false" viewBox="0 -666 1000 688" x="0.0" y="0.0"><defs><path id="de-pulse-MJX-6-TEX-N-31" d="M213 578L200 573Q186 568 160 563T102 556H83V602H102Q149 604 189 617T245 641T273 663Q275 666 285 666Q294 666 302 660V361L303 61Q310 54 315 52T339 48T401 46H427V0H416Q395 3 257 3Q121 3 100 0H88V46H114Q136 46 152 46T177 47T193 50T201 52T207 57T213 61V578Z"/><path id="de-pulse-MJX-6-TEX-N-35" d="M164 157Q164 133 148 117T109 101H102Q148 22 224 22Q294 22 326 82Q345 115 345 210Q345 313 318 349Q292 382 260 382H254Q176 382 136 314Q132 307 129 306T114 304Q97 304 95 310Q93 314 93 485V614Q93 664 98 664Q100 666 102 666Q103 666 123 658T178 642T253 634Q324 634 389 662Q397 666 402 666Q410 666 410 648V635Q328 538 205 538Q174 538 149 544L139 546V374Q158 388 169 396T205 412T256 420Q337 420 393 355T449 201Q449 109 385 44T229 -22Q148 -22 99 32T50 154Q50 178 61 192T84 210T107 214Q132 214 148 197T164 157Z"/></defs><g stroke="currentColor" fill="currentColor" stroke-width="0" transform="scale(1,-1)"><g data-mml-node="math"><g data-mml-node="mtext" data-semantic-type="text" data-semantic-role="unknown" data-semantic-font="normal" data-semantic-annotation="clearspeak:unit" data-semantic-id="0" data-semantic-speech="15"><use data-c="31" xlink:href="#de-pulse-MJX-6-TEX-N-31"/><use data-c="35" xlink:href="#de-pulse-MJX-6-TEX-N-35" transform="translate(500,0)"/></g></g></g></svg></g></g></g><g id="de-pulse-__slope-field-0"><line id="de-pulse-__line-26" x1="35.4" y1="306.2" x2="39.3" y2="291.6" stroke="#777" stroke-width="2" fill="none" marker-end="url(#de-pulse-arrow-head-end-2_None_24_60-h777)"/><line id="de-pulse-__line-27" x1="34.7" y1="272.2" x2="39.8" y2="257.4" stroke="#777" stroke-width="2" fill="none" marker-end="url(#de-pulse-arrow-head-end-2_None_24_60-h777)"/><line id="de-pulse-__line-28" x1="33.2" y1="238.1" x2="41.0" y2="223.2" stroke="#777" stroke-width="2" fill="none" marker-end="url(#de-pulse-arrow-head-end-2_None_24_60-h777)"/><line id="de-pulse-__line-29" x1="28.8" y1="204.0" x2="44.7" y2="188.6" stroke="#777" stroke-width="2" fill="none" marker-end="url(#de-pulse-arrow-head-end-2_None_24_60-h777)"/><line id="de-pulse-__line-30" x1="28.8" y1="161.4" x2="44.1" y2="161.4" stroke="#777" stroke-width="2" fill="none" marker-end="url(#de-pulse-arrow-head-end-2_None_24_60-h777)"/><line id="de-pulse-__line-31" x1="28.8" y1="118.8" x2="44.7" y2="134.1" stroke="#777" stroke-width="2" fill="none" marker-end="url(#de-pulse-arrow-head-end-2_None_24_60-h777)"/><line id="de-pulse-__line-32" x1="33.2" y1="84.7" x2="41.0" y2="99.5" stroke="#777" stroke-width="2" fill="none" marker-end="url(#de-pulse-arrow-head-end-2_None_24_60-h777)"/><line id="de-pulse-__line-33" x1="34.7" y1="50.6" x2="39.8" y2="65.3" stroke="#777" stroke-width="2" fill="none" marker-end="url(#de-pulse-arrow-head-end-2_None_24_60-h777)"/><line id="de-pulse-__line-34" x1="35.4" y1="16.5" x2="39.3" y2="31.1" stroke="#777" stroke-width="2" fill="none" marker-end="url(#de-pulse-arrow-head-end-2_None_24_60-h777)"/><line id="de-pulse-__line-35" x1="70.7" y1="306.2" x2="74.5" y2="291.6" stroke="#777" stroke-width="2" fill="none" marker-end="url(#de-pulse-arrow-head-end-2_None_24_60-h777)"/><line id="de-pulse-__line-36" x1="70.0" y1="272.2" x2="75.1" y2="257.4" stroke="#777" stroke-width="2" fill="none" marker-end="url(#de-pulse-arrow-head-end-2_None_24_60-h777)"/><line id="de-pulse-__line-37" x1="68.5" y1="238.1" x2="76.3" y2="223.2" stroke="#777" stroke-width="2" fill="none" marker-end="url(#de-pulse-arrow-head-end-2_None_24_60-h777)"/><line id="de-pulse-__line-38" x1="64.1" y1="204.0" x2="80.0" y2="188.6" stroke="#777" stroke-width="2" fill="none" marker-end="url(#de-pulse-arrow-head-end-2_None_24_60-h777)"/><line id="de-pulse-__line-39" x1="64.1" y1="161.4" x2="79.4" y2="161.4" stroke="#777" stroke-width="2" fill="none" marker-end="url(#de-pulse-arrow-head-end-2_None_24_60-h777)"/><line id="de-pulse-__line-40" x1="64.1" y1="118.8" x2="80.0" y2="134.1" stroke="#777" stroke-width="2" fill="none" marker-end="url(#de-pulse-arrow-head-end-2_None_24_60-h777)"/><line id="de-pulse-__line-41" x1="68.5" y1="84.7" x2="76.3" y2="99.5" stroke="#777" stroke-width="2" fill="none" marker-end="url(#de-pulse-arrow-head-end-2_None_24_60-h777)"/><line id="de-pulse-__line-42" x1="70.0" y1="50.6" x2="75.1" y2="65.3" stroke="#777" stroke-width="2" fill="none" marker-end="url(#de-pulse-arrow-head-end-2_None_24_60-h777)"/><line id="de-pulse-__line-43" x1="70.7" y1="16.5" x2="74.5" y2="31.1" stroke="#777" stroke-width="2" fill="none" marker-end="url(#de-pulse-arrow-head-end-2_None_24_60-h777)"/><line id="de-pulse-__line-44" x1="106.0" y1="306.2" x2="109.8" y2="291.6" stroke="#777" stroke-width="2" fill="none" marker-end="url(#de-pulse-arrow-head-end-2_None_24_60-h777)"/><line id="de-pulse-__line-45" x1="105.3" y1="272.2" x2="110.4" y2="257.4" stroke="#777" stroke-width="2" fill="none" marker-end="url(#de-pulse-arrow-head-end-2_None_24_60-h777)"/><line id="de-pulse-__line-46" x1="103.8" y1="238.1" x2="111.5" y2="223.2" stroke="#777" stroke-width="2" fill="none" marker-end="url(#de-pulse-arrow-head-end-2_None_24_60-h777)"/><line id="de-pulse-__line-47" x1="99.4" y1="204.0" x2="115.3" y2="188.6" stroke="#777" stroke-width="2" fill="none" marker-end="url(#de-pulse-arrow-head-end-2_None_24_60-h777)"/><line id="de-pulse-__line-48" x1="99.4" y1="161.4" x2="114.7" y2="161.4" stroke="#777" stroke-width="2" fill="none" marker-end="url(#de-pulse-arrow-head-end-2_None_24_60-h777)"/><line id="de-pulse-__line-49" x1="99.4" y1="118.8" x2="115.3" y2="134.1" stroke="#777" stroke-width="2" fill="none" marker-end="url(#de-pulse-arrow-head-end-2_None_24_60-h777)"/><line id="de-pulse-__line-50" x1="103.8" y1="84.7" x2="111.5" y2="99.5" stroke="#777" stroke-width="2" fill="none" marker-end="url(#de-pulse-arrow-head-end-2_None_24_60-h777)"/><line id="de-pulse-__line-51" x1="105.3" y1="50.6" x2="110.4" y2="65.3" stroke="#777" stroke-width="2" fill="none" marker-end="url(#de-pulse-arrow-head-end-2_None_24_60-h777)"/><line id="de-pulse-__line-52" x1="106.0" y1="16.5" x2="109.8" y2="31.1" stroke="#777" stroke-width="2" fill="none" marker-end="url(#de-pulse-arrow-head-end-2_None_24_60-h777)"/><line id="de-pulse-__line-53" x1="141.3" y1="306.2" x2="145.1" y2="291.6" stroke="#777" stroke-width="2" fill="none" marker-end="url(#de-pulse-arrow-head-end-2_None_24_60-h777)"/><line id="de-pulse-__line-54" x1="140.6" y1="272.2" x2="145.7" y2="257.4" stroke="#777" stroke-width="2" fill="none" marker-end="url(#de-pulse-arrow-head-end-2_None_24_60-h777)"/><line id="de-pulse-__line-55" x1="139.1" y1="238.1" x2="146.8" y2="223.2" stroke="#777" stroke-width="2" fill="none" marker-end="url(#de-pulse-arrow-head-end-2_None_24_60-h777)"/><line id="de-pulse-__line-56" x1="134.7" y1="204.0" x2="150.6" y2="188.6" stroke="#777" stroke-width="2" fill="none" marker-end="url(#de-pulse-arrow-head-end-2_None_24_60-h777)"/><line id="de-pulse-__line-57" x1="134.7" y1="161.4" x2="150.0" y2="161.4" stroke="#777" stroke-width="2" fill="none" marker-end="url(#de-pulse-arrow-head-end-2_None_24_60-h777)"/><line id="de-pulse-__line-58" x1="134.7" y1="118.8" x2="150.6" y2="134.1" stroke="#777" stroke-width="2" fill="none" marker-end="url(#de-pulse-arrow-head-end-2_None_24_60-h777)"/><line id="de-pulse-__line-59" x1="139.1" y1="84.7" x2="146.8" y2="99.5" stroke="#777" stroke-width="2" fill="none" marker-end="url(#de-pulse-arrow-head-end-2_None_24_60-h777)"/><line id="de-pulse-__line-60" x1="140.6" y1="50.6" x2="145.7" y2="65.3" stroke="#777" stroke-width="2" fill="none" marker-end="url(#de-pulse-arrow-head-end-2_None_24_60-h777)"/><line id="de-pulse-__line-61" x1="141.3" y1="16.5" x2="145.1" y2="31.1" stroke="#777" stroke-width="2" fill="none" marker-end="url(#de-pulse-arrow-head-end-2_None_24_60-h777)"/><line id="de-pulse-__line-62" x1="176.6" y1="306.2" x2="180.4" y2="291.6" stroke="#777" stroke-width="2" fill="none" marker-end="url(#de-pulse-arrow-head-end-2_None_24_60-h777)"/><line id="de-pulse-__line-63" x1="175.9" y1="272.2" x2="181.0" y2="257.4" stroke="#777" stroke-width="2" fill="none" marker-end="url(#de-pulse-arrow-head-end-2_None_24_60-h777)"/><line id="de-pulse-__line-64" x1="174.4" y1="238.1" x2="182.1" y2="223.2" stroke="#777" stroke-width="2" fill="none" marker-end="url(#de-pulse-arrow-head-end-2_None_24_60-h777)"/><line id="de-pulse-__line-65" x1="170.0" y1="204.0" x2="185.8" y2="188.6" stroke="#777" stroke-width="2" fill="none" marker-end="url(#de-pulse-arrow-head-end-2_None_24_60-h777)"/><line id="de-pulse-__line-66" x1="170.0" y1="161.4" x2="185.2" y2="161.4" stroke="#777" stroke-width="2" fill="none" marker-end="url(#de-pulse-arrow-head-end-2_None_24_60-h777)"/><line id="de-pulse-__line-67" x1="170.0" y1="118.8" x2="185.8" y2="134.1" stroke="#777" stroke-width="2" fill="none" marker-end="url(#de-pulse-arrow-head-end-2_None_24_60-h777)"/><line id="de-pulse-__line-68" x1="174.4" y1="84.7" x2="182.1" y2="99.5" stroke="#777" stroke-width="2" fill="none" marker-end="url(#de-pulse-arrow-head-end-2_None_24_60-h777)"/><line id="de-pulse-__line-69" x1="175.9" y1="50.6" x2="181.0" y2="65.3" stroke="#777" stroke-width="2" fill="none" marker-end="url(#de-pulse-arrow-head-end-2_None_24_60-h777)"/><line id="de-pulse-__line-70" x1="176.6" y1="16.5" x2="180.4" y2="31.1" stroke="#777" stroke-width="2" fill="none" marker-end="url(#de-pulse-arrow-head-end-2_None_24_60-h777)"/><line id="de-pulse-__line-71" x1="205.3" y1="297.7" x2="220.5" y2="297.7" stroke="#777" stroke-width="2" fill="none" marker-end="url(#de-pulse-arrow-head-end-2_None_24_60-h777)"/><line id="de-pulse-__line-72" x1="205.3" y1="255.1" x2="221.1" y2="270.5" stroke="#777" stroke-width="2" fill="none" marker-end="url(#de-pulse-arrow-head-end-2_None_24_60-h777)"/><line id="de-pulse-__line-73" x1="209.7" y1="221.0" x2="217.4" y2="235.9" stroke="#777" stroke-width="2" fill="none" marker-end="url(#de-pulse-arrow-head-end-2_None_24_60-h777)"/><line id="de-pulse-__line-74" x1="211.2" y1="186.9" x2="216.3" y2="201.7" stroke="#777" stroke-width="2" fill="none" marker-end="url(#de-pulse-arrow-head-end-2_None_24_60-h777)"/><line id="de-pulse-__line-75" x1="211.9" y1="152.8" x2="215.7" y2="167.5" stroke="#777" stroke-width="2" fill="none" marker-end="url(#de-pulse-arrow-head-end-2_None_24_60-h777)"/><line id="de-pulse-__line-76" x1="212.4" y1="118.8" x2="215.4" y2="133.4" stroke="#777" stroke-width="2" fill="none" marker-end="url(#de-pulse-arrow-head-end-2_None_24_60-h777)"/><line id="de-pulse-__line-77" x1="212.6" y1="84.7" x2="215.2" y2="99.3" stroke="#777" stroke-width="2" fill="none" marker-end="url(#de-pulse-arrow-head-end-2_None_24_60-h777)"/><line id="de-pulse-__line-78" x1="212.9" y1="50.6" x2="215.0" y2="65.2" stroke="#777" stroke-width="2" fill="none" marker-end="url(#de-pulse-arrow-head-end-2_None_24_60-h777)"/><line id="de-pulse-__line-79" x1="213.0" y1="16.5" x2="214.9" y2="31.1" stroke="#777" stroke-width="2" fill="none" marker-end="url(#de-pulse-arrow-head-end-2_None_24_60-h777)"/><line id="de-pulse-__line-80" x1="240.6" y1="297.7" x2="255.8" y2="297.7" stroke="#777" stroke-width="2" fill="none" marker-end="url(#de-pulse-arrow-head-end-2_None_24_60-h777)"/><line id="de-pulse-__line-81" x1="240.6" y1="255.1" x2="256.4" y2="270.5" stroke="#777" stroke-width="2" fill="none" marker-end="url(#de-pulse-arrow-head-end-2_None_24_60-h777)"/><line id="de-pulse-__line-82" x1="245.0" y1="221.0" x2="252.7" y2="235.9" stroke="#777" stroke-width="2" fill="none" marker-end="url(#de-pulse-arrow-head-end-2_None_24_60-h777)"/><line id="de-pulse-__line-83" x1="246.5" y1="186.9" x2="251.6" y2="201.7" stroke="#777" stroke-width="2" fill="none" marker-end="url(#de-pulse-arrow-head-end-2_None_24_60-h777)"/><line id="de-pulse-__line-84" x1="247.2" y1="152.8" x2="251.0" y2="167.5" stroke="#777" stroke-width="2" fill="none" marker-end="url(#de-pulse-arrow-head-end-2_None_24_60-h777)"/><line id="de-pulse-__line-85" x1="247.6" y1="118.8" x2="250.7" y2="133.4" stroke="#777" stroke-width="2" fill="none" marker-end="url(#de-pulse-arrow-head-end-2_None_24_60-h777)"/><line id="de-pulse-__line-86" x1="247.9" y1="84.7" x2="250.5" y2="99.3" stroke="#777" stroke-width="2" fill="none" marker-end="url(#de-pulse-arrow-head-end-2_None_24_60-h777)"/><line id="de-pulse-__line-87" x1="248.2" y1="50.6" x2="250.3" y2="65.2" stroke="#777" stroke-width="2" fill="none" marker-end="url(#de-pulse-arrow-head-end-2_None_24_60-h777)"/><line id="de-pulse-__line-88" x1="248.3" y1="16.5" x2="250.2" y2="31.1" stroke="#777" stroke-width="2" fill="none" marker-end="url(#de-pulse-arrow-head-end-2_None_24_60-h777)"/><line id="de-pulse-__line-89" x1="275.9" y1="297.7" x2="291.1" y2="297.7" stroke="#777" stroke-width="2" fill="none" marker-end="url(#de-pulse-arrow-head-end-2_None_24_60-h777)"/><line id="de-pulse-__line-90" x1="275.9" y1="255.1" x2="291.7" y2="270.5" stroke="#777" stroke-width="2" fill="none" marker-end="url(#de-pulse-arrow-head-end-2_None_24_60-h777)"/><line id="de-pulse-__line-91" x1="280.3" y1="221.0" x2="288.0" y2="235.9" stroke="#777" stroke-width="2" fill="none" marker-end="url(#de-pulse-arrow-head-end-2_None_24_60-h777)"/><line id="de-pulse-__line-92" x1="281.8" y1="186.9" x2="286.8" y2="201.7" stroke="#777" stroke-width="2" fill="none" marker-end="url(#de-pulse-arrow-head-end-2_None_24_60-h777)"/><line id="de-pulse-__line-93" x1="282.5" y1="152.8" x2="286.3" y2="167.5" stroke="#777" stroke-width="2" fill="none" marker-end="url(#de-pulse-arrow-head-end-2_None_24_60-h777)"/><line id="de-pulse-__line-94" x1="282.9" y1="118.8" x2="286.0" y2="133.4" stroke="#777" stroke-width="2" fill="none" marker-end="url(#de-pulse-arrow-head-end-2_None_24_60-h777)"/><line id="de-pulse-__line-95" x1="283.2" y1="84.7" x2="285.8" y2="99.3" stroke="#777" stroke-width="2" fill="none" marker-end="url(#de-pulse-arrow-head-end-2_None_24_60-h777)"/><line id="de-pulse-__line-96" x1="283.4" y1="50.6" x2="285.6" y2="65.2" stroke="#777" stroke-width="2" fill="none" marker-end="url(#de-pulse-arrow-head-end-2_None_24_60-h777)"/><line id="de-pulse-__line-97" x1="283.6" y1="16.5" x2="285.5" y2="31.1" stroke="#777" stroke-width="2" fill="none" marker-end="url(#de-pulse-arrow-head-end-2_None_24_60-h777)"/><line id="de-pulse-__line-98" x1="311.2" y1="297.7" x2="326.4" y2="297.7" stroke="#777" stroke-width="2" fill="none" marker-end="url(#de-pulse-arrow-head-end-2_None_24_60-h777)"/><line id="de-pulse-__line-99" x1="311.2" y1="255.1" x2="327.0" y2="270.5" stroke="#777" stroke-width="2" fill="none" marker-end="url(#de-pulse-arrow-head-end-2_None_24_60-h777)"/><line id="de-pulse-__line-100" x1="315.6" y1="221.0" x2="323.3" y2="235.9" stroke="#777" stroke-width="2" fill="none" marker-end="url(#de-pulse-arrow-head-end-2_None_24_60-h777)"/><line id="de-pulse-__line-101" x1="317.1" y1="186.9" x2="322.1" y2="201.7" stroke="#777" stroke-width="2" fill="none" marker-end="url(#de-pulse-arrow-head-end-2_None_24_60-h777)"/><line id="de-pulse-__line-102" x1="317.8" y1="152.8" x2="321.6" y2="167.5" stroke="#777" stroke-width="2" fill="none" marker-end="url(#de-pulse-arrow-head-end-2_None_24_60-h777)"/><line id="de-pulse-__line-103" x1="318.2" y1="118.8" x2="321.3" y2="133.4" stroke="#777" stroke-width="2" fill="none" marker-end="url(#de-pulse-arrow-head-end-2_None_24_60-h777)"/><line id="de-pulse-__line-104" x1="318.5" y1="84.7" x2="321.1" y2="99.3" stroke="#777" stroke-width="2" fill="none" marker-end="url(#de-pulse-arrow-head-end-2_None_24_60-h777)"/><line id="de-pulse-__line-105" x1="318.7" y1="50.6" x2="320.9" y2="65.2" stroke="#777" stroke-width="2" fill="none" marker-end="url(#de-pulse-arrow-head-end-2_None_24_60-h777)"/><line id="de-pulse-__line-106" x1="318.9" y1="16.5" x2="320.8" y2="31.1" stroke="#777" stroke-width="2" fill="none" marker-end="url(#de-pulse-arrow-head-end-2_None_24_60-h777)"/></g><path id="de-pulse-__path-0" stroke="blue" stroke-width="2" fill="none" d="M 37.6 297.7 L 40.5 287.1 L 43.4 277.4 L 46.2 268.4 L 49.1 260.1 L 51.9 252.4 L 54.8 245.3 L 57.6 238.8 L 60.5 232.8 L 63.3 227.3 L 66.2 222.1 L 69.0 217.4 L 71.9 213.1 L 74.7 209.1 L 77.6 205.4 L 80.4 201.9 L 83.3 198.8 L 86.1 195.9 L 89.0 193.2 L 91.8 190.7 L 94.7 188.5 L 97.5 186.4 L 100.4 184.4 L 103.2 182.6 L 106.1 181.0 L 108.9 179.4 L 111.8 178.0 L 114.7 176.8 L 117.5 175.6 L 120.4 174.5 L 123.2 173.4 L 126.1 172.5 L 128.9 171.6 L 131.8 170.8 L 134.6 170.1 L 137.5 169.4 L 140.3 168.8 L 143.2 168.2 L 146.0 167.7 L 148.9 167.2 L 151.7 166.7 L 154.6 166.3 L 157.4 165.9 L 160.3 165.6 L 163.1 165.3 L 166.0 165.0 L 168.8 164.7 L 171.7 164.4 L 174.5 164.2 L 177.4 164.0 L 180.2 169.3 L 183.1 179.3 L 186.0 188.5 L 188.8 197.0 L 191.7 204.8 L 194.5 212.0 L 197.4 218.7 L 200.2 224.8 L 203.1 230.5 L 205.9 235.7 L 208.8 240.5 L 211.6 244.9 L 214.5 249.0 L 217.3 252.8 L 220.2 256.3 L 223.0 259.5 L 225.9 262.5 L 228.7 265.2 L 231.6 267.7 L 234.4 270.1 L 237.3 272.2 L 240.1 274.2 L 243.0 276.0 L 245.8 277.7 L 248.7 279.3 L 251.6 280.7 L 254.4 282.0 L 257.3 283.2 L 260.1 284.4 L 263.0 285.4 L 265.8 286.4 L 268.7 287.2 L 271.5 288.1 L 274.4 288.8 L 277.2 289.5 L 280.1 290.1 L 282.9 290.7 L 285.8 291.3 L 288.6 291.8 L 291.5 292.2 L 294.3 292.7 L 297.2 293.1 L 300.0 293.4 L 302.9 293.8 L 305.7 294.1 L 308.6 294.3 L 311.4 294.6 L 314.3 294.8 L 317.1 295.1 L 320.0 295.3" clip-path="url(#de-pulse-__clipPath-1)"/><path id="de-pulse-__path-1" stroke="red" stroke-width="2" fill="none" d="M 37.6 25.0 L 40.5 35.6 L 43.4 45.3 L 46.2 54.4 L 49.1 62.7 L 51.9 70.3 L 54.8 77.4 L 57.6 83.9 L 60.5 89.9 L 63.3 95.5 L 66.2 100.6 L 69.0 105.3 L 71.9 109.7 L 74.7 113.7 L 77.6 117.4 L 80.4 120.8 L 83.3 123.9 L 86.1 126.8 L 89.0 129.5 L 91.8 132.0 L 94.7 134.3 L 97.5 136.4 L 100.4 138.3 L 103.2 140.1 L 106.1 141.8 L 108.9 143.3 L 111.8 144.7 L 114.7 146.0 L 117.5 147.2 L 120.4 148.3 L 123.2 149.3 L 126.1 150.2 L 128.9 151.1 L 131.8 151.9 L 134.6 152.6 L 137.5 153.3 L 140.3 153.9 L 143.2 154.5 L 146.0 155.0 L 148.9 155.5 L 151.7 156.0 L 154.6 156.4 L 157.4 156.8 L 160.3 157.1 L 163.1 157.5 L 166.0 157.8 L 168.8 158.0 L 171.7 158.3 L 174.5 158.5 L 177.4 158.8 L 180.2 166.0 L 183.1 176.1 L 186.0 185.6 L 188.8 194.3 L 191.7 202.3 L 194.5 209.7 L 197.4 216.5 L 200.2 222.8 L 203.1 228.7 L 205.9 234.0 L 208.8 239.0 L 211.6 243.5 L 214.5 247.7 L 217.3 251.6 L 220.2 255.2 L 223.0 258.5 L 225.9 261.5 L 228.7 264.3 L 231.6 266.9 L 234.4 269.3 L 237.3 271.5 L 240.1 273.6 L 243.0 275.4 L 245.8 277.2 L 248.7 278.8 L 251.6 280.2 L 254.4 281.6 L 257.3 282.8 L 260.1 284.0 L 263.0 285.1 L 265.8 286.1 L 268.7 287.0 L 271.5 287.8 L 274.4 288.6 L 277.2 289.3 L 280.1 289.9 L 282.9 290.5 L 285.8 291.1 L 288.6 291.6 L 291.5 292.1 L 294.3 292.5 L 297.2 292.9 L 300.0 293.3 L 302.9 293.6 L 305.7 294.0 L 308.6 294.3 L 311.4 294.5 L 314.3 294.8 L 317.1 295.0 L 320.0 295.2" clip-path="url(#de-pulse-__clipPath-1)"/><g id="de-pulse-__label-6" transform="translate(328.0,293.7) translate(0.0,-11.5)"><g id="de-pulse-__g-6"><svg xmlns:xlink="http://www.w3.org/1999/xlink" style="vertical-align: -0.200px" width="6.536px" height="11.528px" role="img" focusable="false" viewBox="0 -626 361 637" x="0.0" y="0.0"><defs><path id="de-pulse-MJX-7-TEX-I-1D461" d="M26 385Q19 392 19 395Q19 399 22 411T27 425Q29 430 36 430T87 431H140L159 511Q162 522 166 540T173 566T179 586T187 603T197 615T211 624T229 626Q247 625 254 615T261 596Q261 589 252 549T232 470L222 433Q222 431 272 431H323Q330 424 330 420Q330 398 317 385H210L174 240Q135 80 135 68Q135 26 162 26Q197 26 230 60T283 144Q285 150 288 151T303 153H307Q322 153 322 145Q322 142 319 133Q314 117 301 95T267 48T216 6T155 -11Q125 -11 98 4T59 56Q57 64 57 83V101L92 241Q127 382 128 383Q128 385 77 385H26Z"/></defs><g stroke="currentColor" fill="currentColor" stroke-width="0" transform="scale(1,-1)"><g data-mml-node="math"><g data-mml-node="mi" data-semantic-type="identifier" data-semantic-role="latinletter" data-semantic-font="italic" data-semantic-annotation="clearspeak:simple" data-semantic-id="0" data-semantic-speech="t"><use data-c="1D461" xlink:href="#de-pulse-MJX-7-TEX-I-1D461"/></g></g></g></svg></g></g><g id="de-pulse-__label-7" transform="translate(41.6,21.0) translate(0.0,-18.1)"><g id="de-pulse-__g-7"><svg xmlns:xlink="http://www.w3.org/1999/xlink" style="vertical-align: -4.528px" width="29.488px" height="18.096px" role="img" focusable="false" viewBox="0 -750 1629 1000" x="0.0" y="0.0"><defs><path id="de-pulse-MJX-8-TEX-I-1D466" d="M21 287Q21 301 36 335T84 406T158 442Q199 442 224 419T250 355Q248 336 247 334Q247 331 231 288T198 191T182 105Q182 62 196 45T238 27Q261 27 281 38T312 61T339 94Q339 95 344 114T358 173T377 247Q415 397 419 404Q432 431 462 431Q475 431 483 424T494 412T496 403Q496 390 447 193T391 -23Q363 -106 294 -155T156 -205Q111 -205 77 -183T43 -117Q43 -95 50 -80T69 -58T89 -48T106 -45Q150 -45 150 -87Q150 -107 138 -122T115 -142T102 -147L99 -148Q101 -153 118 -160T152 -167H160Q177 -167 186 -165Q219 -156 247 -127T290 -65T313 -9T321 21L315 17Q309 13 296 6T270 -6Q250 -11 231 -11Q185 -11 150 11T104 82Q103 89 103 113Q103 170 138 262T173 379Q173 380 173 381Q173 390 173 393T169 400T158 404H154Q131 404 112 385T82 344T65 302T57 280Q55 278 41 278H27Q21 284 21 287Z"/><path id="de-pulse-MJX-8-TEX-N-2061" d=""/><path id="de-pulse-MJX-8-TEX-N-28" d="M94 250Q94 319 104 381T127 488T164 576T202 643T244 695T277 729T302 750H315H319Q333 750 333 741Q333 738 316 720T275 667T226 581T184 443T167 250T184 58T225 -81T274 -167T316 -220T333 -241Q333 -250 318 -250H315H302L274 -226Q180 -141 137 -14T94 250Z"/><path id="de-pulse-MJX-8-TEX-I-1D461" d="M26 385Q19 392 19 395Q19 399 22 411T27 425Q29 430 36 430T87 431H140L159 511Q162 522 166 540T173 566T179 586T187 603T197 615T211 624T229 626Q247 625 254 615T261 596Q261 589 252 549T232 470L222 433Q222 431 272 431H323Q330 424 330 420Q330 398 317 385H210L174 240Q135 80 135 68Q135 26 162 26Q197 26 230 60T283 144Q285 150 288 151T303 153H307Q322 153 322 145Q322 142 319 133Q314 117 301 95T267 48T216 6T155 -11Q125 -11 98 4T59 56Q57 64 57 83V101L92 241Q127 382 128 383Q128 385 77 385H26Z"/><path id="de-pulse-MJX-8-TEX-N-29" d="M60 749L64 750Q69 750 74 750H86L114 726Q208 641 251 514T294 250Q294 182 284 119T261 12T224 -76T186 -143T145 -194T113 -227T90 -246Q87 -249 86 -250H74Q66 -250 63 -250T58 -247T55 -238Q56 -237 66 -225Q221 -64 221 250T66 725Q56 737 55 738Q55 746 60 749Z"/></defs><g stroke="currentColor" fill="currentColor" stroke-width="0" transform="scale(1,-1)"><g data-mml-node="math" data-semantic-type="appl" data-semantic-role="simple function" data-semantic-annotation="clearspeak:simple" data-semantic-id="6" data-semantic-children="0,4" data-semantic-content="5,0" data-semantic-speech="y left parenthesis t right parenthesis"><g data-mml-node="mi" data-semantic-type="identifier" data-semantic-role="simple function" data-semantic-font="italic" data-semantic-annotation="clearspeak:simple" data-semantic-id="0" data-semantic-parent="6" data-semantic-operator="appl" data-semantic-speech="y"><use data-c="1D466" xlink:href="#de-pulse-MJX-8-TEX-I-1D466"/></g><g data-mml-node="mo" data-semantic-type="punctuation" data-semantic-role="application" data-semantic-id="5" data-semantic-parent="6" data-semantic-added="true" data-semantic-operator="appl" data-semantic-speech="of" transform="translate(490,0)"><use data-c="2061" xlink:href="#de-pulse-MJX-8-TEX-N-2061"/></g><g data-mml-node="mrow" data-semantic-type="fenced" data-semantic-role="leftright" data-semantic-id="4" data-semantic-children="2" data-semantic-content="1,3" data-semantic-parent="6" data-semantic-speech="left parenthesis t right parenthesis" transform="translate(490,0)"><g data-mml-node="mo" data-semantic-type="fence" data-semantic-role="open" data-semantic-id="1" data-semantic-parent="4" data-semantic-operator="fenced" data-semantic-speech="left parenthesis"><use data-c="28" xlink:href="#de-pulse-MJX-8-TEX-N-28"/></g><g data-mml-node="mi" data-semantic-type="identifier" data-semantic-role="latinletter" data-semantic-font="italic" data-semantic-annotation="clearspeak:simple" data-semantic-id="2" data-semantic-parent="4" data-semantic-speech="t" transform="translate(389,0)"><use data-c="1D461" xlink:href="#de-pulse-MJX-8-TEX-I-1D461"/></g><g data-mml-node="mo" data-semantic-type="fence" data-semantic-role="close" data-semantic-id="3" data-semantic-parent="4" data-semantic-operator="fenced" data-semantic-speech="right parenthesis" transform="translate(750,0)"><use data-c="29" xlink:href="#de-pulse-MJX-8-TEX-N-29"/></g></g></g></g></svg></g></g></svg>