<svg xmlns="http://www.w3.org/2000/svg" id="delta-figure" width="310" height="310" viewBox="0 0 310 310"><defs><clipPath id="delta-__clipPath-0"><rect x="5.0" y="5.0" width="300.0" height="300.0"/></clipPath><clipPath id="delta-__clipPath-1"><rect x="5.0" y="5.0" width="300.0" height="300.0"/></clipPath></defs><g id="delta-grid-axes"><g id="delta-grid" stroke="#ccc" stroke-width="1"><line x1="5.0" y1="305.0" x2="5.0" y2="5.0"/><line x1="42.5" y1="305.0" x2="42.5" y2="5.0"/><line x1="80.0" y1="305.0" x2="80.0" y2="5.0"/><line x1="117.5" y1="305.0" x2="117.5" y2="5.0"/><line x1="155.0" y1="305.0" x2="155.0" y2="5.0"/><line x1="192.5" y1="305.0" x2="192.5" y2="5.0"/><line x1="230.0" y1="305.0" x2="230.0" y2="5.0"/><line x1="267.5" y1="305.0" x2="267.5" y2="5.0"/><line x1="305.0" y1="305.0" x2="305.0" y2="5.0"/><line x1="5.0" y1="305.0" x2="305.0" y2="305.0"/><line x1="5.0" y1="267.5" x2="305.0" y2="267.5"/><line x1="5.0" y1="230.0" x2="305.0" y2="230.0"/><line x1="5.0" y1="192.5" x2="305.0" y2="192.5"/><line x1="5.0" y1="155.0" x2="305.0" y2="155.0"/><line x1="5.0" y1="117.5" x2="305.0" y2="117.5"/><line x1="5.0" y1="80.0" x2="305.0" y2="80.0"/><line x1="5.0" y1="42.5" x2="305.0" y2="42.5"/><line x1="5.0" y1="5.0" x2="305.0" y2="5.0"/></g><g id="delta-axes" stroke="black" stroke-width="2"><line id="delta-__line-18" x1="5.0" y1="155.0" x2="305.0" y2="155.0" stroke="black" stroke-width="2"/><g><line id="delta-__line-19" x1="80.0" y1="158.0" x2="80.0" y2="152.0"/><line id="delta-__line-20" x1="230.0" y1="158.0" x2="230.0" y2="152.0"/></g><line id="delta-__line-21" x1="155.0" y1="305.0" x2="155.0" y2="5.0" stroke="black" stroke-width="2"/><g><line id="delta-__line-22" x1="152.0" y1="230.0" x2="158.0" y2="230.0"/><line id="delta-__line-23" x1="152.0" y1="80.0" x2="158.0" y2="80.0"/></g></g><g id="delta-__label-0" transform="translate(301.0,151.0) translate(-6.5,-11.5)"><g id="delta-__g-0"><svg xmlns:xlink="http://www.w3.org/1999/xlink" style="vertical-align: -0.200px" width="6.536px" height="11.528px" role="img" focusable="false" viewBox="0 -626 361 637" x="0.0" y="0.0"><defs><path id="delta-MJX-1-TEX-I-1D461" d="M26 385Q19 392 19 395Q19 399 22 411T27 425Q29 430 36 430T87 431H140L159 511Q162 522 166 540T173 566T179 586T187 603T197 615T211 624T229 626Q247 625 254 615T261 596Q261 589 252 549T232 470L222 433Q222 431 272 431H323Q330 424 330 420Q330 398 317 385H210L174 240Q135 80 135 68Q135 26 162 26Q197 26 230 60T283 144Q285 150 288 151T303 153H307Q322 153 322 145Q322 142 319 133Q314 117 301 95T267 48T216 6T155 -11Q125 -11 98 4T59 56Q57 64 57 83V101L92 241Q127 382 128 383Q128 385 77 385H26Z"/></defs><g stroke="currentColor" fill="currentColor" stroke-width="0" transform="scale(1,-1)"><g data-mml-node="math"><g data-mml-node="mi" data-semantic-type="identifier" data-semantic-role="latinletter" data-semantic-font="italic" data-semantic-annotation="clearspeak:simple" data-semantic-id="0" data-semantic-speech="t"><use data-c="1D461" xlink:href="#delta-MJX-1-TEX-I-1D461"/></g></g></g></svg></g></g><g id="delta-__label-1" transform="translate(159.0,9.0) translate(0.0,-0.0)"><g id="delta-__g-1"><svg xmlns:xlink="http://www.w3.org/1999/xlink" style="vertical-align: -3.712px" width="8.872px" height="11.712px" role="img" focusable="false" viewBox="0 -442 490 647" x="0.0" y="0.0"><defs><path id="delta-MJX-2-TEX-I-1D466" d="M21 287Q21 301 36 335T84 406T158 442Q199 442 224 419T250 355Q248 336 247 334Q247 331 231 288T198 191T182 105Q182 62 196 45T238 27Q261 27 281 38T312 61T339 94Q339 95 344 114T358 173T377 247Q415 397 419 404Q432 431 462 431Q475 431 483 424T494 412T496 403Q496 390 447 193T391 -23Q363 -106 294 -155T156 -205Q111 -205 77 -183T43 -117Q43 -95 50 -80T69 -58T89 -48T106 -45Q150 -45 150 -87Q150 -107 138 -122T115 -142T102 -147L99 -148Q101 -153 118 -160T152 -167H160Q177 -167 186 -165Q219 -156 247 -127T290 -65T313 -9T321 21L315 17Q309 13 296 6T270 -6Q250 -11 231 -11Q185 -11 150 11T104 82Q103 89 103 113Q103 170 138 262T173 379Q173 380 173 381Q173 390 173 393T169 400T158 404H154Q131 404 112 385T82 344T65 302T57 280Q55 278 41 278H27Q21 284 21 287Z"/></defs><g stroke="currentColor" fill="currentColor" stroke-width="0" transform="scale(1,-1)"><g data-mml-node="math"><g data-mml-node="mi" data-semantic-type="identifier" data-semantic-role="latinletter" data-semantic-font="italic" data-semantic-annotation="clearspeak:simple" data-semantic-id="0" data-semantic-speech="y"><use data-c="1D466" xlink:href="#delta-MJX-2-TEX-I-1D466"/></g></g></g></svg></g></g><g id="delta-__label-2" transform="translate(80.0,166.0) translate(-7.5,-0.0)"><g id="delta-__g-2"><svg xmlns:xlink="http://www.w3.org/1999/xlink" style="vertical-align: 0.000px" width="15.080px" height="12.056px" role="img" focusable="false" viewBox="0 -666 833 666" x="0.0" y="0.0"><defs><path id="delta-MJX-3-TEX-N-2D" d="M11 179V252H277V179H11Z"/><path id="delta-MJX-3-TEX-N-32" d="M109 429Q82 429 66 447T50 491Q50 562 103 614T235 666Q326 666 387 610T449 465Q449 422 429 383T381 315T301 241Q265 210 201 149L142 93L218 92Q375 92 385 97Q392 99 409 186V189H449V186Q448 183 436 95T421 3V0H50V19V31Q50 38 56 46T86 81Q115 113 136 137Q145 147 170 174T204 211T233 244T261 278T284 308T305 340T320 369T333 401T340 431T343 464Q343 527 309 573T212 619Q179 619 154 602T119 569T109 550Q109 549 114 549Q132 549 151 535T170 489Q170 464 154 447T109 429Z"/></defs><g stroke="currentColor" fill="currentColor" stroke-width="0" transform="scale(1,-1)"><g data-mml-node="math"><g data-mml-node="mtext" data-semantic-type="text" data-semantic-role="unknown" data-semantic-font="normal" data-semantic-annotation="clearspeak:unit" data-semantic-id="0" data-semantic-speech="hyphen 2"><use data-c="2D" xlink:href="#delta-MJX-3-TEX-N-2D"/><use data-c="32" xlink:href="#delta-MJX-3-TEX-N-32" transform="translate(333,0)"/></g></g></g></svg></g></g><g id="delta-__label-3" transform="translate(230.0,166.0) translate(-4.5,-0.0)"><g id="delta-__g-3"><svg xmlns:xlink="http://www.w3.org/1999/xlink" style="vertical-align: 0.000px" width="9.048px" height="12.056px" role="img" focusable="false" viewBox="0 -666 500 666" x="0.0" y="0.0"><defs><path id="delta-MJX-4-TEX-N-32" d="M109 429Q82 429 66 447T50 491Q50 562 103 614T235 666Q326 666 387 610T449 465Q449 422 429 383T381 315T301 241Q265 210 201 149L142 93L218 92Q375 92 385 97Q392 99 409 186V189H449V186Q448 183 436 95T421 3V0H50V19V31Q50 38 56 46T86 81Q115 113 136 137Q145 147 170 174T204 211T233 244T261 278T284 308T305 340T320 369T333 401T340 431T343 464Q343 527 309 573T212 619Q179 619 154 602T119 569T109 550Q109 549 114 549Q132 549 151 535T170 489Q170 464 154 447T109 429Z"/></defs><g stroke="currentColor" fill="currentColor" stroke-width="0" transform="scale(1,-1)"><g data-mml-node="math"><g data-mml-node="mtext" data-semantic-type="text" data-semantic-role="integer" data-semantic-font="normal" data-semantic-annotation="clearspeak:unit" data-semantic-id="0" data-semantic-speech="2"><use data-c="32" xlink:href="#delta-MJX-4-TEX-N-32"/></g></g></g></svg></g></g><g id="delta-__label-4" transform="translate(144.0,230.0) translate(-15.1,-6.0)"><g id="delta-__g-4"><svg xmlns:xlink="http://www.w3.org/1999/xlink" style="vertical-align: 0.000px" width="15.080px" height="12.056px" role="img" focusable="false" viewBox="0 -666 833 666" x="0.0" y="0.0"><defs><path id="delta-MJX-5-TEX-N-2D" d="M11 179V252H277V179H11Z"/><path id="delta-MJX-5-TEX-N-32" d="M109 429Q82 429 66 447T50 491Q50 562 103 614T235 666Q326 666 387 610T449 465Q449 422 429 383T381 315T301 241Q265 210 201 149L142 93L218 92Q375 92 385 97Q392 99 409 186V189H449V186Q448 183 436 95T421 3V0H50V19V31Q50 38 56 46T86 81Q115 113 136 137Q145 147 170 174T204 211T233 244T261 278T284 308T305 340T320 369T333 401T340 431T343 464Q343 527 309 573T212 619Q179 619 154 602T119 569T109 550Q109 549 114 549Q132 549 151 535T170 489Q170 464 154 447T109 429Z"/></defs><g stroke="currentColor" fill="currentColor" stroke-width="0" transform="scale(1,-1)"><g data-mml-node="math"><g data-mml-node="mtext" data-semantic-type="text" data-semantic-role="unknown" data-semantic-font="normal" data-semantic-annotation="clearspeak:unit" data-semantic-id="0" data-semantic-speech="hyphen 2"><use data-c="2D" xlink:href="#delta-MJX-5-TEX-N-2D"/><use data-c="32" xlink:href="#delta-MJX-5-TEX-N-32" transform="translate(333,0)"/></g></g></g></svg></g></g><g id="delta-__label-5" transform="translate(144.0,80.0) translate(-9.0,-6.0)"><g id="delta-__g-5"><svg xmlns:xlink="http://www.w3.org/1999/xlink" style="vertical-align: 0.000px" width="9.048px" height="12.056px" role="img" focusable="false" viewBox="0 -666 500 666" x="0.0" y="0.0"><defs><path id="delta-MJX-6-TEX-N-32" d="M109 429Q82 429 66 447T50 491Q50 562 103 614T235 666Q326 666 387 610T449 465Q449 422 429 383T381 315T301 241Q265 210 201 149L142 93L218 92Q375 92 385 97Q392 99 409 186V189H449V186Q448 183 436 95T421 3V0H50V19V31Q50 38 56 46T86 81Q115 113 136 137Q145 147 170 174T204 211T233 244T261 278T284 308T305 340T320 369T333 401T340 431T343 464Q343 527 309 573T212 619Q179 619 154 602T119 569T109 550Q109 549 114 549Q132 549 151 535T170 489Q170 464 154 447T109 429Z"/></defs><g stroke="currentColor" fill="currentColor" stroke-width="0" transform="scale(1,-1)"><g data-mml-node="math"><g data-mml-node="mtext" data-semantic-type="text" data-semantic-role="integer" data-semantic-font="normal" data-semantic-annotation="clearspeak:unit" data-semantic-id="0" data-semantic-speech="2"><use data-c="32" xlink:href="#delta-MJX-6-TEX-N-32"/></g></g></g></svg></g></g></g><path id="delta-__path-0" stroke="blue" stroke-width="2" fill="none" d="M 5.0 155.0 L 5.8 155.0 L 6.5 155.0 L 7.3 155.0 L 8.0 155.0 L 8.8 155.0 L 9.5 155.0 L 10.3 155.0 L 11.1 155.0 L 11.8 155.0 L 12.6 155.0 L 13.3 155.0 L 14.1 155.0 L 14.8 155.0 L 15.6 155.0 L 16.4 155.0 L 17.1 155.0 L 17.9 155.0 L 18.6 155.0 L 19.4 155.0 L 20.2 155.0 L 20.9 155.0 L 21.7 155.0 L 22.4 155.0 L 23.2 155.0 L 23.9 155.0 L 24.7 155.0 L 25.5 155.0 L 26.2 155.0 L 27.0 155.0 L 27.7 155.0 L 28.5 155.0 L 29.2 155.0 L 30.0 155.0 L 30.8 155.0 L 31.5 155.0 L 32.3 155.0 L 33.0 155.0 L 33.8 155.0 L 34.5 155.0 L 35.3 155.0 L 36.1 155.0 L 36.8 155.0 L 37.6 155.0 L 38.3 155.0 L 39.1 155.0 L 39.8 155.0 L 40.6 155.0 L 41.4 155.0 L 42.1 155.0 L 42.9 155.0 L 43.6 155.0 L 44.4 155.0 L 45.2 155.0 L 45.9 155.0 L 46.7 155.0 L 47.4 155.0 L 48.2 155.0 L 48.9 155.0 L 49.7 155.0 L 50.5 155.0 L 51.2 155.0 L 52.0 155.0 L 52.7 155.0 L 53.5 155.0 L 54.2 155.0 L 55.0 155.0 L 55.8 155.0 L 56.5 155.0 L 57.3 155.0 L 58.0 155.0 L 58.8 155.0 L 59.5 155.0 L 60.3 155.0 L 61.1 155.0 L 61.8 155.0 L 62.6 155.0 L 63.3 155.0 L 64.1 155.0 L 64.8 155.0 L 65.6 155.0 L 66.4 155.0 L 67.1 155.0 L 67.9 155.0 L 68.6 155.0 L 69.4 155.0 L 70.2 155.0 L 70.9 155.0 L 71.7 155.0 L 72.4 155.0 L 73.2 155.0 L 73.9 155.0 L 74.7 155.0 L 75.5 155.0 L 76.2 155.0 L 77.0 155.0 L 77.7 155.0 L 78.5 155.0 L 79.2 155.0 L 80.0 155.0 L 80.0 155.0 L 81.1 149.4 L 82.3 144.0 L 83.4 138.7 L 84.5 133.6 L 85.7 128.7 L 86.8 124.0 L 88.0 119.4 L 89.1 115.0 L 90.2 110.8 L 91.4 106.7 L 92.5 102.8 L 93.6 99.1 L 94.8 95.5 L 95.9 92.1 L 97.0 88.9 L 98.2 85.8 L 99.3 82.8 L 100.5 80.0 L 101.6 77.4 L 102.7 74.9 L 103.9 72.5 L 105.0 70.3 L 106.1 68.3 L 107.3 66.4 L 108.4 64.6 L 109.5 62.9 L 110.7 61.4 L 111.8 60.0 L 113.0 58.8 L 114.1 57.6 L 115.2 56.6 L 116.4 55.7 L 117.5 55.0 L 118.6 54.3 L 119.8 53.8 L 120.9 53.3 L 122.0 53.0 L 123.2 52.8 L 124.3 52.6 L 125.5 52.6 L 126.6 52.7 L 127.7 52.8 L 128.9 53.0 L 130.0 53.4 L 131.1 53.8 L 132.3 54.2 L 133.4 54.8 L 134.5 55.4 L 135.7 56.1 L 136.8 56.9 L 138.0 57.7 L 139.1 58.6 L 140.2 59.6 L 141.4 60.6 L 142.5 61.7 L 143.6 62.8 L 144.8 64.0 L 145.9 65.2 L 147.0 66.4 L 148.2 67.8 L 149.3 69.1 L 150.5 70.5 L 151.6 71.9 L 152.7 73.4 L 153.9 74.9 L 155.0 76.4 L 156.1 77.9 L 157.3 79.5 L 158.4 81.1 L 159.5 82.7 L 160.7 84.3 L 161.8 85.9 L 163.0 87.6 L 164.1 89.2 L 165.2 90.9 L 166.4 92.6 L 167.5 94.3 L 168.6 96.0 L 169.8 97.7 L 170.9 99.4 L 172.0 101.0 L 173.2 102.7 L 174.3 104.4 L 175.5 106.1 L 176.6 107.8 L 177.7 109.5 L 178.9 111.1 L 180.0 112.8 L 181.1 114.4 L 182.3 116.0 L 183.4 117.7 L 184.5 119.3 L 185.7 120.8 L 186.8 122.4 L 188.0 124.0 L 189.1 125.5 L 190.2 127.0 L 191.4 128.5 L 192.5 130.0 L 192.5 130.0 L 193.6 128.1 L 194.8 126.3 L 195.9 124.5 L 197.0 122.9 L 198.2 121.3 L 199.3 119.8 L 200.5 118.3 L 201.6 117.0 L 202.7 115.7 L 203.9 114.5 L 205.0 113.4 L 206.1 112.3 L 207.3 111.3 L 208.4 110.4 L 209.5 109.5 L 210.7 108.8 L 211.8 108.0 L 213.0 107.4 L 214.1 106.8 L 215.2 106.2 L 216.4 105.8 L 217.5 105.4 L 218.6 105.0 L 219.8 104.7 L 220.9 104.4 L 222.0 104.2 L 223.2 104.1 L 224.3 104.0 L 225.5 104.0 L 226.6 104.0 L 227.7 104.0 L 228.9 104.1 L 230.0 104.3 L 231.1 104.4 L 232.3 104.7 L 233.4 104.9 L 234.5 105.2 L 235.7 105.6 L 236.8 105.9 L 238.0 106.3 L 239.1 106.8 L 240.2 107.2 L 241.4 107.7 L 242.5 108.2 L 243.6 108.8 L 244.8 109.4 L 245.9 110.0 L 247.0 110.6 L 248.2 111.2 L 249.3 111.9 L 250.5 112.6 L 251.6 113.2 L 252.7 114.0 L 253.9 114.7 L 255.0 115.4 L 256.1 116.2 L 257.3 117.0 L 258.4 117.7 L 259.5 118.5 L 260.7 119.3 L 261.8 120.2 L 263.0 121.0 L 264.1 121.8 L 265.2 122.6 L 266.4 123.5 L 267.5 124.3 L 268.6 125.2 L 269.8 126.0 L 270.9 126.8 L 272.0 127.7 L 273.2 128.5 L 274.3 129.4 L 275.5 130.2 L 276.6 131.1 L 277.7 131.9 L 278.9 132.7 L 280.0 133.5 L 281.1 134.4 L 282.3 135.2 L 283.4 136.0 L 284.5 136.8 L 285.7 137.6 L 286.8 138.4 L 288.0 139.1 L 289.1 139.9 L 290.2 140.7 L 291.4 141.4 L 292.5 142.2 L 293.6 142.9 L 294.8 143.6 L 295.9 144.3 L 297.0 145.0 L 298.2 145.7 L 299.3 146.4 L 300.5 147.0 L 301.6 147.7 L 302.7 148.3 L 303.9 148.9 L 305.0 149.5" clip-path="url(#delta-__clipPath-1)"/></svg>