<svg xmlns="http://www.w3.org/2000/svg" id="derivative-figure" width="310" height="310" viewBox="0 0 310 310"><defs><clipPath id="derivative-__clipPath-0"><rect x="5.0" y="5.0" width="300.0" height="300.0"/></clipPath><clipPath id="derivative-__clipPath-1"><rect x="5.0" y="5.0" width="300.0" height="300.0"/></clipPath></defs><g id="derivative-grid-axes"><g id="derivative-grid" stroke="#ccc" stroke-width="1"><line x1="5.0" y1="305.0" x2="5.0" y2="5.0"/><line x1="55.0" y1="305.0" x2="55.0" y2="5.0"/><line x1="105.0" y1="305.0" x2="105.0" y2="5.0"/><line x1="155.0" y1="305.0" x2="155.0" y2="5.0"/><line x1="205.0" y1="305.0" x2="205.0" y2="5.0"/><line x1="255.0" y1="305.0" x2="255.0" y2="5.0"/><line x1="305.0" y1="305.0" x2="305.0" y2="5.0"/><line x1="5.0" y1="305.0" x2="305.0" y2="305.0"/><line x1="5.0" y1="255.0" x2="305.0" y2="255.0"/><line x1="5.0" y1="205.0" x2="305.0" y2="205.0"/><line x1="5.0" y1="155.0" x2="305.0" y2="155.0"/><line x1="5.0" y1="105.0" x2="305.0" y2="105.0"/><line x1="5.0" y1="55.0" x2="305.0" y2="55.0"/><line x1="5.0" y1="5.0" x2="305.0" y2="5.0"/></g><g id="derivative-axes" stroke="black" stroke-width="2"><line id="derivative-__line-14" x1="5.0" y1="155.0" x2="305.0" y2="155.0" stroke="black" stroke-width="2"/><g><line id="derivative-__line-15" x1="55.0" y1="158.0" x2="55.0" y2="152.0"/><line id="derivative-__line-16" x1="255.0" y1="158.0" x2="255.0" y2="152.0"/></g><line id="derivative-__line-17" x1="155.0" y1="305.0" x2="155.0" y2="5.0" stroke="black" stroke-width="2"/><g><line id="derivative-__line-18" x1="152.0" y1="255.0" x2="158.0" y2="255.0"/><line id="derivative-__line-19" x1="152.0" y1="55.0" x2="158.0" y2="55.0"/></g></g><g id="derivative-__label-0" transform="translate(55.0,166.0) translate(-7.5,-0.0)"><g id="derivative-__g-0"><svg xmlns:xlink="http://www.w3.org/1999/xlink" style="vertical-align: 0.000px" width="15.080px" height="12.056px" role="img" focusable="false" viewBox="0 -666 833 666" x="0.0" y="0.0"><defs><path id="derivative-MJX-1-TEX-N-2D" d="M11 179V252H277V179H11Z"/><path id="derivative-MJX-1-TEX-N-32" d="M109 429Q82 429 66 447T50 491Q50 562 103 614T235 666Q326 666 387 610T449 465Q449 422 429 383T381 315T301 241Q265 210 201 149L142 93L218 92Q375 92 385 97Q392 99 409 186V189H449V186Q448 183 436 95T421 3V0H50V19V31Q50 38 56 46T86 81Q115 113 136 137Q145 147 170 174T204 211T233 244T261 278T284 308T305 340T320 369T333 401T340 431T343 464Q343 527 309 573T212 619Q179 619 154 602T119 569T109 550Q109 549 114 549Q132 549 151 535T170 489Q170 464 154 447T109 429Z"/></defs><g stroke="currentColor" fill="currentColor" stroke-width="0" transform="scale(1,-1)"><g data-mml-node="math"><g data-mml-node="mtext" data-semantic-type="text" data-semantic-role="unknown" data-semantic-font="normal" data-semantic-annotation="clearspeak:unit" data-semantic-id="0" data-semantic-speech="hyphen 2"><use data-c="2D" xlink:href="#derivative-MJX-1-TEX-N-2D"/><use data-c="32" xlink:href="#derivative-MJX-1-TEX-N-32" transform="translate(333,0)"/></g></g></g></svg></g></g><g id="derivative-__label-1" transform="translate(255.0,166.0) translate(-4.5,-0.0)"><g id="derivative-__g-1"><svg xmlns:xlink="http://www.w3.org/1999/xlink" style="vertical-align: 0.000px" width="9.048px" height="12.056px" role="img" focusable="false" viewBox="0 -666 500 666" x="0.0" y="0.0"><defs><path id="derivative-MJX-2-TEX-N-32" d="M109 429Q82 429 66 447T50 491Q50 562 103 614T235 666Q326 666 387 610T449 465Q449 422 429 383T381 315T301 241Q265 210 201 149L142 93L218 92Q375 92 385 97Q392 99 409 186V189H449V186Q448 183 436 95T421 3V0H50V19V31Q50 38 56 46T86 81Q115 113 136 137Q145 147 170 174T204 211T233 244T261 278T284 308T305 340T320 369T333 401T340 431T343 464Q343 527 309 573T212 619Q179 619 154 602T119 569T109 550Q109 549 114 549Q132 549 151 535T170 489Q170 464 154 447T109 429Z"/></defs><g stroke="currentColor" fill="currentColor" stroke-width="0" transform="scale(1,-1)"><g data-mml-node="math"><g data-mml-node="mtext" data-semantic-type="text" data-semantic-role="integer" data-semantic-font="normal" data-semantic-annotation="clearspeak:unit" data-semantic-id="0" data-semantic-speech="2"><use data-c="32" xlink:href="#derivative-MJX-2-TEX-N-32"/></g></g></g></svg></g></g><g id="derivative-__label-2" transform="translate(144.0,255.0) translate(-15.1,-6.0)"><g id="derivative-__g-2"><svg xmlns:xlink="http://www.w3.org/1999/xlink" style="vertical-align: 0.000px" width="15.080px" height="12.056px" role="img" focusable="false" viewBox="0 -666 833 666" x="0.0" y="0.0"><defs><path id="derivative-MJX-3-TEX-N-2D" d="M11 179V252H277V179H11Z"/><path id="derivative-MJX-3-TEX-N-32" d="M109 429Q82 429 66 447T50 491Q50 562 103 614T235 666Q326 666 387 610T449 465Q449 422 429 383T381 315T301 241Q265 210 201 149L142 93L218 92Q375 92 385 97Q392 99 409 186V189H449V186Q448 183 436 95T421 3V0H50V19V31Q50 38 56 46T86 81Q115 113 136 137Q145 147 170 174T204 211T233 244T261 278T284 308T305 340T320 369T333 401T340 431T343 464Q343 527 309 573T212 619Q179 619 154 602T119 569T109 550Q109 549 114 549Q132 549 151 535T170 489Q170 464 154 447T109 429Z"/></defs><g stroke="currentColor" fill="currentColor" stroke-width="0" transform="scale(1,-1)"><g data-mml-node="math"><g data-mml-node="mtext" data-semantic-type="text" data-semantic-role="unknown" data-semantic-font="normal" data-semantic-annotation="clearspeak:unit" data-semantic-id="0" data-semantic-speech="hyphen 2"><use data-c="2D" xlink:href="#derivative-MJX-3-TEX-N-2D"/><use data-c="32" xlink:href="#derivative-MJX-3-TEX-N-32" transform="translate(333,0)"/></g></g></g></svg></g></g><g id="derivative-__label-3" transform="translate(144.0,55.0) translate(-9.0,-6.0)"><g id="derivative-__g-3"><svg xmlns:xlink="http://www.w3.org/1999/xlink" style="vertical-align: 0.000px" width="9.048px" height="12.056px" role="img" focusable="false" viewBox="0 -666 500 666" x="0.0" y="0.0"><defs><path id="derivative-MJX-4-TEX-N-32" d="M109 429Q82 429 66 447T50 491Q50 562 103 614T235 666Q326 666 387 610T449 465Q449 422 429 383T381 315T301 241Q265 210 201 149L142 93L218 92Q375 92 385 97Q392 99 409 186V189H449V186Q448 183 436 95T421 3V0H50V19V31Q50 38 56 46T86 81Q115 113 136 137Q145 147 170 174T204 211T233 244T261 278T284 308T305 340T320 369T333 401T340 431T343 464Q343 527 309 573T212 619Q179 619 154 602T119 569T109 550Q109 549 114 549Q132 549 151 535T170 489Q170 464 154 447T109 429Z"/></defs><g stroke="currentColor" fill="currentColor" stroke-width="0" transform="scale(1,-1)"><g data-mml-node="math"><g data-mml-node="mtext" data-semantic-type="text" data-semantic-role="integer" data-semantic-font="normal" data-semantic-annotation="clearspeak:unit" data-semantic-id="0" data-semantic-speech="2"><use data-c="32" xlink:href="#derivative-MJX-4-TEX-N-32"/></g></g></g></svg></g></g></g><path id="derivative-__path-0" stroke="blue" stroke-width="2" fill="none" d="M 24.4 604.9 L 26.0 576.7 L 29.0 527.2 L 32.0 480.3 L 35.0 436.2 L 38.0 394.6 L 41.0 355.6 L 44.0 319.1 L 47.0 284.9 L 50.0 253.1 L 53.0 223.5 L 56.0 196.1 L 59.0 170.9 L 62.0 147.7 L 65.0 126.6 L 68.0 107.4 L 71.0 90.1 L 74.0 74.6 L 77.0 60.8 L 80.0 48.8 L 83.0 38.3 L 86.0 29.4 L 89.0 22.0 L 92.0 16.0 L 95.0 11.4 L 98.0 8.1 L 101.0 6.0 L 104.0 5.1 L 107.0 5.2 L 110.0 6.4 L 113.0 8.6 L 116.0 11.7 L 119.0 15.7 L 122.0 20.4 L 125.0 25.8 L 128.0 31.9 L 131.0 38.5 L 134.0 45.7 L 137.0 53.3 L 140.0 61.3 L 143.0 69.7 L 146.0 78.3 L 149.0 87.1 L 152.0 96.0 L 155.0 105.0 L 158.0 114.0 L 161.0 122.9 L 164.0 131.7 L 167.0 140.3 L 170.0 148.6 L 173.0 156.7 L 176.0 164.3 L 179.0 171.5 L 182.0 178.1 L 185.0 184.2 L 188.0 189.6 L 191.0 194.3 L 194.0 198.3 L 197.0 201.4 L 200.0 203.6 L 203.0 204.8 L 206.0 204.9 L 209.0 204.0 L 212.0 201.9 L 215.0 198.6 L 218.0 194.0 L 221.0 188.0 L 224.0 180.6 L 227.0 171.7 L 230.0 161.2 L 233.0 149.2 L 236.0 135.4 L 239.0 119.9 L 242.0 102.6 L 245.0 83.4 L 248.0 62.3 L 251.0 39.1 L 254.0 13.9 L 257.0 -13.5 L 260.0 -43.0 L 263.0 -74.9 L 266.0 -109.1 L 269.0 -145.6 L 272.0 -184.6 L 275.0 -226.2 L 278.0 -270.3" clip-path="url(#derivative-__clipPath-1)"/><path id="derivative-__path-1" stroke="green" stroke-width="2" fill="none" d="M 55.0 -295.0 L 56.0 -283.1 L 59.0 -248.0 L 62.0 -213.9 L 65.0 -181.0 L 68.0 -149.1 L 71.0 -118.4 L 74.0 -88.7 L 77.0 -60.0 L 80.0 -32.5 L 83.0 -6.0 L 86.0 19.3 L 89.0 43.6 L 92.0 66.9 L 95.0 89.0 L 98.0 110.1 L 101.0 130.0 L 104.0 148.9 L 107.0 166.8 L 110.0 183.5 L 113.0 199.2 L 116.0 213.7 L 119.0 227.2 L 122.0 239.7 L 125.0 251.0 L 128.0 261.3 L 131.0 270.4 L 134.0 278.5 L 137.0 285.6 L 140.0 291.5 L 143.0 296.4 L 146.0 300.1 L 149.0 302.8 L 152.0 304.5 L 155.0 305.0 L 158.0 304.5 L 161.0 302.8 L 164.0 300.1 L 167.0 296.4 L 170.0 291.5 L 173.0 285.6 L 176.0 278.5 L 179.0 270.4 L 182.0 261.3 L 185.0 251.0 L 188.0 239.7 L 191.0 227.2 L 194.0 213.7 L 197.0 199.2 L 200.0 183.5 L 203.0 166.8 L 206.0 148.9 L 209.0 130.0 L 212.0 110.1 L 215.0 89.0 L 218.0 66.9 L 221.0 43.6 L 224.0 19.3 L 227.0 -6.0 L 230.0 -32.5 L 233.0 -60.0 L 236.0 -88.7 L 239.0 -118.4 L 242.0 -149.1 L 245.0 -181.0 L 248.0 -213.9 L 251.0 -248.0 L 254.0 -283.1" clip-path="url(#derivative-__clipPath-1)"/><g id="derivative-__label-4" transform="translate(249.0,87.4) translate(0.0,-0.0)"><g id="derivative-__g-4"><svg xmlns:xlink="http://www.w3.org/1999/xlink" style="vertical-align: -4.528px" width="34.392px" height="18.096px" role="img" focusable="false" viewBox="0 -750 1900 1000" x="0.0" y="0.0"><defs><path id="derivative-MJX-5-TEX-I-1D453" d="M118 -162Q120 -162 124 -164T135 -167T147 -168Q160 -168 171 -155T187 -126Q197 -99 221 27T267 267T289 382V385H242Q195 385 192 387Q188 390 188 397L195 425Q197 430 203 430T250 431Q298 431 298 432Q298 434 307 482T319 540Q356 705 465 705Q502 703 526 683T550 630Q550 594 529 578T487 561Q443 561 443 603Q443 622 454 636T478 657L487 662Q471 668 457 668Q445 668 434 658T419 630Q412 601 403 552T387 469T380 433Q380 431 435 431Q480 431 487 430T498 424Q499 420 496 407T491 391Q489 386 482 386T428 385H372L349 263Q301 15 282 -47Q255 -132 212 -173Q175 -205 139 -205Q107 -205 81 -186T55 -132Q55 -95 76 -78T118 -61Q162 -61 162 -103Q162 -122 151 -136T127 -157L118 -162Z"/><path id="derivative-MJX-5-TEX-N-2061" d=""/><path id="derivative-MJX-5-TEX-N-28" d="M94 250Q94 319 104 381T127 488T164 576T202 643T244 695T277 729T302 750H315H319Q333 750 333 741Q333 738 316 720T275 667T226 581T184 443T167 250T184 58T225 -81T274 -167T316 -220T333 -241Q333 -250 318 -250H315H302L274 -226Q180 -141 137 -14T94 250Z"/><path id="derivative-MJX-5-TEX-I-1D465" d="M52 289Q59 331 106 386T222 442Q257 442 286 424T329 379Q371 442 430 442Q467 442 494 420T522 361Q522 332 508 314T481 292T458 288Q439 288 427 299T415 328Q415 374 465 391Q454 404 425 404Q412 404 406 402Q368 386 350 336Q290 115 290 78Q290 50 306 38T341 26Q378 26 414 59T463 140Q466 150 469 151T485 153H489Q504 153 504 145Q504 144 502 134Q486 77 440 33T333 -11Q263 -11 227 52Q186 -10 133 -10H127Q78 -10 57 16T35 71Q35 103 54 123T99 143Q142 143 142 101Q142 81 130 66T107 46T94 41L91 40Q91 39 97 36T113 29T132 26Q168 26 194 71Q203 87 217 139T245 247T261 313Q266 340 266 352Q266 380 251 392T217 404Q177 404 142 372T93 290Q91 281 88 280T72 278H58Q52 284 52 289Z"/><path id="derivative-MJX-5-TEX-N-29" d="M60 749L64 750Q69 750 74 750H86L114 726Q208 641 251 514T294 250Q294 182 284 119T261 12T224 -76T186 -143T145 -194T113 -227T90 -246Q87 -249 86 -250H74Q66 -250 63 -250T58 -247T55 -238Q56 -237 66 -225Q221 -64 221 250T66 725Q56 737 55 738Q55 746 60 749Z"/></defs><g stroke="currentColor" fill="currentColor" stroke-width="0" transform="scale(1,-1)"><g data-mml-node="math" data-semantic-type="appl" data-semantic-role="simple function" data-semantic-annotation="clearspeak:simple" data-semantic-id="6" data-semantic-children="0,4" data-semantic-content="5,0" data-semantic-speech="f left parenthesis x right parenthesis"><g data-mml-node="mi" data-semantic-type="identifier" data-semantic-role="simple function" data-semantic-font="italic" data-semantic-annotation="clearspeak:simple" data-semantic-id="0" data-semantic-parent="6" data-semantic-operator="appl" data-semantic-speech="f"><use data-c="1D453" xlink:href="#derivative-MJX-5-TEX-I-1D453"/></g><g data-mml-node="mo" data-semantic-type="punctuation" data-semantic-role="application" data-semantic-id="5" data-semantic-parent="6" data-semantic-added="true" data-semantic-operator="appl" data-semantic-speech="of" transform="translate(550,0)"><use data-c="2061" xlink:href="#derivative-MJX-5-TEX-N-2061"/></g><g data-mml-node="mrow" data-semantic-type="fenced" data-semantic-role="leftright" data-semantic-id="4" data-semantic-children="2" data-semantic-content="1,3" data-semantic-parent="6" data-semantic-speech="left parenthesis x right parenthesis" transform="translate(550,0)"><g data-mml-node="mo" data-semantic-type="fence" data-semantic-role="open" data-semantic-id="1" data-semantic-parent="4" data-semantic-operator="fenced" data-semantic-speech="left parenthesis"><use data-c="28" xlink:href="#derivative-MJX-5-TEX-N-28"/></g><g data-mml-node="mi" data-semantic-type="identifier" data-semantic-role="latinletter" data-semantic-font="italic" data-semantic-annotation="clearspeak:simple" data-semantic-id="2" data-semantic-parent="4" data-semantic-speech="x" transform="translate(389,0)"><use data-c="1D465" xlink:href="#derivative-MJX-5-TEX-I-1D465"/></g><g data-mml-node="mo" data-semantic-type="fence" data-semantic-role="close" data-semantic-id="3" data-semantic-parent="4" data-semantic-operator="fenced" data-semantic-speech="right parenthesis" transform="translate(961,0)"><use data-c="29" xlink:href="#derivative-MJX-5-TEX-N-29"/></g></g></g></g></svg></g></g><g id="derivative-__label-5" transform="translate(184.0,271.5) translate(0.0,-0.0)"><g id="derivative-__g-5"><svg xmlns:xlink="http://www.w3.org/1999/xlink" style="vertical-align: -4.528px" width="40.368px" height="18.264px" role="img" focusable="false" viewBox="0 -759 2230.5 1009" x="0.0" y="0.0"><defs><path id="derivative-MJX-6-TEX-I-1D453" d="M118 -162Q120 -162 124 -164T135 -167T147 -168Q160 -168 171 -155T187 -126Q197 -99 221 27T267 267T289 382V385H242Q195 385 192 387Q188 390 188 397L195 425Q197 430 203 430T250 431Q298 431 298 432Q298 434 307 482T319 540Q356 705 465 705Q502 703 526 683T550 630Q550 594 529 578T487 561Q443 561 443 603Q443 622 454 636T478 657L487 662Q471 668 457 668Q445 668 434 658T419 630Q412 601 403 552T387 469T380 433Q380 431 435 431Q480 431 487 430T498 424Q499 420 496 407T491 391Q489 386 482 386T428 385H372L349 263Q301 15 282 -47Q255 -132 212 -173Q175 -205 139 -205Q107 -205 81 -186T55 -132Q55 -95 76 -78T118 -61Q162 -61 162 -103Q162 -122 151 -136T127 -157L118 -162Z"/><path id="derivative-MJX-6-TEX-V-2032" d="M79 43Q73 43 52 49T30 61Q30 68 85 293T146 528Q161 560 198 560Q218 560 240 545T262 501Q262 496 260 486Q259 479 173 263T84 45T79 43Z"/><path id="derivative-MJX-6-TEX-N-2061" d=""/><path id="derivative-MJX-6-TEX-N-28" d="M94 250Q94 319 104 381T127 488T164 576T202 643T244 695T277 729T302 750H315H319Q333 750 333 741Q333 738 316 720T275 667T226 581T184 443T167 250T184 58T225 -81T274 -167T316 -220T333 -241Q333 -250 318 -250H315H302L274 -226Q180 -141 137 -14T94 250Z"/><path id="derivative-MJX-6-TEX-I-1D465" d="M52 289Q59 331 106 386T222 442Q257 442 286 424T329 379Q371 442 430 442Q467 442 494 420T522 361Q522 332 508 314T481 292T458 288Q439 288 427 299T415 328Q415 374 465 391Q454 404 425 404Q412 404 406 402Q368 386 350 336Q290 115 290 78Q290 50 306 38T341 26Q378 26 414 59T463 140Q466 150 469 151T485 153H489Q504 153 504 145Q504 144 502 134Q486 77 440 33T333 -11Q263 -11 227 52Q186 -10 133 -10H127Q78 -10 57 16T35 71Q35 103 54 123T99 143Q142 143 142 101Q142 81 130 66T107 46T94 41L91 40Q91 39 97 36T113 29T132 26Q168 26 194 71Q203 87 217 139T245 247T261 313Q266 340 266 352Q266 380 251 392T217 404Q177 404 142 372T93 290Q91 281 88 280T72 278H58Q52 284 52 289Z"/><path id="derivative-MJX-6-TEX-N-29" d="M60 749L64 750Q69 750 74 750H86L114 726Q208 641 251 514T294 250Q294 182 284 119T261 12T224 -76T186 -143T145 -194T113 -227T90 -246Q87 -249 86 -250H74Q66 -250 63 -250T58 -247T55 -238Q56 -237 66 -225Q221 -64 221 250T66 725Q56 737 55 738Q55 746 60 749Z"/></defs><g stroke="currentColor" fill="currentColor" stroke-width="0" transform="scale(1,-1)"><g data-mml-node="math" data-semantic-type="appl" data-semantic-role="simple function" data-semantic-annotation="clearspeak:simple" data-semantic-id="8" data-semantic-children="2,6" data-semantic-content="7,0" data-semantic-speech="f prime left parenthesis x right parenthesis"><g data-mml-node="msup" data-semantic-type="superscript" data-semantic-role="simple function" data-semantic-id="2" data-semantic-children="0,1" data-semantic-parent="8" data-semantic-speech="f prime"><g data-mml-node="mi" data-semantic-type="identifier" data-semantic-role="simple function" data-semantic-font="italic" data-semantic-annotation="clearspeak:simple" data-semantic-id="0" data-semantic-parent="2" data-semantic-operator="appl" data-semantic-speech="f" data-semantic-prefix="Base"><use data-c="1D453" xlink:href="#derivative-MJX-6-TEX-I-1D453"/></g><g data-mml-node="mo" transform="translate(636,363) scale(0.707)" data-semantic-type="punctuation" data-semantic-role="prime" data-semantic-id="1" data-semantic-parent="2" data-semantic-speech="prime" data-semantic-prefix="Exponent"><use data-c="2032" xlink:href="#derivative-MJX-6-TEX-V-2032"/></g></g><g data-mml-node="mo" data-semantic-type="punctuation" data-semantic-role="application" data-semantic-id="7" data-semantic-parent="8" data-semantic-added="true" data-semantic-operator="appl" data-semantic-speech="of" transform="translate(880.5,0)"><use data-c="2061" xlink:href="#derivative-MJX-6-TEX-N-2061"/></g><g data-mml-node="mrow" data-semantic-type="fenced" data-semantic-role="leftright" data-semantic-id="6" data-semantic-children="4" data-semantic-content="3,5" data-semantic-parent="8" data-semantic-speech="left parenthesis x right parenthesis" transform="translate(880.5,0)"><g data-mml-node="mo" data-semantic-type="fence" data-semantic-role="open" data-semantic-id="3" data-semantic-parent="6" data-semantic-operator="fenced" data-semantic-speech="left parenthesis"><use data-c="28" xlink:href="#derivative-MJX-6-TEX-N-28"/></g><g data-mml-node="mi" data-semantic-type="identifier" data-semantic-role="latinletter" data-semantic-font="italic" data-semantic-annotation="clearspeak:simple" data-semantic-id="4" data-semantic-parent="6" data-semantic-speech="x" transform="translate(389,0)"><use data-c="1D465" xlink:href="#derivative-MJX-6-TEX-I-1D465"/></g><g data-mml-node="mo" data-semantic-type="fence" data-semantic-role="close" data-semantic-id="5" data-semantic-parent="6" data-semantic-operator="fenced" data-semantic-speech="right parenthesis" transform="translate(961,0)"><use data-c="29" xlink:href="#derivative-MJX-6-TEX-N-29"/></g></g></g></g></svg></g></g></svg>