<svg xmlns="http://www.w3.org/2000/svg" id="fill-patterns-figure" width="310" height="310" viewBox="0 0 310 310"><defs><clipPath id="fill-patterns-__clipPath-0"><rect x="5.0" y="5.0" width="300.0" height="300.0"/></clipPath><clipPath id="fill-patterns-__clipPath-1"><rect x="5.0" y="5.0" width="300.0" height="300.0"/></clipPath><pattern x="0" y="0" patternUnits="userSpaceOnUse" id="fill-patterns-__horizontal_texture_orange" width="7" height="7"><line x1="-1" y1="0" x2="8" y2="0" stroke="orange" stroke-width="2"/></pattern><pattern x="0" y="0" patternUnits="userSpaceOnUse" id="fill-patterns-__vertical_texture_red" width="7" height="7"><line x1="0" y1="-1" x2="0" y2="8" stroke="red" stroke-width="2"/></pattern><pattern x="0" y="0" patternUnits="userSpaceOnUse" id="fill-patterns-__diagonal_texture_magenta" width="9" height="9"><line x1="-1" y1="1" x2="1" y2="-1" stroke="magenta" stroke-width="1"/><line x1="-1" y1="10" x2="10" y2="-1" stroke="magenta" stroke-width="1"/><line x1="8" y1="10" x2="10" y2="8" stroke="magenta" stroke-width="1"/></pattern><path id="fill-patterns-c4" d="M 98.8 155.0 L 98.7 152.6 L 98.5 150.3 L 98.1 148.0 L 97.6 145.7 L 96.9 143.4 L 96.1 141.2 L 95.2 139.0 L 94.1 136.9 L 92.9 134.9 L 91.6 133.0 L 90.1 131.1 L 88.6 129.3 L 86.9 127.7 L 85.2 126.1 L 83.3 124.7 L 81.3 123.3 L 79.3 122.1 L 77.2 121.1 L 75.1 120.1 L 72.8 119.3 L 70.6 118.7 L 68.3 118.2 L 65.9 117.8 L 63.6 117.6 L 61.2 117.5 L 58.9 117.6 L 56.6 117.8 L 54.2 118.2 L 51.9 118.7 L 49.7 119.3 L 47.4 120.1 L 45.3 121.1 L 43.2 122.1 L 41.2 123.3 L 39.2 124.7 L 37.3 126.1 L 35.6 127.7 L 33.9 129.3 L 32.4 131.1 L 30.9 133.0 L 29.6 134.9 L 28.4 136.9 L 27.3 139.0 L 26.4 141.2 L 25.6 143.4 L 24.9 145.7 L 24.4 148.0 L 24.0 150.3 L 23.8 152.6 L 23.8 155.0 L 23.8 157.4 L 24.0 159.7 L 24.4 162.0 L 24.9 164.3 L 25.6 166.6 L 26.4 168.8 L 27.3 171.0 L 28.4 173.1 L 29.6 175.1 L 30.9 177.0 L 32.4 178.9 L 33.9 180.7 L 35.6 182.3 L 37.3 183.9 L 39.2 185.3 L 41.2 186.7 L 43.2 187.9 L 45.3 188.9 L 47.4 189.9 L 49.7 190.7 L 51.9 191.3 L 54.2 191.8 L 56.6 192.2 L 58.9 192.4 L 61.2 192.5 L 63.6 192.4 L 65.9 192.2 L 68.3 191.8 L 70.6 191.3 L 72.8 190.7 L 75.1 189.9 L 77.2 188.9 L 79.3 187.9 L 81.3 186.7 L 83.3 185.3 L 85.2 183.9 L 86.9 182.3 L 88.6 180.7 L 90.1 178.9 L 91.6 177.0 L 92.9 175.1 L 94.1 173.1 L 95.2 171.0 L 96.1 168.8 L 96.9 166.6 L 97.6 164.3 L 98.1 162.0 L 98.5 159.7 L 98.7 157.4 Z"/><pattern x="0" y="0" patternUnits="userSpaceOnUse" id="fill-patterns-__backdiagonal_texture_rgbp127c127c0q" width="9" height="9"><line x1="8" y1="-1" x2="10" y2="1" stroke="rgb(127,127,0)" stroke-width="1"/><line x1="-1" y1="-1" x2="10" y2="10" stroke="rgb(127,127,0)" stroke-width="1"/><line x1="-1" y1="8" x2="1" y2="10" stroke="rgb(127,127,0)" stroke-width="1"/></pattern><pattern x="0" y="0" patternUnits="userSpaceOnUse" id="fill-patterns-__dot_texture_h777" width="16" height="27.712812921102035"><circle cx="1.8" cy="1.8" r="1.8" fill="#777"/><circle cx="1.8" cy="11.037604307034014" r="1.8" fill="#777"/><circle cx="1.8" cy="20.275208614068028" r="1.8" fill="#777"/><circle cx="9.8" cy="6.418802153517007" r="1.8" fill="#777"/><circle cx="9.8" cy="24.894010767585034" r="1.8" fill="#777"/><circle cx="9.8" cy="15.656406460551022" r="1.8" fill="#777"/></pattern><pattern x="0" y="0" patternUnits="userSpaceOnUse" id="fill-patterns-__diamond_texture_blue" width="10.0" height="17.32050807568877"><path d="M 2.5 8.660254037844386 L 5.0 4.330127018922193 L 2.5 0.0 L 0.0 4.330127018922193 Z" fill="blue"/><path d="M 7.5 17.32050807568877 L 10.0 12.990381056766578 L 7.5 8.660254037844386 L 5.0 12.990381056766578 Z" fill="blue"/></pattern></defs><g id="fill-patterns-axes" stroke="black" stroke-width="2"><line id="fill-patterns-__line-0" x1="5.0" y1="155.0" x2="305.0" y2="155.0" stroke="black" stroke-width="2"/><line id="fill-patterns-__line-1" x1="155.0" y1="305.0" x2="155.0" y2="5.0" stroke="black" stroke-width="2"/></g><path id="fill-patterns-__path-0" d="M 286.2 155.0 L 286.2 152.6 L 286.0 150.3 L 285.6 148.0 L 285.1 145.7 L 284.4 143.4 L 283.6 141.2 L 282.7 139.0 L 281.6 136.9 L 280.4 134.9 L 279.1 133.0 L 277.6 131.1 L 276.1 129.3 L 274.4 127.7 L 272.7 126.1 L 270.8 124.7 L 268.8 123.3 L 266.8 122.1 L 264.7 121.1 L 262.6 120.1 L 260.3 119.3 L 258.1 118.7 L 255.8 118.2 L 253.4 117.8 L 251.1 117.6 L 248.8 117.5 L 246.4 117.6 L 244.1 117.8 L 241.7 118.2 L 239.4 118.7 L 237.2 119.3 L 234.9 120.1 L 232.8 121.1 L 230.7 122.1 L 228.7 123.3 L 226.7 124.7 L 224.8 126.1 L 223.1 127.7 L 221.4 129.3 L 219.9 131.1 L 218.4 133.0 L 217.1 134.9 L 215.9 136.9 L 214.8 139.0 L 213.9 141.2 L 213.1 143.4 L 212.4 145.7 L 211.9 148.0 L 211.5 150.3 L 211.3 152.6 L 211.2 155.0 L 211.3 157.4 L 211.5 159.7 L 211.9 162.0 L 212.4 164.3 L 213.1 166.6 L 213.9 168.8 L 214.8 171.0 L 215.9 173.1 L 217.1 175.1 L 218.4 177.0 L 219.9 178.9 L 221.4 180.7 L 223.1 182.3 L 224.8 183.9 L 226.7 185.3 L 228.7 186.7 L 230.7 187.9 L 232.8 188.9 L 234.9 189.9 L 237.2 190.7 L 239.4 191.3 L 241.7 191.8 L 244.1 192.2 L 246.4 192.4 L 248.8 192.5 L 251.1 192.4 L 253.4 192.2 L 255.8 191.8 L 258.1 191.3 L 260.3 190.7 L 262.6 189.9 L 264.7 188.9 L 266.8 187.9 L 268.8 186.7 L 270.8 185.3 L 272.7 183.9 L 274.4 182.3 L 276.1 180.7 L 277.6 178.9 L 279.1 177.0 L 280.4 175.1 L 281.6 173.1 L 282.7 171.0 L 283.6 168.8 L 284.4 166.6 L 285.1 164.3 L 285.6 162.0 L 286.0 159.7 L 286.2 157.4 Z" stroke="blue" stroke-width="2" fill="url(#fill-patterns-__horizontal_texture_orange)"/><path id="fill-patterns-__path-1" d="M 239.4 73.8 L 239.3 71.5 L 239.1 69.1 L 238.7 66.8 L 238.2 64.5 L 237.5 62.2 L 236.7 60.0 L 235.8 57.8 L 234.7 55.7 L 233.5 53.7 L 232.2 51.8 L 230.8 49.9 L 229.2 48.1 L 227.5 46.5 L 225.8 44.9 L 223.9 43.5 L 222.0 42.1 L 219.9 40.9 L 217.8 39.9 L 215.7 38.9 L 213.5 38.1 L 211.2 37.5 L 208.9 37.0 L 206.6 36.6 L 204.2 36.4 L 201.9 36.3 L 199.5 36.4 L 197.2 36.6 L 194.8 37.0 L 192.5 37.5 L 190.3 38.1 L 188.1 38.9 L 185.9 39.9 L 183.8 40.9 L 181.8 42.1 L 179.8 43.5 L 178.0 44.9 L 176.2 46.5 L 174.5 48.1 L 173.0 49.9 L 171.5 51.8 L 170.2 53.7 L 169.0 55.7 L 167.9 57.8 L 167.0 60.0 L 166.2 62.2 L 165.6 64.5 L 165.0 66.8 L 164.7 69.1 L 164.4 71.5 L 164.4 73.8 L 164.4 76.2 L 164.7 78.5 L 165.0 80.8 L 165.6 83.1 L 166.2 85.4 L 167.0 87.6 L 167.9 89.8 L 169.0 91.9 L 170.2 93.9 L 171.5 95.9 L 173.0 97.7 L 174.5 99.5 L 176.2 101.1 L 178.0 102.7 L 179.8 104.1 L 181.8 105.5 L 183.8 106.7 L 185.9 107.7 L 188.1 108.7 L 190.3 109.5 L 192.5 110.1 L 194.8 110.6 L 197.2 111.0 L 199.5 111.2 L 201.9 111.3 L 204.2 111.2 L 206.6 111.0 L 208.9 110.6 L 211.2 110.1 L 213.5 109.5 L 215.7 108.7 L 217.8 107.7 L 219.9 106.7 L 222.0 105.5 L 223.9 104.1 L 225.8 102.7 L 227.5 101.1 L 229.2 99.5 L 230.8 97.7 L 232.2 95.9 L 233.5 93.9 L 234.7 91.9 L 235.8 89.8 L 236.7 87.6 L 237.5 85.4 L 238.2 83.1 L 238.7 80.8 L 239.1 78.5 L 239.3 76.2 Z" stroke="blue" stroke-width="2" fill="url(#fill-patterns-__vertical_texture_red)"/><path id="fill-patterns-__path-2" d="M 145.6 73.8 L 145.6 71.5 L 145.3 69.1 L 145.0 66.8 L 144.4 64.5 L 143.8 62.2 L 143.0 60.0 L 142.1 57.8 L 141.0 55.7 L 139.8 53.7 L 138.5 51.8 L 137.0 49.9 L 135.5 48.1 L 133.8 46.5 L 132.0 44.9 L 130.2 43.5 L 128.2 42.1 L 126.2 40.9 L 124.1 39.9 L 121.9 38.9 L 119.7 38.1 L 117.5 37.5 L 115.2 37.0 L 112.8 36.6 L 110.5 36.4 L 108.1 36.3 L 105.8 36.4 L 103.4 36.6 L 101.1 37.0 L 98.8 37.5 L 96.5 38.1 L 94.3 38.9 L 92.2 39.9 L 90.1 40.9 L 88.0 42.1 L 86.1 43.5 L 84.2 44.9 L 82.5 46.5 L 80.8 48.1 L 79.2 49.9 L 77.8 51.8 L 76.5 53.7 L 75.3 55.7 L 74.2 57.8 L 73.3 60.0 L 72.5 62.2 L 71.8 64.5 L 71.3 66.8 L 70.9 69.1 L 70.7 71.5 L 70.6 73.8 L 70.7 76.2 L 70.9 78.5 L 71.3 80.8 L 71.8 83.1 L 72.5 85.4 L 73.3 87.6 L 74.2 89.8 L 75.3 91.9 L 76.5 93.9 L 77.8 95.9 L 79.2 97.7 L 80.8 99.5 L 82.5 101.1 L 84.2 102.7 L 86.1 104.1 L 88.0 105.5 L 90.1 106.7 L 92.2 107.7 L 94.3 108.7 L 96.5 109.5 L 98.8 110.1 L 101.1 110.6 L 103.4 111.0 L 105.8 111.2 L 108.1 111.3 L 110.5 111.2 L 112.8 111.0 L 115.2 110.6 L 117.5 110.1 L 119.7 109.5 L 121.9 108.7 L 124.1 107.7 L 126.2 106.7 L 128.2 105.5 L 130.2 104.1 L 132.0 102.7 L 133.8 101.1 L 135.5 99.5 L 137.0 97.7 L 138.5 95.9 L 139.8 93.9 L 141.0 91.9 L 142.1 89.8 L 143.0 87.6 L 143.8 85.4 L 144.4 83.1 L 145.0 80.8 L 145.3 78.5 L 145.6 76.2 Z" stroke="blue" stroke-width="2" fill="url(#fill-patterns-__diagonal_texture_magenta)"/><use href="#fill-patterns-c4" id="fill-patterns-__use-0" stroke="none" stroke-width="2" fill="white"/><use href="#fill-patterns-c4" id="fill-patterns-__use-1" stroke="blue" stroke-width="2" fill="url(#fill-patterns-__backdiagonal_texture_rgbp127c127c0q)"/><path id="fill-patterns-__path-3" d="M 145.6 236.2 L 145.6 233.8 L 145.3 231.5 L 145.0 229.2 L 144.4 226.9 L 143.8 224.6 L 143.0 222.4 L 142.1 220.2 L 141.0 218.1 L 139.8 216.1 L 138.5 214.1 L 137.0 212.3 L 135.5 210.5 L 133.8 208.9 L 132.0 207.3 L 130.2 205.9 L 128.2 204.5 L 126.2 203.3 L 124.1 202.3 L 121.9 201.3 L 119.7 200.5 L 117.5 199.9 L 115.2 199.4 L 112.8 199.0 L 110.5 198.8 L 108.1 198.7 L 105.8 198.8 L 103.4 199.0 L 101.1 199.4 L 98.8 199.9 L 96.5 200.5 L 94.3 201.3 L 92.2 202.3 L 90.1 203.3 L 88.0 204.5 L 86.1 205.9 L 84.2 207.3 L 82.5 208.9 L 80.8 210.5 L 79.2 212.3 L 77.8 214.1 L 76.5 216.1 L 75.3 218.1 L 74.2 220.2 L 73.3 222.4 L 72.5 224.6 L 71.8 226.9 L 71.3 229.2 L 70.9 231.5 L 70.7 233.8 L 70.6 236.2 L 70.7 238.5 L 70.9 240.9 L 71.3 243.2 L 71.8 245.5 L 72.5 247.8 L 73.3 250.0 L 74.2 252.2 L 75.3 254.3 L 76.5 256.3 L 77.8 258.2 L 79.2 260.1 L 80.8 261.9 L 82.5 263.5 L 84.2 265.1 L 86.1 266.5 L 88.0 267.9 L 90.1 269.1 L 92.2 270.1 L 94.3 271.1 L 96.5 271.9 L 98.8 272.5 L 101.1 273.0 L 103.4 273.4 L 105.8 273.6 L 108.1 273.7 L 110.5 273.6 L 112.8 273.4 L 115.2 273.0 L 117.5 272.5 L 119.7 271.9 L 121.9 271.1 L 124.1 270.1 L 126.2 269.1 L 128.2 267.9 L 130.2 266.5 L 132.0 265.1 L 133.8 263.5 L 135.5 261.9 L 137.0 260.1 L 138.5 258.2 L 139.8 256.3 L 141.0 254.3 L 142.1 252.2 L 143.0 250.0 L 143.8 247.8 L 144.4 245.5 L 145.0 243.2 L 145.3 240.9 L 145.6 238.5 Z" stroke="blue" stroke-width="2" fill="url(#fill-patterns-__dot_texture_h777)"/><path id="fill-patterns-__path-4" d="M 239.4 236.2 L 239.3 233.8 L 239.1 231.5 L 238.7 229.2 L 238.2 226.9 L 237.5 224.6 L 236.7 222.4 L 235.8 220.2 L 234.7 218.1 L 233.5 216.1 L 232.2 214.1 L 230.8 212.3 L 229.2 210.5 L 227.5 208.9 L 225.8 207.3 L 223.9 205.9 L 222.0 204.5 L 219.9 203.3 L 217.8 202.3 L 215.7 201.3 L 213.5 200.5 L 211.2 199.9 L 208.9 199.4 L 206.6 199.0 L 204.2 198.8 L 201.9 198.7 L 199.5 198.8 L 197.2 199.0 L 194.8 199.4 L 192.5 199.9 L 190.3 200.5 L 188.1 201.3 L 185.9 202.3 L 183.8 203.3 L 181.8 204.5 L 179.8 205.9 L 178.0 207.3 L 176.2 208.9 L 174.5 210.5 L 173.0 212.3 L 171.5 214.1 L 170.2 216.1 L 169.0 218.1 L 167.9 220.2 L 167.0 222.4 L 166.2 224.6 L 165.6 226.9 L 165.0 229.2 L 164.7 231.5 L 164.4 233.8 L 164.4 236.2 L 164.4 238.5 L 164.7 240.9 L 165.0 243.2 L 165.6 245.5 L 166.2 247.8 L 167.0 250.0 L 167.9 252.2 L 169.0 254.3 L 170.2 256.3 L 171.5 258.2 L 173.0 260.1 L 174.5 261.9 L 176.2 263.5 L 178.0 265.1 L 179.8 266.5 L 181.8 267.9 L 183.8 269.1 L 185.9 270.1 L 188.1 271.1 L 190.3 271.9 L 192.5 272.5 L 194.8 273.0 L 197.2 273.4 L 199.5 273.6 L 201.9 273.7 L 204.2 273.6 L 206.6 273.4 L 208.9 273.0 L 211.2 272.5 L 213.5 271.9 L 215.7 271.1 L 217.8 270.1 L 219.9 269.1 L 222.0 267.9 L 223.9 266.5 L 225.8 265.1 L 227.5 263.5 L 229.2 261.9 L 230.8 260.1 L 232.2 258.2 L 233.5 256.3 L 234.7 254.3 L 235.8 252.2 L 236.7 250.0 L 237.5 247.8 L 238.2 245.5 L 238.7 243.2 L 239.1 240.9 L 239.3 238.5 Z" stroke="blue" stroke-width="2" fill="url(#fill-patterns-__diamond_texture_blue)"/></svg>