<svg xmlns="http://www.w3.org/2000/svg" id="gmres-figure" width="314" height="314" viewBox="0 0 314 314"><defs><clipPath id="gmres-__clipPath-0"><rect x="7.0" y="7.0" width="300.0" height="300.0"/></clipPath><clipPath id="gmres-__clipPath-1"><rect x="7.0" y="7.0" width="300.0" height="300.0"/></clipPath><marker id="gmres-arrow-head-end-2_None_24_60-red" markerWidth="9.0" markerHeight="8.0" markerUnits="userSpaceOnUse" orient="auto-start-reverse" refX="6.5" refY="4.0"><path d="M 9.0 4.0L 0.0 8.0L 1.7 5.0L 1.7 3.0L 0.0 0.0Z" fill="red" stroke="none"/></marker><marker id="gmres-arrow-head-end-2_None_24_60-red-outline" markerWidth="13.0" markerHeight="12.0" markerUnits="userSpaceOnUse" orient="auto-start-reverse" refX="8.5" refY="6.0"><path d="M 11.8 7.8 L 2.8 11.8 A 2 2 0 0 1 0.0 10.0 L 0.0 2.0 A 2 2 0 0 1 2.8 0.2 L 11.8 4.2 A 2 2 0 0 1 11.8 7.8 Z" fill="white" stroke="none"/></marker></defs><g id="gmres-axes" stroke="black" stroke-width="2"><line id="gmres-__line-0" x1="7.0" y1="157.0" x2="307.0" y2="157.0" stroke="black" stroke-width="2"/><line id="gmres-__line-1" x1="157.0" y1="307.0" x2="157.0" y2="7.0" stroke="black" stroke-width="2"/></g><line id="gmres-__line-2" x1="7.0" y1="232.0" x2="307.0" y2="82.0" stroke="black" stroke-width="2" stroke-dasharray="4 4" fill="none"/><path stroke="red" stroke-width="2" fill="none" marker-end="url(#gmres-arrow-head-end-2_None_24_60-red)" d="M 265.0 103.0 L 236.1 45.2" id="gmres-__path-0"/><g id="gmres-__label-0" transform="translate(53.0,215.0) translate(0.0,-0.0)"><g id="gmres-__g-0"><svg xmlns:xlink="http://www.w3.org/1999/xlink" style="vertical-align: -2.856px" width="38.120px" height="15.816px" role="img" focusable="false" viewBox="0 -716 2106.3 873.8" x="0.0" y="0.0"><defs><path id="gmres-MJX-1-TEX-I-1D434" d="M208 74Q208 50 254 46Q272 46 272 35Q272 34 270 22Q267 8 264 4T251 0Q249 0 239 0T205 1T141 2Q70 2 50 0H42Q35 7 35 11Q37 38 48 46H62Q132 49 164 96Q170 102 345 401T523 704Q530 716 547 716H555H572Q578 707 578 706L606 383Q634 60 636 57Q641 46 701 46Q726 46 726 36Q726 34 723 22Q720 7 718 4T704 0Q701 0 690 0T651 1T578 2Q484 2 455 0H443Q437 6 437 9T439 27Q443 40 445 43L449 46H469Q523 49 533 63L521 213H283L249 155Q208 86 208 74ZM516 260Q516 271 504 416T490 562L463 519Q447 492 400 412L310 260L413 259Q516 259 516 260Z"/><path id="gmres-MJX-1-TEX-N-2062" d=""/><path id="gmres-MJX-1-TEX-I-1D43E" d="M285 628Q285 635 228 637Q205 637 198 638T191 647Q191 649 193 661Q199 681 203 682Q205 683 214 683H219Q260 681 355 681Q389 681 418 681T463 682T483 682Q500 682 500 674Q500 669 497 660Q496 658 496 654T495 648T493 644T490 641T486 639T479 638T470 637T456 637Q416 636 405 634T387 623L306 305Q307 305 490 449T678 597Q692 611 692 620Q692 635 667 637Q651 637 651 648Q651 650 654 662T659 677Q662 682 676 682Q680 682 711 681T791 680Q814 680 839 681T869 682Q889 682 889 672Q889 650 881 642Q878 637 862 637Q787 632 726 586Q710 576 656 534T556 455L509 418L518 396Q527 374 546 329T581 244Q656 67 661 61Q663 59 666 57Q680 47 717 46H738Q744 38 744 37T741 19Q737 6 731 0H720Q680 3 625 3Q503 3 488 0H478Q472 6 472 9T474 27Q478 40 480 43T491 46H494Q544 46 544 71Q544 75 517 141T485 216L427 354L359 301L291 248L268 155Q245 63 245 58Q245 51 253 49T303 46H334Q340 37 340 35Q340 19 333 5Q328 0 317 0Q314 0 280 1T180 2Q118 2 85 2T49 1Q31 1 31 11Q31 13 34 25Q38 41 42 43T65 46Q92 46 125 49Q139 52 144 61Q147 65 216 339T285 628Z"/><path id="gmres-MJX-1-TEX-I-1D45B" d="M21 287Q22 293 24 303T36 341T56 388T89 425T135 442Q171 442 195 424T225 390T231 369Q231 367 232 367L243 378Q304 442 382 442Q436 442 469 415T503 336T465 179T427 52Q427 26 444 26Q450 26 453 27Q482 32 505 65T540 145Q542 153 560 153Q580 153 580 145Q580 144 576 130Q568 101 554 73T508 17T439 -10Q392 -10 371 17T350 73Q350 92 386 193T423 345Q423 404 379 404H374Q288 404 229 303L222 291L189 157Q156 26 151 16Q138 -11 108 -11Q95 -11 87 -5T76 7T74 17Q74 30 112 180T152 343Q153 348 153 366Q153 405 129 405Q91 405 66 305Q60 285 60 284Q58 278 41 278H27Q21 284 21 287Z"/></defs><g stroke="currentColor" fill="currentColor" stroke-width="0" transform="scale(1,-1)"><g data-mml-node="math" data-semantic-type="infixop" data-semantic-role="implicit" data-semantic-annotation="clearspeak:unit" data-semantic-id="5" data-semantic-children="0,3" data-semantic-content="4" data-semantic-speech="upper A upper K Subscript n"><g data-mml-node="mi" data-semantic-type="identifier" data-semantic-role="latinletter" data-semantic-font="italic" data-semantic-annotation="clearspeak:simple" data-semantic-id="0" data-semantic-parent="5" data-semantic-speech="upper A"><use data-c="1D434" xlink:href="#gmres-MJX-1-TEX-I-1D434"/></g><g data-mml-node="mo" data-semantic-type="operator" data-semantic-role="multiplication" data-semantic-id="4" data-semantic-parent="5" data-semantic-added="true" data-semantic-operator="infixop,&#8290;" data-semantic-speech="times" transform="translate(750,0)"><use data-c="2062" xlink:href="#gmres-MJX-1-TEX-N-2062"/></g><g data-mml-node="msub" data-semantic-type="subscript" data-semantic-role="latinletter" data-semantic-id="3" data-semantic-children="1,2" data-semantic-parent="5" data-semantic-speech="upper K Subscript n" transform="translate(750,0)"><g data-mml-node="mi" data-semantic-type="identifier" data-semantic-role="latinletter" data-semantic-font="italic" data-semantic-annotation="clearspeak:simple" data-semantic-id="1" data-semantic-parent="3" data-semantic-speech="upper K" data-semantic-prefix="Base"><use data-c="1D43E" xlink:href="#gmres-MJX-1-TEX-I-1D43E"/></g><g data-mml-node="mi" transform="translate(882,-150) scale(0.707)" data-semantic-type="identifier" data-semantic-role="latinletter" data-semantic-font="italic" data-semantic-annotation="clearspeak:simple" data-semantic-id="2" data-semantic-parent="3" data-semantic-speech="n" data-semantic-prefix="Subscript"><use data-c="1D45B" xlink:href="#gmres-MJX-1-TEX-I-1D45B"/></g></g></g></g></svg></g></g><g id="gmres-__label-1" transform="translate(269.0,107.0) translate(0.0,-0.0)"><g id="gmres-__g-1"><svg xmlns:xlink="http://www.w3.org/1999/xlink" style="vertical-align: -3.712px" width="45.944px" height="16.672px" role="img" focusable="false" viewBox="0 -716 2538.3 921" x="0.0" y="0.0"><defs><path id="gmres-MJX-2-TEX-I-1D434" d="M208 74Q208 50 254 46Q272 46 272 35Q272 34 270 22Q267 8 264 4T251 0Q249 0 239 0T205 1T141 2Q70 2 50 0H42Q35 7 35 11Q37 38 48 46H62Q132 49 164 96Q170 102 345 401T523 704Q530 716 547 716H555H572Q578 707 578 706L606 383Q634 60 636 57Q641 46 701 46Q726 46 726 36Q726 34 723 22Q720 7 718 4T704 0Q701 0 690 0T651 1T578 2Q484 2 455 0H443Q437 6 437 9T439 27Q443 40 445 43L449 46H469Q523 49 533 63L521 213H283L249 155Q208 86 208 74ZM516 260Q516 271 504 416T490 562L463 519Q447 492 400 412L310 260L413 259Q516 259 516 260Z"/><path id="gmres-MJX-2-TEX-N-2062" d=""/><path id="gmres-MJX-2-TEX-I-1D444" d="M399 -80Q399 -47 400 -30T402 -11V-7L387 -11Q341 -22 303 -22Q208 -22 138 35T51 201Q50 209 50 244Q50 346 98 438T227 601Q351 704 476 704Q514 704 524 703Q621 689 680 617T740 435Q740 255 592 107Q529 47 461 16L444 8V3Q444 2 449 -24T470 -66T516 -82Q551 -82 583 -60T625 -3Q631 11 638 11Q647 11 649 2Q649 -6 639 -34T611 -100T557 -165T481 -194Q399 -194 399 -87V-80ZM636 468Q636 523 621 564T580 625T530 655T477 665Q429 665 379 640Q277 591 215 464T153 216Q153 110 207 59Q231 38 236 38V46Q236 86 269 120T347 155Q372 155 390 144T417 114T429 82T435 55L448 64Q512 108 557 185T619 334T636 468ZM314 18Q362 18 404 39L403 49Q399 104 366 115Q354 117 347 117Q344 117 341 117T337 118Q317 118 296 98T274 52Q274 18 314 18Z"/><path id="gmres-MJX-2-TEX-I-1D45B" d="M21 287Q22 293 24 303T36 341T56 388T89 425T135 442Q171 442 195 424T225 390T231 369Q231 367 232 367L243 378Q304 442 382 442Q436 442 469 415T503 336T465 179T427 52Q427 26 444 26Q450 26 453 27Q482 32 505 65T540 145Q542 153 560 153Q580 153 580 145Q580 144 576 130Q568 101 554 73T508 17T439 -10Q392 -10 371 17T350 73Q350 92 386 193T423 345Q423 404 379 404H374Q288 404 229 303L222 291L189 157Q156 26 151 16Q138 -11 108 -11Q95 -11 87 -5T76 7T74 17Q74 30 112 180T152 343Q153 348 153 366Q153 405 129 405Q91 405 66 305Q60 285 60 284Q58 278 41 278H27Q21 284 21 287Z"/><path id="gmres-MJX-2-TEX-I-1D466" d="M21 287Q21 301 36 335T84 406T158 442Q199 442 224 419T250 355Q248 336 247 334Q247 331 231 288T198 191T182 105Q182 62 196 45T238 27Q261 27 281 38T312 61T339 94Q339 95 344 114T358 173T377 247Q415 397 419 404Q432 431 462 431Q475 431 483 424T494 412T496 403Q496 390 447 193T391 -23Q363 -106 294 -155T156 -205Q111 -205 77 -183T43 -117Q43 -95 50 -80T69 -58T89 -48T106 -45Q150 -45 150 -87Q150 -107 138 -122T115 -142T102 -147L99 -148Q101 -153 118 -160T152 -167H160Q177 -167 186 -165Q219 -156 247 -127T290 -65T313 -9T321 21L315 17Q309 13 296 6T270 -6Q250 -11 231 -11Q185 -11 150 11T104 82Q103 89 103 113Q103 170 138 262T173 379Q173 380 173 381Q173 390 173 393T169 400T158 404H154Q131 404 112 385T82 344T65 302T57 280Q55 278 41 278H27Q21 284 21 287Z"/></defs><g stroke="currentColor" fill="currentColor" stroke-width="0" transform="scale(1,-1)"><g data-mml-node="math" data-semantic-type="infixop" data-semantic-role="implicit" data-semantic-annotation="clearspeak:unit" data-semantic-id="7" data-semantic-children="0,3,4" data-semantic-content="5,6" data-semantic-speech="upper A upper Q Subscript n Baseline y"><g data-mml-node="mi" data-semantic-type="identifier" data-semantic-role="latinletter" data-semantic-font="italic" data-semantic-annotation="clearspeak:simple" data-semantic-id="0" data-semantic-parent="7" data-semantic-speech="upper A"><use data-c="1D434" xlink:href="#gmres-MJX-2-TEX-I-1D434"/></g><g data-mml-node="mo" data-semantic-type="operator" data-semantic-role="multiplication" data-semantic-id="5" data-semantic-parent="7" data-semantic-added="true" data-semantic-operator="infixop,&#8290;" data-semantic-speech="times" transform="translate(750,0)"><use data-c="2062" xlink:href="#gmres-MJX-2-TEX-N-2062"/></g><g data-mml-node="msub" data-semantic-type="subscript" data-semantic-role="latinletter" data-semantic-id="3" data-semantic-children="1,2" data-semantic-parent="7" data-semantic-speech="upper Q Subscript n Baseline" transform="translate(750,0)"><g data-mml-node="mi" data-semantic-type="identifier" data-semantic-role="latinletter" data-semantic-font="italic" data-semantic-annotation="clearspeak:simple" data-semantic-id="1" data-semantic-parent="3" data-semantic-speech="upper Q" data-semantic-prefix="Base"><use data-c="1D444" xlink:href="#gmres-MJX-2-TEX-I-1D444"/></g><g data-mml-node="mi" transform="translate(824,-150) scale(0.707)" data-semantic-type="identifier" data-semantic-role="latinletter" data-semantic-font="italic" data-semantic-annotation="clearspeak:simple" data-semantic-id="2" data-semantic-parent="3" data-semantic-speech="n" data-semantic-prefix="Subscript"><use data-c="1D45B" xlink:href="#gmres-MJX-2-TEX-I-1D45B"/></g></g><g data-mml-node="mo" data-semantic-type="operator" data-semantic-role="multiplication" data-semantic-id="6" data-semantic-parent="7" data-semantic-added="true" data-semantic-operator="infixop,&#8290;" data-semantic-speech="times" transform="translate(2048.3,0)"><use data-c="2062" xlink:href="#gmres-MJX-2-TEX-N-2062"/></g><g data-mml-node="mi" data-semantic-type="identifier" data-semantic-role="latinletter" data-semantic-font="italic" data-semantic-annotation="clearspeak:simple" data-semantic-id="4" data-semantic-parent="7" data-semantic-speech="y" transform="translate(2048.3,0)"><use data-c="1D466" xlink:href="#gmres-MJX-2-TEX-I-1D466"/></g></g></g></svg></g></g><path id="gmres-__path-1" stroke="black" stroke-width="2" fill="none" d="M 257.4 87.8 L 242.2 95.4 L 249.8 110.6"/><g id="gmres-__label-2" transform="translate(231.0,39.0) translate(-7.8,-12.8)"><g id="gmres-__g-2"><svg xmlns:xlink="http://www.w3.org/1999/xlink" style="vertical-align: -0.200px" width="7.768px" height="12.760px" role="img" focusable="false" viewBox="0 -694 429 705" x="0.0" y="0.0"><defs><path id="gmres-MJX-3-TEX-I-1D44F" d="M73 647Q73 657 77 670T89 683Q90 683 161 688T234 694Q246 694 246 685T212 542Q204 508 195 472T180 418L176 399Q176 396 182 402Q231 442 283 442Q345 442 383 396T422 280Q422 169 343 79T173 -11Q123 -11 82 27T40 150V159Q40 180 48 217T97 414Q147 611 147 623T109 637Q104 637 101 637H96Q86 637 83 637T76 640T73 647ZM336 325V331Q336 405 275 405Q258 405 240 397T207 376T181 352T163 330L157 322L136 236Q114 150 114 114Q114 66 138 42Q154 26 178 26Q211 26 245 58Q270 81 285 114T318 219Q336 291 336 325Z"/></defs><g stroke="currentColor" fill="currentColor" stroke-width="0" transform="scale(1,-1)"><g data-mml-node="math"><g data-mml-node="mi" data-semantic-type="identifier" data-semantic-role="latinletter" data-semantic-font="italic" data-semantic-annotation="clearspeak:simple" data-semantic-id="0" data-semantic-speech="b"><use data-c="1D44F" xlink:href="#gmres-MJX-3-TEX-I-1D44F"/></g></g></g></svg></g></g></svg>