<svg xmlns="http://www.w3.org/2000/svg" id="group_transforms_3-figure" width="310" height="310" viewBox="0 0 310 310"><defs><clipPath id="group_transforms_3-__clipPath-0"><rect x="5.0" y="5.0" width="300.0" height="300.0"/></clipPath><clipPath id="group_transforms_3-__clipPath-1"><rect x="5.0" y="5.0" width="300.0" height="300.0"/></clipPath></defs><g id="group_transforms_3-grid" stroke="#ccc" stroke-width="1"><line x1="5.0" y1="305.0" x2="5.0" y2="5.0"/><line x1="35.0" y1="305.0" x2="35.0" y2="5.0"/><line x1="65.0" y1="305.0" x2="65.0" y2="5.0"/><line x1="95.0" y1="305.0" x2="95.0" y2="5.0"/><line x1="125.0" y1="305.0" x2="125.0" y2="5.0"/><line x1="155.0" y1="305.0" x2="155.0" y2="5.0"/><line x1="185.0" y1="305.0" x2="185.0" y2="5.0"/><line x1="215.0" y1="305.0" x2="215.0" y2="5.0"/><line x1="245.0" y1="305.0" x2="245.0" y2="5.0"/><line x1="275.0" y1="305.0" x2="275.0" y2="5.0"/><line x1="305.0" y1="305.0" x2="305.0" y2="5.0"/><line x1="5.0" y1="305.0" x2="305.0" y2="305.0"/><line x1="5.0" y1="275.0" x2="305.0" y2="275.0"/><line x1="5.0" y1="245.0" x2="305.0" y2="245.0"/><line x1="5.0" y1="215.0" x2="305.0" y2="215.0"/><line x1="5.0" y1="185.0" x2="305.0" y2="185.0"/><line x1="5.0" y1="155.0" x2="305.0" y2="155.0"/><line x1="5.0" y1="125.0" x2="305.0" y2="125.0"/><line x1="5.0" y1="95.0" x2="305.0" y2="95.0"/><line x1="5.0" y1="65.0" x2="305.0" y2="65.0"/><line x1="5.0" y1="35.0" x2="305.0" y2="35.0"/><line x1="5.0" y1="5.0" x2="305.0" y2="5.0"/></g><g id="group_transforms_3-__group-0" transform="translate(5.0,5.0) rotate(-135.0) scale(1,-1) rotate(135.0) translate(-5.0,-5.0)"><path id="group_transforms_3-__path-0" d="M 65.0 275.0 L 245.0 275.0 L 245.0 35.0 L 65.0 35.0 Z" stroke="black" stroke-width="2" fill="none"/><g id="group_transforms_3-__g-0"><circle cx="65.0" cy="275.0" r="4" stroke="black" stroke-width="2" fill="red"/><g id="group_transforms_3-__label-0" transform="translate(70.0,270.0) translate(0.0,-13.0)"><g id="group_transforms_3-__g-5"><svg xmlns:xlink="http://www.w3.org/1999/xlink" style="vertical-align: 0.000px" width="13.576px" height="12.960px" role="img" focusable="false" viewBox="0 -716 750 716" x="0.0" y="0.0"><defs><path id="group_transforms_3-MJX-1-TEX-I-1D434" d="M208 74Q208 50 254 46Q272 46 272 35Q272 34 270 22Q267 8 264 4T251 0Q249 0 239 0T205 1T141 2Q70 2 50 0H42Q35 7 35 11Q37 38 48 46H62Q132 49 164 96Q170 102 345 401T523 704Q530 716 547 716H555H572Q578 707 578 706L606 383Q634 60 636 57Q641 46 701 46Q726 46 726 36Q726 34 723 22Q720 7 718 4T704 0Q701 0 690 0T651 1T578 2Q484 2 455 0H443Q437 6 437 9T439 27Q443 40 445 43L449 46H469Q523 49 533 63L521 213H283L249 155Q208 86 208 74ZM516 260Q516 271 504 416T490 562L463 519Q447 492 400 412L310 260L413 259Q516 259 516 260Z"/></defs><g stroke="currentColor" fill="currentColor" stroke-width="0" transform="scale(1,-1)"><g data-mml-node="math"><g data-mml-node="mi" data-semantic-type="identifier" data-semantic-role="latinletter" data-semantic-font="italic" data-semantic-annotation="clearspeak:simple" data-semantic-id="0" data-semantic-speech="upper A"><use data-c="1D434" xlink:href="#group_transforms_3-MJX-1-TEX-I-1D434"/></g></g></g></svg></g></g></g><g id="group_transforms_3-__g-1"><circle cx="245.0" cy="275.0" r="4" stroke="black" stroke-width="2" fill="blue"/><g id="group_transforms_3-__label-1" transform="translate(240.0,270.0) translate(-13.7,-12.4)"><g id="group_transforms_3-__g-6"><svg xmlns:xlink="http://www.w3.org/1999/xlink" style="vertical-align: 0.000px" width="13.736px" height="12.360px" role="img" focusable="false" viewBox="0 -683 759 683" x="0.0" y="0.0"><defs><path id="group_transforms_3-MJX-2-TEX-I-1D435" d="M231 637Q204 637 199 638T194 649Q194 676 205 682Q206 683 335 683Q594 683 608 681Q671 671 713 636T756 544Q756 480 698 429T565 360L555 357Q619 348 660 311T702 219Q702 146 630 78T453 1Q446 0 242 0Q42 0 39 2Q35 5 35 10Q35 17 37 24Q42 43 47 45Q51 46 62 46H68Q95 46 128 49Q142 52 147 61Q150 65 219 339T288 628Q288 635 231 637ZM649 544Q649 574 634 600T585 634Q578 636 493 637Q473 637 451 637T416 636H403Q388 635 384 626Q382 622 352 506Q352 503 351 500L320 374H401Q482 374 494 376Q554 386 601 434T649 544ZM595 229Q595 273 572 302T512 336Q506 337 429 337Q311 337 310 336Q310 334 293 263T258 122L240 52Q240 48 252 48T333 46Q422 46 429 47Q491 54 543 105T595 229Z"/></defs><g stroke="currentColor" fill="currentColor" stroke-width="0" transform="scale(1,-1)"><g data-mml-node="math"><g data-mml-node="mi" data-semantic-type="identifier" data-semantic-role="latinletter" data-semantic-font="italic" data-semantic-annotation="clearspeak:simple" data-semantic-id="0" data-semantic-speech="upper B"><use data-c="1D435" xlink:href="#group_transforms_3-MJX-2-TEX-I-1D435"/></g></g></g></svg></g></g></g><g id="group_transforms_3-__g-2"><circle cx="245.0" cy="35.0" r="4" stroke="black" stroke-width="2" fill="green"/><g id="group_transforms_3-__label-2" transform="translate(240.0,40.0) translate(-13.8,-0.0)"><g id="group_transforms_3-__g-7"><svg xmlns:xlink="http://www.w3.org/1999/xlink" style="vertical-align: -0.400px" width="13.752px" height="13.160px" role="img" focusable="false" viewBox="0 -705 760 727" x="0.0" y="0.0"><defs><path id="group_transforms_3-MJX-3-TEX-I-1D436" d="M50 252Q50 367 117 473T286 641T490 704Q580 704 633 653Q642 643 648 636T656 626L657 623Q660 623 684 649Q691 655 699 663T715 679T725 690L740 705H746Q760 705 760 698Q760 694 728 561Q692 422 692 421Q690 416 687 415T669 413H653Q647 419 647 422Q647 423 648 429T650 449T651 481Q651 552 619 605T510 659Q484 659 454 652T382 628T299 572T226 479Q194 422 175 346T156 222Q156 108 232 58Q280 24 350 24Q441 24 512 92T606 240Q610 253 612 255T628 257Q648 257 648 248Q648 243 647 239Q618 132 523 55T319 -22Q206 -22 128 53T50 252Z"/></defs><g stroke="currentColor" fill="currentColor" stroke-width="0" transform="scale(1,-1)"><g data-mml-node="math"><g data-mml-node="mi" data-semantic-type="identifier" data-semantic-role="latinletter" data-semantic-font="italic" data-semantic-annotation="clearspeak:simple" data-semantic-id="0" data-semantic-speech="upper C"><use data-c="1D436" xlink:href="#group_transforms_3-MJX-3-TEX-I-1D436"/></g></g></g></svg></g></g></g><g id="group_transforms_3-__g-3"><circle cx="65.0" cy="35.0" r="4" stroke="black" stroke-width="2" fill="orange"/><g id="group_transforms_3-__label-3" transform="translate(70.0,40.0) translate(0.0,-0.0)"><g id="group_transforms_3-__g-8"><svg xmlns:xlink="http://www.w3.org/1999/xlink" style="vertical-align: 0.000px" width="14.984px" height="12.360px" role="img" focusable="false" viewBox="0 -683 828 683" x="0.0" y="0.0"><defs><path id="group_transforms_3-MJX-4-TEX-I-1D437" d="M287 628Q287 635 230 637Q207 637 200 638T193 647Q193 655 197 667T204 682Q206 683 403 683Q570 682 590 682T630 676Q702 659 752 597T803 431Q803 275 696 151T444 3L430 1L236 0H125H72Q48 0 41 2T33 11Q33 13 36 25Q40 41 44 43T67 46Q94 46 127 49Q141 52 146 61Q149 65 218 339T287 628ZM703 469Q703 507 692 537T666 584T629 613T590 629T555 636Q553 636 541 636T512 636T479 637H436Q392 637 386 627Q384 623 313 339T242 52Q242 48 253 48T330 47Q335 47 349 47T373 46Q499 46 581 128Q617 164 640 212T683 339T703 469Z"/></defs><g stroke="currentColor" fill="currentColor" stroke-width="0" transform="scale(1,-1)"><g data-mml-node="math"><g data-mml-node="mi" data-semantic-type="identifier" data-semantic-role="latinletter" data-semantic-font="italic" data-semantic-annotation="clearspeak:simple" data-semantic-id="0" data-semantic-speech="upper D"><use data-c="1D437" xlink:href="#group_transforms_3-MJX-4-TEX-I-1D437"/></g></g></g></svg></g></g></g></g><g id="group_transforms_3-__g-4"><circle cx="155.0" cy="155.0" r="4" stroke="black" stroke-width="2" fill="red"/><g id="group_transforms_3-__label-4" transform="translate(160.0,150.0) translate(0.0,-10.6)"><g id="group_transforms_3-__g-9"><text font-family="sans-serif" font-size="14" x="0.0" y="10.4">Center</text></g></g></g></svg>