<svg xmlns="http://www.w3.org/2000/svg" id="margins-figure" width="300" height="300" viewBox="0 0 300 300"><defs><clipPath id="margins-__clipPath-0"><rect x="0.0" y="0.0" width="300.0" height="300.0"/></clipPath><clipPath id="margins-__clipPath-1"><rect x="0.0" y="0.0" width="300.0" height="300.0"/></clipPath></defs><g id="margins-grid" stroke="#ccc" stroke-width="10"><line x1="0.0" y1="300.0" x2="0.0" y2="0.0"/><line x1="37.5" y1="300.0" x2="37.5" y2="0.0"/><line x1="75.0" y1="300.0" x2="75.0" y2="0.0"/><line x1="112.5" y1="300.0" x2="112.5" y2="0.0"/><line x1="150.0" y1="300.0" x2="150.0" y2="0.0"/><line x1="187.5" y1="300.0" x2="187.5" y2="0.0"/><line x1="225.0" y1="300.0" x2="225.0" y2="0.0"/><line x1="262.5" y1="300.0" x2="262.5" y2="0.0"/><line x1="300.0" y1="300.0" x2="300.0" y2="0.0"/><line x1="0.0" y1="300.0" x2="300.0" y2="300.0"/><line x1="0.0" y1="262.5" x2="300.0" y2="262.5"/><line x1="0.0" y1="225.0" x2="300.0" y2="225.0"/><line x1="0.0" y1="187.5" x2="300.0" y2="187.5"/><line x1="0.0" y1="150.0" x2="300.0" y2="150.0"/><line x1="0.0" y1="112.5" x2="300.0" y2="112.5"/><line x1="0.0" y1="75.0" x2="300.0" y2="75.0"/><line x1="0.0" y1="37.5" x2="300.0" y2="37.5"/><line x1="0.0" y1="0.0" x2="300.0" y2="0.0"/></g></svg>