<svg xmlns="http://www.w3.org/2000/svg" id="spline-domain-figure" width="260" height="260" viewBox="0 0 260 260"><defs><clipPath id="spline-domain-__clipPath-0"><rect x="5.0" y="5.0" width="250.0" height="250.0"/></clipPath><clipPath id="spline-domain-__clipPath-1"><rect x="5.0" y="5.0" width="250.0" height="250.0"/></clipPath><marker id="spline-domain-arrow-head-end-4_None_24_60-blue" markerWidth="18.0" markerHeight="16.0" markerUnits="userSpaceOnUse" orient="auto-start-reverse" refX="13.1" refY="8.0"><path d="M 18.0 8.0L 0.0 16.0L 3.5 10.0L 3.5 6.0L 0.0 0.0Z" fill="blue" stroke="none"/></marker><marker id="spline-domain-arrow-head-end-4_None_24_60-blue-outline" markerWidth="22.0" markerHeight="20.0" markerUnits="userSpaceOnUse" orient="auto-start-reverse" refX="15.1" refY="10.0"><path d="M 20.8 11.8 L 2.8 19.8 A 2 2 0 0 1 0.0 18.0 L 0.0 2.0 A 2 2 0 0 1 2.8 0.2 L 20.8 8.2 A 2 2 0 0 1 20.8 11.8 Z" fill="white" stroke="none"/></marker></defs><g id="spline-domain-grid" stroke="#ccc" stroke-width="1"><line x1="5.0" y1="255.0" x2="5.0" y2="5.0"/><line x1="30.0" y1="255.0" x2="30.0" y2="5.0"/><line x1="55.0" y1="255.0" x2="55.0" y2="5.0"/><line x1="80.0" y1="255.0" x2="80.0" y2="5.0"/><line x1="105.0" y1="255.0" x2="105.0" y2="5.0"/><line x1="130.0" y1="255.0" x2="130.0" y2="5.0"/><line x1="155.0" y1="255.0" x2="155.0" y2="5.0"/><line x1="180.0" y1="255.0" x2="180.0" y2="5.0"/><line x1="205.0" y1="255.0" x2="205.0" y2="5.0"/><line x1="230.0" y1="255.0" x2="230.0" y2="5.0"/><line x1="255.0" y1="255.0" x2="255.0" y2="5.0"/><line x1="5.0" y1="255.0" x2="255.0" y2="255.0"/><line x1="5.0" y1="230.0" x2="255.0" y2="230.0"/><line x1="5.0" y1="205.0" x2="255.0" y2="205.0"/><line x1="5.0" y1="180.0" x2="255.0" y2="180.0"/><line x1="5.0" y1="155.0" x2="255.0" y2="155.0"/><line x1="5.0" y1="130.0" x2="255.0" y2="130.0"/><line x1="5.0" y1="105.0" x2="255.0" y2="105.0"/><line x1="5.0" y1="80.0" x2="255.0" y2="80.0"/><line x1="5.0" y1="55.0" x2="255.0" y2="55.0"/><line x1="5.0" y1="30.0" x2="255.0" y2="30.0"/><line x1="5.0" y1="5.0" x2="255.0" y2="5.0"/></g><path id="spline-domain-__path-0" d="M 205.0 105.0 L 200.1 100.5 L 195.0 96.4 L 189.6 92.5 L 184.2 88.9 L 178.6 85.7 L 173.2 82.8 L 167.9 80.2 L 162.8 77.9 L 157.8 75.9 L 152.8 74.2 L 147.8 72.5 L 142.5 71.0 L 136.9 69.4 L 130.9 67.7 L 124.4 66.0 L 117.4 64.1 L 110.2 62.1 L 102.8 60.2 L 95.4 58.4 L 88.3 56.7 L 81.4 55.3 L 75.0 54.1 L 69.1 53.2 L 63.5 52.7 L 58.3 52.5 L 53.3 52.8 L 48.5 53.4 L 43.8 54.6 L 39.2 56.2 L 34.7 58.4 L 30.4 61.1 L 26.4 64.4 L 23.0 68.3 L 20.2 72.8 L 18.1 78.0 L 16.8 83.8 L 16.4 90.3 L 16.6 97.2 L 17.5 104.4 L 18.9 111.9 L 20.7 119.4 L 22.8 126.9 L 25.1 134.1 L 27.5 141.2 L 30.5 148.1 L 34.1 155.0 L 38.6 161.9 L 44.2 169.0 L 51.0 176.3 L 59.4 183.8 L 69.1 191.6 L 79.9 199.5 L 91.2 207.1 L 102.6 214.4 L 113.9 221.1 L 124.4 227.1 L 133.9 232.0 L 142.2 235.8 L 149.6 238.7 L 156.4 240.8 L 162.8 242.0 L 169.1 242.7 L 175.6 242.7 L 182.6 242.3 L 190.1 241.5 L 197.9 240.3 L 205.6 238.8 L 213.2 236.9 L 220.1 234.6 L 226.3 232.1 L 231.3 229.1 L 235.1 225.9 L 237.9 222.5 L 239.8 218.8 L 241.1 215.1 L 241.8 211.4 L 242.2 207.8 L 242.6 204.3 L 242.9 200.9 L 243.2 197.6 L 243.4 194.3 L 243.5 191.0 L 243.4 187.4 L 243.0 183.6 L 242.4 179.4 L 241.4 174.8 L 240.2 169.8 L 238.6 164.6 L 236.8 159.1 L 234.7 153.5 L 232.3 147.8 L 229.8 142.1 L 227.1 136.4 L 224.1 130.8 L 220.9 125.3 L 217.4 119.9 L 213.6 114.7 L 209.5 109.7 L 205.0 105.0 Z M 118.0 64.2 L 116.6 63.9 L 115.2 63.5 L 113.8 63.1 L 112.4 62.7 L 110.9 62.4 L 109.5 62.0 L 108.1 61.6 L 106.6 61.2 L 105.2 60.8" stroke="blue" stroke-width="4" fill="none" clip-path="url(#spline-domain-__clipPath-1)" marker-end="url(#spline-domain-arrow-head-end-4_None_24_60-blue)"/><path id="spline-domain-__path-1" d="M 42.5 55.0 L 40.5 55.7 L 38.5 56.5 L 36.6 57.4 L 34.7 58.4 L 32.8 59.5 L 31.0 60.7 L 29.2 62.0 L 27.5 63.4 L 25.9 64.9 L 24.4 66.5 L 23.0 68.3 L 21.7 70.2 L 20.5 72.1 L 19.5 74.2 L 18.6 76.4 L 17.8 78.8 L 17.2 81.2 L 16.8 83.8 L 16.5 86.5 L 16.4 89.3 L 16.4 92.2 L 16.5 95.2 L 16.7 98.2 L 17.1 101.3 L 17.6 104.4 L 18.1 107.6 L 18.7 110.8 L 19.4 114.0 L 20.2 117.3 L 21.0 120.5 L 21.9 123.7 L 22.8 126.9 L 23.8 130.0 L 24.7 133.1 L 25.7 136.1 L 26.8 139.2 L 27.9 142.2 L 29.2 145.1 L 30.5 148.1 L 31.9 151.0 L 33.5 154.0 L 35.3 157.0 L 37.2 159.9 L 39.3 162.9 L 41.6 165.9 L 44.2 169.0 L 46.9 172.1 L 49.9 175.2 L 53.2 178.4 L 56.8 181.6 L 60.7 184.9 L 64.8 188.3 L 69.1 191.6 L 73.6 195.0 L 78.3 198.4 L 83.0 201.7 L 87.9 205.0 L 92.8 208.2 L 97.7 211.4 L 102.6 214.4 L 107.5 217.4 L 112.3 220.2 L 117.0 222.9 L 121.5 225.5 L 125.9 227.8 L 130.0 230.0 L 133.9 232.0 L 137.6 233.8 L 141.1 235.4 L 144.4 236.8 L 147.6 238.0 L 150.6 239.1 L 153.5 240.0 L 156.4 240.8 L 159.1 241.4 L 161.9 241.9 L 164.6 242.3 L 167.3 242.5 L 170.0 242.7 L 172.8 242.8 L 175.6 242.7 L 178.5 242.6 L 181.5 242.4 L 184.7 242.1 L 187.9 241.8 L 191.2 241.4 L 194.5 240.9 L 197.9 240.3 L 201.2 239.7 L 204.5 239.0 L 207.8 238.3 L 211.1 237.5 L 214.2 236.6 L 217.2 235.7 L 220.1 234.6 L 222.9 233.6 L 225.5 232.4 L 227.8 231.3 L 230.0 230.0" stroke="red" stroke-width="2" fill="none" clip-path="url(#spline-domain-__clipPath-1)"/></svg>