<svg xmlns="http://www.w3.org/2000/svg" id="tick-marks-figure" width="310" height="310" viewBox="0 0 310 310"><defs><clipPath id="tick-marks-__clipPath-0"><rect x="5.0" y="5.0" width="300.0" height="300.0"/></clipPath><clipPath id="tick-marks-__clipPath-1"><rect x="5.0" y="5.0" width="300.0" height="300.0"/></clipPath></defs><g id="tick-marks-axes" stroke="black" stroke-width="2"><line id="tick-marks-__line-0" x1="5.0" y1="245.0" x2="305.0" y2="245.0" stroke="black" stroke-width="2"/><line id="tick-marks-__line-1" x1="65.0" y1="305.0" x2="65.0" y2="5.0" stroke="black" stroke-width="2"/></g><g id="tick-marks-__label-0" transform="translate(301.0,241.0) translate(-10.4,-8.2)"><g id="tick-marks-__g-6"><svg xmlns:xlink="http://www.w3.org/1999/xlink" style="vertical-align: -0.200px" width="10.352px" height="8.200px" role="img" focusable="false" viewBox="0 -442 572 453" x="0.0" y="0.0"><defs><path id="tick-marks-MJX-1-TEX-I-1D465" d="M52 289Q59 331 106 386T222 442Q257 442 286 424T329 379Q371 442 430 442Q467 442 494 420T522 361Q522 332 508 314T481 292T458 288Q439 288 427 299T415 328Q415 374 465 391Q454 404 425 404Q412 404 406 402Q368 386 350 336Q290 115 290 78Q290 50 306 38T341 26Q378 26 414 59T463 140Q466 150 469 151T485 153H489Q504 153 504 145Q504 144 502 134Q486 77 440 33T333 -11Q263 -11 227 52Q186 -10 133 -10H127Q78 -10 57 16T35 71Q35 103 54 123T99 143Q142 143 142 101Q142 81 130 66T107 46T94 41L91 40Q91 39 97 36T113 29T132 26Q168 26 194 71Q203 87 217 139T245 247T261 313Q266 340 266 352Q266 380 251 392T217 404Q177 404 142 372T93 290Q91 281 88 280T72 278H58Q52 284 52 289Z"/></defs><g stroke="currentColor" fill="currentColor" stroke-width="0" transform="scale(1,-1)"><g data-mml-node="math"><g data-mml-node="mi" data-semantic-type="identifier" data-semantic-role="latinletter" data-semantic-font="italic" data-semantic-annotation="clearspeak:simple" data-semantic-id="0" data-semantic-speech="x"><use data-c="1D465" xlink:href="#tick-marks-MJX-1-TEX-I-1D465"/></g></g></g></svg></g></g><g id="tick-marks-__label-1" transform="translate(69.0,9.0) translate(0.0,-0.0)"><g id="tick-marks-__g-7"><svg xmlns:xlink="http://www.w3.org/1999/xlink" style="vertical-align: -3.712px" width="8.872px" height="11.712px" role="img" focusable="false" viewBox="0 -442 490 647" x="0.0" y="0.0"><defs><path id="tick-marks-MJX-2-TEX-I-1D466" d="M21 287Q21 301 36 335T84 406T158 442Q199 442 224 419T250 355Q248 336 247 334Q247 331 231 288T198 191T182 105Q182 62 196 45T238 27Q261 27 281 38T312 61T339 94Q339 95 344 114T358 173T377 247Q415 397 419 404Q432 431 462 431Q475 431 483 424T494 412T496 403Q496 390 447 193T391 -23Q363 -106 294 -155T156 -205Q111 -205 77 -183T43 -117Q43 -95 50 -80T69 -58T89 -48T106 -45Q150 -45 150 -87Q150 -107 138 -122T115 -142T102 -147L99 -148Q101 -153 118 -160T152 -167H160Q177 -167 186 -165Q219 -156 247 -127T290 -65T313 -9T321 21L315 17Q309 13 296 6T270 -6Q250 -11 231 -11Q185 -11 150 11T104 82Q103 89 103 113Q103 170 138 262T173 379Q173 380 173 381Q173 390 173 393T169 400T158 404H154Q131 404 112 385T82 344T65 302T57 280Q55 278 41 278H27Q21 284 21 287Z"/></defs><g stroke="currentColor" fill="currentColor" stroke-width="0" transform="scale(1,-1)"><g data-mml-node="math"><g data-mml-node="mi" data-semantic-type="identifier" data-semantic-role="latinletter" data-semantic-font="italic" data-semantic-annotation="clearspeak:simple" data-semantic-id="0" data-semantic-speech="y"><use data-c="1D466" xlink:href="#tick-marks-MJX-2-TEX-I-1D466"/></g></g></g></svg></g></g><g id="tick-marks-__g-0"><line id="tick-marks-__line-2" x1="125.0" y1="248.0" x2="125.0" y2="242.0" stroke-width="2" stroke="black"/><g id="tick-marks-__tick-mark-0" transform="translate(125.0,256.0) translate(-9.1,-0.0)"><g id="tick-marks-__g-8"><svg xmlns:xlink="http://www.w3.org/1999/xlink" style="vertical-align: -3.000px" width="18.256px" height="11.000px" role="img" focusable="false" viewBox="0 -442 1008.6 607.6" x="0.0" y="0.0"><defs><path id="tick-marks-MJX-3-TEX-I-1D465" d="M52 289Q59 331 106 386T222 442Q257 442 286 424T329 379Q371 442 430 442Q467 442 494 420T522 361Q522 332 508 314T481 292T458 288Q439 288 427 299T415 328Q415 374 465 391Q454 404 425 404Q412 404 406 402Q368 386 350 336Q290 115 290 78Q290 50 306 38T341 26Q378 26 414 59T463 140Q466 150 469 151T485 153H489Q504 153 504 145Q504 144 502 134Q486 77 440 33T333 -11Q263 -11 227 52Q186 -10 133 -10H127Q78 -10 57 16T35 71Q35 103 54 123T99 143Q142 143 142 101Q142 81 130 66T107 46T94 41L91 40Q91 39 97 36T113 29T132 26Q168 26 194 71Q203 87 217 139T245 247T261 313Q266 340 266 352Q266 380 251 392T217 404Q177 404 142 372T93 290Q91 281 88 280T72 278H58Q52 284 52 289Z"/><path id="tick-marks-MJX-3-TEX-N-30" d="M96 585Q152 666 249 666Q297 666 345 640T423 548Q460 465 460 320Q460 165 417 83Q397 41 362 16T301 -15T250 -22Q224 -22 198 -16T137 16T82 83Q39 165 39 320Q39 494 96 585ZM321 597Q291 629 250 629Q208 629 178 597Q153 571 145 525T137 333Q137 175 145 125T181 46Q209 16 250 16Q290 16 318 46Q347 76 354 130T362 333Q362 478 354 524T321 597Z"/></defs><g stroke="currentColor" fill="currentColor" stroke-width="0" transform="scale(1,-1)"><g data-mml-node="math"><g data-mml-node="msub" data-semantic-type="subscript" data-semantic-role="latinletter" data-semantic-id="2" data-semantic-children="0,1" data-semantic-speech="x 0"><g data-mml-node="mi" data-semantic-type="identifier" data-semantic-role="latinletter" data-semantic-font="italic" data-semantic-annotation="clearspeak:simple" data-semantic-id="0" data-semantic-parent="2" data-semantic-speech="x" data-semantic-prefix="Base"><use data-c="1D465" xlink:href="#tick-marks-MJX-3-TEX-I-1D465"/></g><g data-mml-node="mn" transform="translate(605,-150) scale(0.707)" data-semantic-type="number" data-semantic-role="integer" data-semantic-font="normal" data-semantic-annotation="clearspeak:simple" data-semantic-id="1" data-semantic-parent="2" data-semantic-speech="0" data-semantic-prefix="Subscript"><use data-c="30" xlink:href="#tick-marks-MJX-3-TEX-N-30"/></g></g></g></g></svg></g></g></g><g id="tick-marks-__g-1"><line id="tick-marks-__line-3" x1="215.0" y1="248.0" x2="215.0" y2="242.0" stroke-width="2" stroke="black"/><g id="tick-marks-__tick-mark-1" transform="translate(215.0,256.0) translate(-9.1,-0.0)"><g id="tick-marks-__g-9"><svg xmlns:xlink="http://www.w3.org/1999/xlink" style="vertical-align: -2.712px" width="18.256px" height="10.712px" role="img" focusable="false" viewBox="0 -442 1008.6 592" x="0.0" y="0.0"><defs><path id="tick-marks-MJX-4-TEX-I-1D465" d="M52 289Q59 331 106 386T222 442Q257 442 286 424T329 379Q371 442 430 442Q467 442 494 420T522 361Q522 332 508 314T481 292T458 288Q439 288 427 299T415 328Q415 374 465 391Q454 404 425 404Q412 404 406 402Q368 386 350 336Q290 115 290 78Q290 50 306 38T341 26Q378 26 414 59T463 140Q466 150 469 151T485 153H489Q504 153 504 145Q504 144 502 134Q486 77 440 33T333 -11Q263 -11 227 52Q186 -10 133 -10H127Q78 -10 57 16T35 71Q35 103 54 123T99 143Q142 143 142 101Q142 81 130 66T107 46T94 41L91 40Q91 39 97 36T113 29T132 26Q168 26 194 71Q203 87 217 139T245 247T261 313Q266 340 266 352Q266 380 251 392T217 404Q177 404 142 372T93 290Q91 281 88 280T72 278H58Q52 284 52 289Z"/><path id="tick-marks-MJX-4-TEX-N-31" d="M213 578L200 573Q186 568 160 563T102 556H83V602H102Q149 604 189 617T245 641T273 663Q275 666 285 666Q294 666 302 660V361L303 61Q310 54 315 52T339 48T401 46H427V0H416Q395 3 257 3Q121 3 100 0H88V46H114Q136 46 152 46T177 47T193 50T201 52T207 57T213 61V578Z"/></defs><g stroke="currentColor" fill="currentColor" stroke-width="0" transform="scale(1,-1)"><g data-mml-node="math"><g data-mml-node="msub" data-semantic-type="subscript" data-semantic-role="latinletter" data-semantic-id="2" data-semantic-children="0,1" data-semantic-speech="x 1"><g data-mml-node="mi" data-semantic-type="identifier" data-semantic-role="latinletter" data-semantic-font="italic" data-semantic-annotation="clearspeak:simple" data-semantic-id="0" data-semantic-parent="2" data-semantic-speech="x" data-semantic-prefix="Base"><use data-c="1D465" xlink:href="#tick-marks-MJX-4-TEX-I-1D465"/></g><g data-mml-node="mn" transform="translate(605,-150) scale(0.707)" data-semantic-type="number" data-semantic-role="integer" data-semantic-font="normal" data-semantic-annotation="clearspeak:simple" data-semantic-id="1" data-semantic-parent="2" data-semantic-speech="1" data-semantic-prefix="Subscript"><use data-c="31" xlink:href="#tick-marks-MJX-4-TEX-N-31"/></g></g></g></g></svg></g></g></g><g id="tick-marks-__g-2"><line id="tick-marks-__line-4" x1="62.0" y1="98.8" x2="68.0" y2="98.8" stroke-width="2" stroke="black"/><g id="tick-marks-__tick-mark-2" transform="translate(54.0,98.8) translate(-16.8,-5.9)"><g id="tick-marks-__g-10"><svg xmlns:xlink="http://www.w3.org/1999/xlink" style="vertical-align: -3.712px" width="16.768px" height="11.712px" role="img" focusable="false" viewBox="0 -442 926.6 647" x="0.0" y="0.0"><defs><path id="tick-marks-MJX-5-TEX-I-1D466" d="M21 287Q21 301 36 335T84 406T158 442Q199 442 224 419T250 355Q248 336 247 334Q247 331 231 288T198 191T182 105Q182 62 196 45T238 27Q261 27 281 38T312 61T339 94Q339 95 344 114T358 173T377 247Q415 397 419 404Q432 431 462 431Q475 431 483 424T494 412T496 403Q496 390 447 193T391 -23Q363 -106 294 -155T156 -205Q111 -205 77 -183T43 -117Q43 -95 50 -80T69 -58T89 -48T106 -45Q150 -45 150 -87Q150 -107 138 -122T115 -142T102 -147L99 -148Q101 -153 118 -160T152 -167H160Q177 -167 186 -165Q219 -156 247 -127T290 -65T313 -9T321 21L315 17Q309 13 296 6T270 -6Q250 -11 231 -11Q185 -11 150 11T104 82Q103 89 103 113Q103 170 138 262T173 379Q173 380 173 381Q173 390 173 393T169 400T158 404H154Q131 404 112 385T82 344T65 302T57 280Q55 278 41 278H27Q21 284 21 287Z"/><path id="tick-marks-MJX-5-TEX-N-30" d="M96 585Q152 666 249 666Q297 666 345 640T423 548Q460 465 460 320Q460 165 417 83Q397 41 362 16T301 -15T250 -22Q224 -22 198 -16T137 16T82 83Q39 165 39 320Q39 494 96 585ZM321 597Q291 629 250 629Q208 629 178 597Q153 571 145 525T137 333Q137 175 145 125T181 46Q209 16 250 16Q290 16 318 46Q347 76 354 130T362 333Q362 478 354 524T321 597Z"/></defs><g stroke="currentColor" fill="currentColor" stroke-width="0" transform="scale(1,-1)"><g data-mml-node="math"><g data-mml-node="msub" data-semantic-type="subscript" data-semantic-role="latinletter" data-semantic-id="2" data-semantic-children="0,1" data-semantic-speech="y 0"><g data-mml-node="mi" data-semantic-type="identifier" data-semantic-role="latinletter" data-semantic-font="italic" data-semantic-annotation="clearspeak:simple" data-semantic-id="0" data-semantic-parent="2" data-semantic-speech="y" data-semantic-prefix="Base"><use data-c="1D466" xlink:href="#tick-marks-MJX-5-TEX-I-1D466"/></g><g data-mml-node="mn" transform="translate(523,-150) scale(0.707)" data-semantic-type="number" data-semantic-role="integer" data-semantic-font="normal" data-semantic-annotation="clearspeak:simple" data-semantic-id="1" data-semantic-parent="2" data-semantic-speech="0" data-semantic-prefix="Subscript"><use data-c="30" xlink:href="#tick-marks-MJX-5-TEX-N-30"/></g></g></g></g></svg></g></g></g><g id="tick-marks-__g-3"><line id="tick-marks-__line-5" x1="62.0" y1="200.0" x2="68.0" y2="200.0" stroke-width="2" stroke="black"/><g id="tick-marks-__tick-mark-3" transform="translate(54.0,200.0) translate(-16.8,-5.9)"><g id="tick-marks-__g-11"><svg xmlns:xlink="http://www.w3.org/1999/xlink" style="vertical-align: -3.712px" width="16.768px" height="11.712px" role="img" focusable="false" viewBox="0 -442 926.6 647" x="0.0" y="0.0"><defs><path id="tick-marks-MJX-6-TEX-I-1D466" d="M21 287Q21 301 36 335T84 406T158 442Q199 442 224 419T250 355Q248 336 247 334Q247 331 231 288T198 191T182 105Q182 62 196 45T238 27Q261 27 281 38T312 61T339 94Q339 95 344 114T358 173T377 247Q415 397 419 404Q432 431 462 431Q475 431 483 424T494 412T496 403Q496 390 447 193T391 -23Q363 -106 294 -155T156 -205Q111 -205 77 -183T43 -117Q43 -95 50 -80T69 -58T89 -48T106 -45Q150 -45 150 -87Q150 -107 138 -122T115 -142T102 -147L99 -148Q101 -153 118 -160T152 -167H160Q177 -167 186 -165Q219 -156 247 -127T290 -65T313 -9T321 21L315 17Q309 13 296 6T270 -6Q250 -11 231 -11Q185 -11 150 11T104 82Q103 89 103 113Q103 170 138 262T173 379Q173 380 173 381Q173 390 173 393T169 400T158 404H154Q131 404 112 385T82 344T65 302T57 280Q55 278 41 278H27Q21 284 21 287Z"/><path id="tick-marks-MJX-6-TEX-N-31" d="M213 578L200 573Q186 568 160 563T102 556H83V602H102Q149 604 189 617T245 641T273 663Q275 666 285 666Q294 666 302 660V361L303 61Q310 54 315 52T339 48T401 46H427V0H416Q395 3 257 3Q121 3 100 0H88V46H114Q136 46 152 46T177 47T193 50T201 52T207 57T213 61V578Z"/></defs><g stroke="currentColor" fill="currentColor" stroke-width="0" transform="scale(1,-1)"><g data-mml-node="math"><g data-mml-node="msub" data-semantic-type="subscript" data-semantic-role="latinletter" data-semantic-id="2" data-semantic-children="0,1" data-semantic-speech="y 1"><g data-mml-node="mi" data-semantic-type="identifier" data-semantic-role="latinletter" data-semantic-font="italic" data-semantic-annotation="clearspeak:simple" data-semantic-id="0" data-semantic-parent="2" data-semantic-speech="y" data-semantic-prefix="Base"><use data-c="1D466" xlink:href="#tick-marks-MJX-6-TEX-I-1D466"/></g><g data-mml-node="mn" transform="translate(523,-150) scale(0.707)" data-semantic-type="number" data-semantic-role="integer" data-semantic-font="normal" data-semantic-annotation="clearspeak:simple" data-semantic-id="1" data-semantic-parent="2" data-semantic-speech="1" data-semantic-prefix="Subscript"><use data-c="31" xlink:href="#tick-marks-MJX-6-TEX-N-31"/></g></g></g></g></svg></g></g></g><line id="tick-marks-__line-6" x1="41.7" y1="5.0" x2="305.0" y2="301.2" stroke="red" stroke-width="2" fill="none"/><path id="tick-marks-__path-0" stroke="blue" stroke-width="2" fill="none" d="M 5.0 68.8 L 8.0 68.0 L 11.0 67.4 L 14.0 66.8 L 17.0 66.3 L 20.0 65.9 L 23.0 65.6 L 26.0 65.3 L 29.0 65.2 L 32.0 65.0 L 35.0 65.0 L 38.0 65.0 L 41.0 65.2 L 44.0 65.3 L 47.0 65.6 L 50.0 65.9 L 53.0 66.3 L 56.0 66.8 L 59.0 67.4 L 62.0 68.0 L 65.0 68.8 L 68.0 69.5 L 71.0 70.4 L 74.0 71.3 L 77.0 72.3 L 80.0 73.4 L 83.0 74.6 L 86.0 75.8 L 89.0 77.2 L 92.0 78.5 L 95.0 80.0 L 98.0 81.5 L 101.0 83.2 L 104.0 84.8 L 107.0 86.6 L 110.0 88.4 L 113.0 90.3 L 116.0 92.3 L 119.0 94.4 L 122.0 96.5 L 125.0 98.8 L 128.0 101.0 L 131.0 103.4 L 134.0 105.8 L 137.0 108.4 L 140.0 110.9 L 143.0 113.6 L 146.0 116.3 L 149.0 119.2 L 152.0 122.0 L 155.0 125.0 L 158.0 128.0 L 161.0 131.2 L 164.0 134.3 L 167.0 137.6 L 170.0 140.9 L 173.0 144.4 L 176.0 147.8 L 179.0 151.4 L 182.0 155.0 L 185.0 158.8 L 188.0 162.5 L 191.0 166.4 L 194.0 170.3 L 197.0 174.4 L 200.0 178.4 L 203.0 182.6 L 206.0 186.8 L 209.0 191.2 L 212.0 195.5 L 215.0 200.0 L 218.0 204.5 L 221.0 209.2 L 224.0 213.8 L 227.0 218.6 L 230.0 223.4 L 233.0 228.4 L 236.0 233.3 L 239.0 238.4 L 242.0 243.5 L 245.0 248.8 L 248.0 254.0 L 251.0 259.4 L 254.0 264.8 L 257.0 270.4 L 260.0 275.9 L 263.0 281.6 L 266.0 287.3 L 269.0 293.2 L 272.0 299.0 L 275.0 305.0 L 278.0 311.0 L 281.0 317.2 L 284.0 323.3 L 287.0 329.6 L 290.0 335.9 L 293.0 342.4 L 296.0 348.8 L 299.0 355.4 L 302.0 362.0 L 305.0 368.8" clip-path="url(#tick-marks-__clipPath-1)"/><circle id="tick-marks-__circle-0" cx="125.0" cy="98.8" r="4" stroke="black" stroke-width="2" fill="red"/><circle id="tick-marks-__circle-1" cx="215.0" cy="200.0" r="4" stroke="black" stroke-width="2" fill="red"/><line id="tick-marks-__line-7" x1="257.0" y1="98.8" x2="257.0" y2="200.0" stroke="black" stroke-width="2" fill="none"/><g id="tick-marks-__g-4"><line id="tick-marks-__line-8" x1="252.0" y1="98.8" x2="262.0" y2="98.8" stroke-width="2" stroke="black"/><g id="tick-marks-__tick-mark-4" transform="translate(269.0,98.8) translate(0.0,-5.9)"><g id="tick-marks-__g-12"><svg xmlns:xlink="http://www.w3.org/1999/xlink" style="vertical-align: -3.712px" width="16.768px" height="11.712px" role="img" focusable="false" viewBox="0 -442 926.6 647" x="0.0" y="0.0"><defs><path id="tick-marks-MJX-7-TEX-I-1D466" d="M21 287Q21 301 36 335T84 406T158 442Q199 442 224 419T250 355Q248 336 247 334Q247 331 231 288T198 191T182 105Q182 62 196 45T238 27Q261 27 281 38T312 61T339 94Q339 95 344 114T358 173T377 247Q415 397 419 404Q432 431 462 431Q475 431 483 424T494 412T496 403Q496 390 447 193T391 -23Q363 -106 294 -155T156 -205Q111 -205 77 -183T43 -117Q43 -95 50 -80T69 -58T89 -48T106 -45Q150 -45 150 -87Q150 -107 138 -122T115 -142T102 -147L99 -148Q101 -153 118 -160T152 -167H160Q177 -167 186 -165Q219 -156 247 -127T290 -65T313 -9T321 21L315 17Q309 13 296 6T270 -6Q250 -11 231 -11Q185 -11 150 11T104 82Q103 89 103 113Q103 170 138 262T173 379Q173 380 173 381Q173 390 173 393T169 400T158 404H154Q131 404 112 385T82 344T65 302T57 280Q55 278 41 278H27Q21 284 21 287Z"/><path id="tick-marks-MJX-7-TEX-N-30" d="M96 585Q152 666 249 666Q297 666 345 640T423 548Q460 465 460 320Q460 165 417 83Q397 41 362 16T301 -15T250 -22Q224 -22 198 -16T137 16T82 83Q39 165 39 320Q39 494 96 585ZM321 597Q291 629 250 629Q208 629 178 597Q153 571 145 525T137 333Q137 175 145 125T181 46Q209 16 250 16Q290 16 318 46Q347 76 354 130T362 333Q362 478 354 524T321 597Z"/></defs><g stroke="currentColor" fill="currentColor" stroke-width="0" transform="scale(1,-1)"><g data-mml-node="math"><g data-mml-node="msub" data-semantic-type="subscript" data-semantic-role="latinletter" data-semantic-id="2" data-semantic-children="0,1" data-semantic-speech="y 0"><g data-mml-node="mi" data-semantic-type="identifier" data-semantic-role="latinletter" data-semantic-font="italic" data-semantic-annotation="clearspeak:simple" data-semantic-id="0" data-semantic-parent="2" data-semantic-speech="y" data-semantic-prefix="Base"><use data-c="1D466" xlink:href="#tick-marks-MJX-7-TEX-I-1D466"/></g><g data-mml-node="mn" transform="translate(523,-150) scale(0.707)" data-semantic-type="number" data-semantic-role="integer" data-semantic-font="normal" data-semantic-annotation="clearspeak:simple" data-semantic-id="1" data-semantic-parent="2" data-semantic-speech="0" data-semantic-prefix="Subscript"><use data-c="30" xlink:href="#tick-marks-MJX-7-TEX-N-30"/></g></g></g></g></svg></g></g></g><g id="tick-marks-__g-5"><line id="tick-marks-__line-9" x1="252.0" y1="200.0" x2="262.0" y2="200.0" stroke-width="2" stroke="black"/><g id="tick-marks-__tick-mark-5" transform="translate(269.0,200.0) translate(0.0,-5.9)"><g id="tick-marks-__g-13"><svg xmlns:xlink="http://www.w3.org/1999/xlink" style="vertical-align: -3.712px" width="16.768px" height="11.712px" role="img" focusable="false" viewBox="0 -442 926.6 647" x="0.0" y="0.0"><defs><path id="tick-marks-MJX-8-TEX-I-1D466" d="M21 287Q21 301 36 335T84 406T158 442Q199 442 224 419T250 355Q248 336 247 334Q247 331 231 288T198 191T182 105Q182 62 196 45T238 27Q261 27 281 38T312 61T339 94Q339 95 344 114T358 173T377 247Q415 397 419 404Q432 431 462 431Q475 431 483 424T494 412T496 403Q496 390 447 193T391 -23Q363 -106 294 -155T156 -205Q111 -205 77 -183T43 -117Q43 -95 50 -80T69 -58T89 -48T106 -45Q150 -45 150 -87Q150 -107 138 -122T115 -142T102 -147L99 -148Q101 -153 118 -160T152 -167H160Q177 -167 186 -165Q219 -156 247 -127T290 -65T313 -9T321 21L315 17Q309 13 296 6T270 -6Q250 -11 231 -11Q185 -11 150 11T104 82Q103 89 103 113Q103 170 138 262T173 379Q173 380 173 381Q173 390 173 393T169 400T158 404H154Q131 404 112 385T82 344T65 302T57 280Q55 278 41 278H27Q21 284 21 287Z"/><path id="tick-marks-MJX-8-TEX-N-31" d="M213 578L200 573Q186 568 160 563T102 556H83V602H102Q149 604 189 617T245 641T273 663Q275 666 285 666Q294 666 302 660V361L303 61Q310 54 315 52T339 48T401 46H427V0H416Q395 3 257 3Q121 3 100 0H88V46H114Q136 46 152 46T177 47T193 50T201 52T207 57T213 61V578Z"/></defs><g stroke="currentColor" fill="currentColor" stroke-width="0" transform="scale(1,-1)"><g data-mml-node="math"><g data-mml-node="msub" data-semantic-type="subscript" data-semantic-role="latinletter" data-semantic-id="2" data-semantic-children="0,1" data-semantic-speech="y 1"><g data-mml-node="mi" data-semantic-type="identifier" data-semantic-role="latinletter" data-semantic-font="italic" data-semantic-annotation="clearspeak:simple" data-semantic-id="0" data-semantic-parent="2" data-semantic-speech="y" data-semantic-prefix="Base"><use data-c="1D466" xlink:href="#tick-marks-MJX-8-TEX-I-1D466"/></g><g data-mml-node="mn" transform="translate(523,-150) scale(0.707)" data-semantic-type="number" data-semantic-role="integer" data-semantic-font="normal" data-semantic-annotation="clearspeak:simple" data-semantic-id="1" data-semantic-parent="2" data-semantic-speech="1" data-semantic-prefix="Subscript"><use data-c="31" xlink:href="#tick-marks-MJX-8-TEX-N-31"/></g></g></g></g></svg></g></g></g></svg>