<svg xmlns="http://www.w3.org/2000/svg" id="axes-example-figure" width="310" height="310" viewBox="0 0 310 310"><defs><clipPath id="axes-example-__clipPath-0"><rect x="5.0" y="5.0" width="300.0" height="300.0"/></clipPath><clipPath id="axes-example-__clipPath-1"><rect x="5.0" y="5.0" width="300.0" height="300.0"/></clipPath><marker id="axes-example-arrow-head-end-2_None_24_60-black" markerWidth="9.0" markerHeight="8.0" markerUnits="userSpaceOnUse" orient="auto-start-reverse" refX="6.5" refY="4.0"><path d="M 9.0 4.0L 0.0 8.0L 1.7 5.0L 1.7 3.0L 0.0 0.0Z" fill="black" stroke="none"/></marker><marker id="axes-example-arrow-head-end-2_None_24_60-black-outline" markerWidth="13.0" markerHeight="12.0" markerUnits="userSpaceOnUse" orient="auto-start-reverse" refX="8.5" refY="6.0"><path d="M 11.8 7.8 L 2.8 11.8 A 2 2 0 0 1 0.0 10.0 L 0.0 2.0 A 2 2 0 0 1 2.8 0.2 L 11.8 4.2 A 2 2 0 0 1 11.8 7.8 Z" fill="white" stroke="none"/></marker></defs><g id="axes-example-axes" stroke="black" stroke-width="2"><line id="axes-example-__line-0" x1="5.0" y1="219.3" x2="305.0" y2="219.3" stroke="black" stroke-width="2" marker-end="url(#axes-example-arrow-head-end-2_None_24_60-black)"/><g id="axes-example-__g-0"><line id="axes-example-__line-1" x1="5.0" y1="222.3" x2="5.0" y2="216.3"/><line id="axes-example-__line-2" x1="47.9" y1="222.3" x2="47.9" y2="216.3"/><line id="axes-example-__line-3" x1="133.6" y1="222.3" x2="133.6" y2="216.3"/><line id="axes-example-__line-4" x1="176.4" y1="222.3" x2="176.4" y2="216.3"/><line id="axes-example-__line-5" x1="219.3" y1="222.3" x2="219.3" y2="216.3"/><line id="axes-example-__line-6" x1="262.1" y1="222.3" x2="262.1" y2="216.3"/><line id="axes-example-__line-7" x1="305.0" y1="222.3" x2="305.0" y2="216.3"/><line id="axes-example-__line-8" x1="5.0" y1="222.3" x2="5.0" y2="216.3"/><line id="axes-example-__line-9" x1="47.9" y1="222.3" x2="47.9" y2="216.3"/><line id="axes-example-__line-10" x1="133.6" y1="222.3" x2="133.6" y2="216.3"/><line id="axes-example-__line-11" x1="176.4" y1="222.3" x2="176.4" y2="216.3"/><line id="axes-example-__line-12" x1="219.3" y1="222.3" x2="219.3" y2="216.3"/><line id="axes-example-__line-13" x1="262.1" y1="222.3" x2="262.1" y2="216.3"/><line id="axes-example-__line-14" x1="305.0" y1="222.3" x2="305.0" y2="216.3"/></g><line id="axes-example-__line-15" x1="90.7" y1="305.0" x2="90.7" y2="5.0" stroke="black" stroke-width="2" marker-end="url(#axes-example-arrow-head-end-2_None_24_60-black)"/><g><line id="axes-example-__line-16" x1="87.7" y1="133.6" x2="93.7" y2="133.6"/><line id="axes-example-__line-17" x1="87.7" y1="47.9" x2="93.7" y2="47.9"/></g></g><g id="axes-example-__label-0" transform="translate(299.0,213.3) translate(-11.6,-8.2)"><g id="axes-example-__g-1"><svg xmlns:xlink="http://www.w3.org/1999/xlink" style="vertical-align: -0.200px" width="11.584px" height="8.200px" role="img" focusable="false" viewBox="0 -442 640 453" x="0.0" y="0.0"><defs><path id="axes-example-MJX-1-NCM-I-1D6FC" d="M310 442C241 442 179 412 124 353C69 294 41 229 41 159C41 61 107-11 205-11C274-11 342 16 410 69C425 16 456-11 502-11C538-11 589 27 589 63C589 72 584 76 573 76C566 76 560 72 557 64C549 43 528 18 505 18C488 18 479 50 479 115C479 129 482 140 488 147C515 180 539 218 558 260C583 314 598 354 602 380L602 384C599 391 593 394 586 394C581 393 575 385 568 371C547 299 518 237 479 186L479 236C479 352 421 442 310 442M403 211C403 152 404 116 405 103C340 46 274 18 207 18C150 18 122 53 122 122C122 180 155 288 178 324C216 383 260 413 309 413C340 413 361 401 374 377C381 365 386 353 391 342C399 319 403 258 403 211Z"/></defs><g stroke="currentColor" fill="currentColor" stroke-width="0" transform="scale(1,-1)"><g data-mml-node="math"><g data-mml-node="mi" data-semantic-type="identifier" data-semantic-role="greekletter" data-semantic-font="italic" data-semantic-annotation="clearspeak:simple;nemeth:number;depth:1" data-semantic-id="0" data-semantic-attributes="latex:\alpha" data-semantic-speech="alpha"><use data-c="1D6FC" xlink:href="#axes-example-MJX-1-NCM-I-1D6FC"/></g></g></g></svg></g></g><g id="axes-example-__label-1" transform="translate(96.7,11.0) translate(0.0,-0.0)"><g id="axes-example-__g-2"><svg xmlns:xlink="http://www.w3.org/1999/xlink" style="vertical-align: -4.488px" width="34.296px" height="18.024px" role="img" focusable="false" viewBox="0 -748 1895 996" x="0.0" y="0.0"><defs><path id="axes-example-MJX-2-NCM-I-1D454" d="M15-141C15-184 60-205 150-205C197-205 241-193 280-170C324-144 351-109 362-66L471 373C473 383 474 389 474 392C474 412 463 422 442 422C420 422 406 410 399 387C377 424 347 442 310 442C246 442 189 410 140 346C95 286 72 223 72 158C72 71 123-3 207-3C246-3 282 14 315 47L285-71C256-140 211-175 148-175C122-175 100-173 82-169C103-158 113-141 113-118C113-93 99-80 72-80C40-80 15-109 15-141M356 392C376 371 386 351 386 331C386 330 385 325 383 318L336 129C330 106 313 82 286 60C259 38 233 27 210 27C170 27 150 56 150 114C150 169 184 291 204 327C235 384 270 412 311 412C329 412 344 405 356 392Z"/><path id="axes-example-MJX-2-NCM-N-2061" d=""/><path id="axes-example-MJX-2-NCM-N-28" d="M318-248C327-248 332-243 332-234C332-231 330-227 327-223C275-183 233-117 202-26C175 53 161 131 161 208L161 292C161 369 175 447 202 526C233 617 275 683 327 723C330 726 332 730 332 734C332 743 327 748 318 748C317 748 314 747 311 745C251 699 201 631 160 540C121 453 101 371 101 292L101 208C101 129 121 47 160-40C201-131 251-199 311-245C314-247 317-248 318-248Z"/><path id="axes-example-MJX-2-NCM-I-1D6FC" d="M310 442C241 442 179 412 124 353C69 294 41 229 41 159C41 61 107-11 205-11C274-11 342 16 410 69C425 16 456-11 502-11C538-11 589 27 589 63C589 72 584 76 573 76C566 76 560 72 557 64C549 43 528 18 505 18C488 18 479 50 479 115C479 129 482 140 488 147C515 180 539 218 558 260C583 314 598 354 602 380L602 384C599 391 593 394 586 394C581 393 575 385 568 371C547 299 518 237 479 186L479 236C479 352 421 442 310 442M403 211C403 152 404 116 405 103C340 46 274 18 207 18C150 18 122 53 122 122C122 180 155 288 178 324C216 383 260 413 309 413C340 413 361 401 374 377C381 365 386 353 391 342C399 319 403 258 403 211Z"/><path id="axes-example-MJX-2-NCM-N-29" d="M78-245C138-199 188-131 229-40C268 47 288 129 288 208L288 292C288 371 268 453 229 540C188 631 138 699 78 745C75 747 72 748 71 748C62 748 57 743 57 734C57 730 59 726 62 723C114 683 156 617 187 526C214 447 228 369 228 292L228 208C228 131 214 53 187-26C156-117 114-183 62-223C59-227 57-231 57-234C57-243 62-248 71-248C72-248 75-247 78-245Z"/></defs><g stroke="currentColor" fill="currentColor" stroke-width="0" transform="scale(1,-1)"><g data-mml-node="math" data-semantic-type="appl" data-semantic-role="simple function" data-semantic-annotation="clearspeak:simple;depth:1" data-semantic-id="6" data-semantic-children="0,4" data-semantic-content="5,0" data-semantic-attributes="latex:g(\alpha)" data-semantic-speech="g left parenthesis alpha right parenthesis"><g data-mml-node="mi" data-semantic-type="identifier" data-semantic-role="simple function" data-semantic-font="italic" data-semantic-annotation="clearspeak:simple;nemeth:number;depth:2" data-semantic-id="0" data-semantic-parent="6" data-semantic-attributes="latex:g" data-semantic-operator="appl" data-semantic-speech="g"><use data-c="1D454" xlink:href="#axes-example-MJX-2-NCM-I-1D454"/></g><g data-mml-node="mo" data-semantic-type="punctuation" data-semantic-role="application" data-semantic-annotation="nemeth:number;depth:2" data-semantic-id="5" data-semantic-parent="6" data-semantic-added="true" data-semantic-operator="appl" data-semantic-speech="of" transform="translate(477,0)"><use data-c="2061" xlink:href="#axes-example-MJX-2-NCM-N-2061"/></g><g data-mml-node="mrow" data-semantic-added="true" data-semantic-type="fenced" data-semantic-role="leftright" data-semantic-annotation="fences:paren;depth:2" data-semantic-id="4" data-semantic-children="2" data-semantic-content="1,3" data-semantic-parent="6" data-semantic-speech="left parenthesis alpha right parenthesis" transform="translate(477,0)"><g data-mml-node="mo" data-semantic-type="fence" data-semantic-role="open" data-semantic-annotation="depth:3" data-semantic-id="1" data-semantic-parent="4" data-semantic-attributes="latex:(" data-semantic-operator="fenced" data-semantic-speech="left parenthesis"><use data-c="28" xlink:href="#axes-example-MJX-2-NCM-N-28"/></g><g data-mml-node="mi" data-semantic-type="identifier" data-semantic-role="greekletter" data-semantic-font="italic" data-semantic-annotation="clearspeak:simple;depth:3" data-semantic-id="2" data-semantic-parent="4" data-semantic-attributes="latex:\alpha" data-semantic-speech="alpha" transform="translate(389,0)"><use data-c="1D6FC" xlink:href="#axes-example-MJX-2-NCM-I-1D6FC"/></g><g data-mml-node="mo" data-semantic-type="fence" data-semantic-role="close" data-semantic-annotation="depth:3" data-semantic-id="3" data-semantic-parent="4" data-semantic-attributes="latex:)" data-semantic-operator="fenced" data-semantic-speech="right parenthesis" transform="translate(1029,0)"><use data-c="29" xlink:href="#axes-example-MJX-2-NCM-N-29"/></g></g></g></g></svg></g></g><g id="axes-example-__label-2" transform="translate(5.0,230.3) translate(-7.5,-0.0)"><g id="axes-example-__g-3"><svg xmlns:xlink="http://www.w3.org/1999/xlink" style="vertical-align: 0.000px" width="15.080px" height="12.056px" role="img" focusable="false" viewBox="0 -666 833 666" x="0.0" y="0.0"><defs><path id="axes-example-MJX-3-NCM-N-2D" d="M11 187L276 187L276 245L11 245Z"/><path id="axes-example-MJX-3-NCM-N-32" d="M237 666C186 666 143 648 106 612C69 576 50 534 50 483C50 449 75 424 106 424C136 424 161 450 161 480C161 513 137 536 105 536C102 536 100 536 98 535C117 584 161 627 224 627C306 627 352 556 352 470C352 403 318 331 250 255L62 43C49 28 50 29 50 0L421 0L450 180L417 180C409 129 402 100 396 91C391 86 361 84 306 84L139 84L236 179C304 243 390 312 419 365C439 400 449 435 449 470C449 588 357 666 237 666Z"/></defs><g stroke="currentColor" fill="currentColor" stroke-width="0" transform="scale(1,-1)"><g data-mml-node="math"><g data-mml-node="mtext" data-semantic-type="text" data-semantic-role="unknown" data-semantic-font="normal" data-semantic-annotation="clearspeak:unit;nemeth:number;depth:1" data-semantic-id="0" data-semantic-attributes="latex:\text{-2}" data-semantic-speech="minus 2"><use data-c="2D" xlink:href="#axes-example-MJX-3-NCM-N-2D"/><use data-c="32" xlink:href="#axes-example-MJX-3-NCM-N-32" transform="translate(333,0)"/></g></g></g></svg></g></g><g id="axes-example-__label-3" transform="translate(47.9,230.3) translate(-7.5,-0.0)"><g id="axes-example-__g-4"><svg xmlns:xlink="http://www.w3.org/1999/xlink" style="vertical-align: 0.000px" width="15.080px" height="12.056px" role="img" focusable="false" viewBox="0 -666 833 666" x="0.0" y="0.0"><defs><path id="axes-example-MJX-4-NCM-N-2D" d="M11 187L276 187L276 245L11 245Z"/><path id="axes-example-MJX-4-NCM-N-31" d="M269 666C228 624 168 603 89 603L89 564C141 564 184 572 217 588L217 82C217 64 213 52 204 47C195 42 170 39 130 39L95 39L95 0C120 2 174 3 257 3C340 3 394 2 419 0L419 39L384 39C343 39 318 42 310 47C302 52 297 64 297 82L297 636C297 660 295 666 269 666Z"/></defs><g stroke="currentColor" fill="currentColor" stroke-width="0" transform="scale(1,-1)"><g data-mml-node="math"><g data-mml-node="mtext" data-semantic-type="text" data-semantic-role="unknown" data-semantic-font="normal" data-semantic-annotation="clearspeak:unit;nemeth:number;depth:1" data-semantic-id="0" data-semantic-attributes="latex:\text{-1}" data-semantic-speech="minus 1"><use data-c="2D" xlink:href="#axes-example-MJX-4-NCM-N-2D"/><use data-c="31" xlink:href="#axes-example-MJX-4-NCM-N-31" transform="translate(333,0)"/></g></g></g></svg></g></g><g id="axes-example-__label-4" transform="translate(133.6,230.3) translate(-4.5,-0.0)"><g id="axes-example-__g-5"><svg xmlns:xlink="http://www.w3.org/1999/xlink" style="vertical-align: 0.000px" width="9.048px" height="12.056px" role="img" focusable="false" viewBox="0 -666 500 666" x="0.0" y="0.0"><defs><path id="axes-example-MJX-5-NCM-N-31" d="M269 666C228 624 168 603 89 603L89 564C141 564 184 572 217 588L217 82C217 64 213 52 204 47C195 42 170 39 130 39L95 39L95 0C120 2 174 3 257 3C340 3 394 2 419 0L419 39L384 39C343 39 318 42 310 47C302 52 297 64 297 82L297 636C297 660 295 666 269 666Z"/></defs><g stroke="currentColor" fill="currentColor" stroke-width="0" transform="scale(1,-1)"><g data-mml-node="math"><g data-mml-node="mtext" data-semantic-type="number" data-semantic-role="integer" data-semantic-font="normal" data-semantic-annotation="general:text;clearspeak:simple;nemeth:number;depth:1" data-semantic-id="0" data-semantic-attributes="latex:\text{1}" data-semantic-speech="1"><use data-c="31" xlink:href="#axes-example-MJX-5-NCM-N-31"/></g></g></g></svg></g></g><g id="axes-example-__label-5" transform="translate(176.4,230.3) translate(-4.5,-0.0)"><g id="axes-example-__g-6"><svg xmlns:xlink="http://www.w3.org/1999/xlink" style="vertical-align: 0.000px" width="9.048px" height="12.056px" role="img" focusable="false" viewBox="0 -666 500 666" x="0.0" y="0.0"><defs><path id="axes-example-MJX-6-NCM-N-32" d="M237 666C186 666 143 648 106 612C69 576 50 534 50 483C50 449 75 424 106 424C136 424 161 450 161 480C161 513 137 536 105 536C102 536 100 536 98 535C117 584 161 627 224 627C306 627 352 556 352 470C352 403 318 331 250 255L62 43C49 28 50 29 50 0L421 0L450 180L417 180C409 129 402 100 396 91C391 86 361 84 306 84L139 84L236 179C304 243 390 312 419 365C439 400 449 435 449 470C449 588 357 666 237 666Z"/></defs><g stroke="currentColor" fill="currentColor" stroke-width="0" transform="scale(1,-1)"><g data-mml-node="math"><g data-mml-node="mtext" data-semantic-type="number" data-semantic-role="integer" data-semantic-font="normal" data-semantic-annotation="general:text;clearspeak:simple;nemeth:number;depth:1" data-semantic-id="0" data-semantic-attributes="latex:\text{2}" data-semantic-speech="2"><use data-c="32" xlink:href="#axes-example-MJX-6-NCM-N-32"/></g></g></g></svg></g></g><g id="axes-example-__label-6" transform="translate(219.3,230.3) translate(-4.5,-0.0)"><g id="axes-example-__g-7"><svg xmlns:xlink="http://www.w3.org/1999/xlink" style="vertical-align: -0.400px" width="9.048px" height="12.456px" role="img" focusable="false" viewBox="0 -666 500 688" x="0.0" y="0.0"><defs><path id="axes-example-MJX-7-NCM-N-33" d="M303 353C369 378 431 441 431 526C431 569 410 604 369 631C333 654 292 666 246 666C201 666 162 654 127 631C88 605 68 571 68 528C68 495 90 472 122 472C154 472 176 495 176 527C176 560 157 578 119 580C145 615 186 633 242 633C302 633 332 598 332 527C332 485 324 450 309 421C282 373 245 364 183 364C171 362 165 357 165 348C165 333 172 333 192 333L235 333C310 333 348 280 348 173C348 88 317 14 241 14C176 14 128 36 99 80C134 79 160 105 160 139C160 173 135 198 101 198C62 198 42 178 42 137C42 88 64 49 108 18C147-9 193-22 244-22C301-22 350-3 393 34C436 71 457 117 457 173C457 267 383 332 303 353Z"/></defs><g stroke="currentColor" fill="currentColor" stroke-width="0" transform="scale(1,-1)"><g data-mml-node="math"><g data-mml-node="mtext" data-semantic-type="number" data-semantic-role="integer" data-semantic-font="normal" data-semantic-annotation="general:text;clearspeak:simple;nemeth:number;depth:1" data-semantic-id="0" data-semantic-attributes="latex:\text{3}" data-semantic-speech="3"><use data-c="33" xlink:href="#axes-example-MJX-7-NCM-N-33"/></g></g></g></svg></g></g><g id="axes-example-__label-7" transform="translate(262.1,230.3) translate(-4.5,-0.0)"><g id="axes-example-__g-8"><svg xmlns:xlink="http://www.w3.org/1999/xlink" style="vertical-align: 0.000px" width="9.048px" height="12.256px" role="img" focusable="false" viewBox="0 -677 500 677" x="0.0" y="0.0"><defs><path id="axes-example-MJX-8-NCM-N-34" d="M353 677C344 677 336 672 330 663L28 199L28 163L289 163L289 81C289 63 285 51 278 46C271 41 252 39 219 39L194 39L194 0C223 2 269 3 331 3C393 3 439 2 468 0L468 39L443 39C410 39 391 41 384 46C377 51 373 63 373 81L373 163L471 163L471 202L373 202L373 660C373 670 366 677 353 677M295 553L295 202L67 202Z"/></defs><g stroke="currentColor" fill="currentColor" stroke-width="0" transform="scale(1,-1)"><g data-mml-node="math"><g data-mml-node="mtext" data-semantic-type="number" data-semantic-role="integer" data-semantic-font="normal" data-semantic-annotation="general:text;clearspeak:simple;nemeth:number;depth:1" data-semantic-id="0" data-semantic-attributes="latex:\text{4}" data-semantic-speech="4"><use data-c="34" xlink:href="#axes-example-MJX-8-NCM-N-34"/></g></g></g></svg></g></g><g id="axes-example-__label-8" transform="translate(305.0,230.3) translate(-4.5,-0.0)"><g id="axes-example-__g-9"><svg xmlns:xlink="http://www.w3.org/1999/xlink" style="vertical-align: -0.400px" width="9.048px" height="12.456px" role="img" focusable="false" viewBox="0 -666 500 688" x="0.0" y="0.0"><defs><path id="axes-example-MJX-9-NCM-N-35" d="M118 315C123 315 129 319 134 326C164 371 205 393 257 393C292 393 319 373 337 332C348 305 354 264 354 209C354 146 346 102 331 76C306 35 272 14 229 14C162 14 109 62 91 114C94 113 96 114 100 114C130 114 155 137 155 167C155 198 130 219 100 219C65 219 50 200 50 163C50 63 131-22 231-22C292-22 344 0 386 44C428 88 449 141 449 202C449 260 432 310 398 353C361 400 315 423 259 423C212 423 171 408 138 378L138 556C165 548 191 544 218 544C264 544 304 555 338 578C369 597 390 616 402 634C408 642 411 648 411 651C411 661 406 666 396 666C341 645 294 634 256 634C211 634 168 643 127 662C122 664 118 665 114 665C105 665 100 656 100 637L100 345C100 324 100 315 118 315Z"/></defs><g stroke="currentColor" fill="currentColor" stroke-width="0" transform="scale(1,-1)"><g data-mml-node="math"><g data-mml-node="mtext" data-semantic-type="number" data-semantic-role="integer" data-semantic-font="normal" data-semantic-annotation="general:text;clearspeak:simple;nemeth:number;depth:1" data-semantic-id="0" data-semantic-attributes="latex:\text{5}" data-semantic-speech="5"><use data-c="35" xlink:href="#axes-example-MJX-9-NCM-N-35"/></g></g></g></svg></g></g><g id="axes-example-__label-9" transform="translate(79.7,133.6) translate(-9.0,-6.0)"><g id="axes-example-__g-10"><svg xmlns:xlink="http://www.w3.org/1999/xlink" style="vertical-align: 0.000px" width="9.048px" height="12.056px" role="img" focusable="false" viewBox="0 -666 500 666" x="0.0" y="0.0"><defs><path id="axes-example-MJX-10-NCM-N-32" d="M237 666C186 666 143 648 106 612C69 576 50 534 50 483C50 449 75 424 106 424C136 424 161 450 161 480C161 513 137 536 105 536C102 536 100 536 98 535C117 584 161 627 224 627C306 627 352 556 352 470C352 403 318 331 250 255L62 43C49 28 50 29 50 0L421 0L450 180L417 180C409 129 402 100 396 91C391 86 361 84 306 84L139 84L236 179C304 243 390 312 419 365C439 400 449 435 449 470C449 588 357 666 237 666Z"/></defs><g stroke="currentColor" fill="currentColor" stroke-width="0" transform="scale(1,-1)"><g data-mml-node="math"><g data-mml-node="mtext" data-semantic-type="number" data-semantic-role="integer" data-semantic-font="normal" data-semantic-annotation="general:text;clearspeak:simple;nemeth:number;depth:1" data-semantic-id="0" data-semantic-attributes="latex:\text{2}" data-semantic-speech="2"><use data-c="32" xlink:href="#axes-example-MJX-10-NCM-N-32"/></g></g></g></svg></g></g><g id="axes-example-__label-10" transform="translate(79.7,47.9) translate(-9.0,-6.1)"><g id="axes-example-__g-11"><svg xmlns:xlink="http://www.w3.org/1999/xlink" style="vertical-align: 0.000px" width="9.048px" height="12.256px" role="img" focusable="false" viewBox="0 -677 500 677" x="0.0" y="0.0"><defs><path id="axes-example-MJX-11-NCM-N-34" d="M353 677C344 677 336 672 330 663L28 199L28 163L289 163L289 81C289 63 285 51 278 46C271 41 252 39 219 39L194 39L194 0C223 2 269 3 331 3C393 3 439 2 468 0L468 39L443 39C410 39 391 41 384 46C377 51 373 63 373 81L373 163L471 163L471 202L373 202L373 660C373 670 366 677 353 677M295 553L295 202L67 202Z"/></defs><g stroke="currentColor" fill="currentColor" stroke-width="0" transform="scale(1,-1)"><g data-mml-node="math"><g data-mml-node="mtext" data-semantic-type="number" data-semantic-role="integer" data-semantic-font="normal" data-semantic-annotation="general:text;clearspeak:simple;nemeth:number;depth:1" data-semantic-id="0" data-semantic-attributes="latex:\text{4}" data-semantic-speech="4"><use data-c="34" xlink:href="#axes-example-MJX-11-NCM-N-34"/></g></g></g></svg></g></g></svg>