<svg xmlns="http://www.w3.org/2000/svg" id="axes-figure" width="310" height="310" viewBox="0 0 310 310"><defs><clipPath id="axes-__clipPath-0"><rect x="5.0" y="5.0" width="300.0" height="300.0"/></clipPath><clipPath id="axes-__clipPath-1"><rect x="5.0" y="5.0" width="300.0" height="300.0"/></clipPath></defs><g id="axes-axes" stroke="black" stroke-width="2"><line id="axes-__line-0" x1="5.0" y1="219.3" x2="305.0" y2="219.3" stroke="black" stroke-width="2"/><g><line id="axes-__line-1" x1="176.4" y1="222.3" x2="176.4" y2="216.3"/><line id="axes-__line-2" x1="262.1" y1="222.3" x2="262.1" y2="216.3"/></g><line id="axes-__line-3" x1="90.7" y1="305.0" x2="90.7" y2="5.0" stroke="black" stroke-width="2"/><g><line id="axes-__line-4" x1="87.7" y1="133.6" x2="93.7" y2="133.6"/><line id="axes-__line-5" x1="87.7" y1="47.9" x2="93.7" y2="47.9"/></g></g><g id="axes-__label-0" transform="translate(176.4,230.3) translate(-4.5,-0.0)"><g id="axes-__g-0"><svg xmlns:xlink="http://www.w3.org/1999/xlink" style="vertical-align: 0.000px" width="9.048px" height="12.056px" role="img" focusable="false" viewBox="0 -666 500 666" x="0.0" y="0.0"><defs><path id="axes-MJX-1-NCM-N-32" d="M237 666C186 666 143 648 106 612C69 576 50 534 50 483C50 449 75 424 106 424C136 424 161 450 161 480C161 513 137 536 105 536C102 536 100 536 98 535C117 584 161 627 224 627C306 627 352 556 352 470C352 403 318 331 250 255L62 43C49 28 50 29 50 0L421 0L450 180L417 180C409 129 402 100 396 91C391 86 361 84 306 84L139 84L236 179C304 243 390 312 419 365C439 400 449 435 449 470C449 588 357 666 237 666Z"/></defs><g stroke="currentColor" fill="currentColor" stroke-width="0" transform="scale(1,-1)"><g data-mml-node="math"><g data-mml-node="mtext" data-semantic-type="number" data-semantic-role="integer" data-semantic-font="normal" data-semantic-annotation="general:text;clearspeak:simple;nemeth:number;depth:1" data-semantic-id="0" data-semantic-attributes="latex:\text{2}" data-semantic-speech="2"><use data-c="32" xlink:href="#axes-MJX-1-NCM-N-32"/></g></g></g></svg></g></g><g id="axes-__label-1" transform="translate(262.1,230.3) translate(-4.5,-0.0)"><g id="axes-__g-1"><svg xmlns:xlink="http://www.w3.org/1999/xlink" style="vertical-align: 0.000px" width="9.048px" height="12.256px" role="img" focusable="false" viewBox="0 -677 500 677" x="0.0" y="0.0"><defs><path id="axes-MJX-2-NCM-N-34" d="M353 677C344 677 336 672 330 663L28 199L28 163L289 163L289 81C289 63 285 51 278 46C271 41 252 39 219 39L194 39L194 0C223 2 269 3 331 3C393 3 439 2 468 0L468 39L443 39C410 39 391 41 384 46C377 51 373 63 373 81L373 163L471 163L471 202L373 202L373 660C373 670 366 677 353 677M295 553L295 202L67 202Z"/></defs><g stroke="currentColor" fill="currentColor" stroke-width="0" transform="scale(1,-1)"><g data-mml-node="math"><g data-mml-node="mtext" data-semantic-type="number" data-semantic-role="integer" data-semantic-font="normal" data-semantic-annotation="general:text;clearspeak:simple;nemeth:number;depth:1" data-semantic-id="0" data-semantic-attributes="latex:\text{4}" data-semantic-speech="4"><use data-c="34" xlink:href="#axes-MJX-2-NCM-N-34"/></g></g></g></svg></g></g><g id="axes-__label-2" transform="translate(79.7,133.6) translate(-9.0,-6.0)"><g id="axes-__g-2"><svg xmlns:xlink="http://www.w3.org/1999/xlink" style="vertical-align: 0.000px" width="9.048px" height="12.056px" role="img" focusable="false" viewBox="0 -666 500 666" x="0.0" y="0.0"><defs><path id="axes-MJX-3-NCM-N-32" d="M237 666C186 666 143 648 106 612C69 576 50 534 50 483C50 449 75 424 106 424C136 424 161 450 161 480C161 513 137 536 105 536C102 536 100 536 98 535C117 584 161 627 224 627C306 627 352 556 352 470C352 403 318 331 250 255L62 43C49 28 50 29 50 0L421 0L450 180L417 180C409 129 402 100 396 91C391 86 361 84 306 84L139 84L236 179C304 243 390 312 419 365C439 400 449 435 449 470C449 588 357 666 237 666Z"/></defs><g stroke="currentColor" fill="currentColor" stroke-width="0" transform="scale(1,-1)"><g data-mml-node="math"><g data-mml-node="mtext" data-semantic-type="number" data-semantic-role="integer" data-semantic-font="normal" data-semantic-annotation="general:text;clearspeak:simple;nemeth:number;depth:1" data-semantic-id="0" data-semantic-attributes="latex:\text{2}" data-semantic-speech="2"><use data-c="32" xlink:href="#axes-MJX-3-NCM-N-32"/></g></g></g></svg></g></g><g id="axes-__label-3" transform="translate(79.7,47.9) translate(-9.0,-6.1)"><g id="axes-__g-3"><svg xmlns:xlink="http://www.w3.org/1999/xlink" style="vertical-align: 0.000px" width="9.048px" height="12.256px" role="img" focusable="false" viewBox="0 -677 500 677" x="0.0" y="0.0"><defs><path id="axes-MJX-4-NCM-N-34" d="M353 677C344 677 336 672 330 663L28 199L28 163L289 163L289 81C289 63 285 51 278 46C271 41 252 39 219 39L194 39L194 0C223 2 269 3 331 3C393 3 439 2 468 0L468 39L443 39C410 39 391 41 384 46C377 51 373 63 373 81L373 163L471 163L471 202L373 202L373 660C373 670 366 677 353 677M295 553L295 202L67 202Z"/></defs><g stroke="currentColor" fill="currentColor" stroke-width="0" transform="scale(1,-1)"><g data-mml-node="math"><g data-mml-node="mtext" data-semantic-type="number" data-semantic-role="integer" data-semantic-font="normal" data-semantic-annotation="general:text;clearspeak:simple;nemeth:number;depth:1" data-semantic-id="0" data-semantic-attributes="latex:\text{4}" data-semantic-speech="4"><use data-c="34" xlink:href="#axes-MJX-4-NCM-N-34"/></g></g></g></svg></g></g></svg>