<svg xmlns="http://www.w3.org/2000/svg" id="iris_scatter-figure" width="435" height="335" viewBox="0 0 435 335"><defs><clipPath id="iris_scatter-__clipPath-0"><rect x="30.0" y="5.0" width="400.0" height="300.0"/></clipPath><clipPath id="iris_scatter-__clipPath-1"><rect x="30.0" y="5.0" width="400.0" height="300.0"/></clipPath></defs><g id="iris_scatter-grid-axes"><g id="iris_scatter-grid" stroke="#ccc" stroke-width="1"><line x1="30.0" y1="305.0" x2="30.0" y2="5.0"/><line x1="70.0" y1="305.0" x2="70.0" y2="5.0"/><line x1="110.0" y1="305.0" x2="110.0" y2="5.0"/><line x1="150.0" y1="305.0" x2="150.0" y2="5.0"/><line x1="190.0" y1="305.0" x2="190.0" y2="5.0"/><line x1="230.0" y1="305.0" x2="230.0" y2="5.0"/><line x1="270.0" y1="305.0" x2="270.0" y2="5.0"/><line x1="310.0" y1="305.0" x2="310.0" y2="5.0"/><line x1="350.0" y1="305.0" x2="350.0" y2="5.0"/><line x1="390.0" y1="305.0" x2="390.0" y2="5.0"/><line x1="430.0" y1="305.0" x2="430.0" y2="5.0"/><line x1="30.0" y1="305.0" x2="430.0" y2="305.0"/><line x1="30.0" y1="255.0" x2="430.0" y2="255.0"/><line x1="30.0" y1="205.0" x2="430.0" y2="205.0"/><line x1="30.0" y1="155.0" x2="430.0" y2="155.0"/><line x1="30.0" y1="105.0" x2="430.0" y2="105.0"/><line x1="30.0" y1="55.0" x2="430.0" y2="55.0"/><line x1="30.0" y1="5.0" x2="430.0" y2="5.0"/></g><g id="iris_scatter-axes" stroke="black" stroke-width="2"><line id="iris_scatter-__line-18" x1="40.0" y1="305.0" x2="430.0" y2="305.0" stroke="black" stroke-width="2"/><g><line id="iris_scatter-__line-19" x1="110.0" y1="308.0" x2="110.0" y2="302.0"/><line id="iris_scatter-__line-20" x1="190.0" y1="308.0" x2="190.0" y2="302.0"/><line id="iris_scatter-__line-21" x1="270.0" y1="308.0" x2="270.0" y2="302.0"/><line id="iris_scatter-__line-22" x1="350.0" y1="308.0" x2="350.0" y2="302.0"/></g><line id="iris_scatter-__line-23" x1="30.0" y1="305.0" x2="30.0" y2="5.0" stroke="black" stroke-width="2"/><g><line id="iris_scatter-__line-24" x1="27.0" y1="205.0" x2="33.0" y2="205.0"/><line id="iris_scatter-__line-25" x1="27.0" y1="105.0" x2="33.0" y2="105.0"/></g></g><g id="iris_scatter-__label-0" transform="translate(427.0,301.0) translate(-87.9,-13.5)"><g id="iris_scatter-__g-1"><text font-family="sans-serif" font-size="14" x="0.0" y="10.6">Sepal length</text></g></g><g id="iris_scatter-__label-1" transform="translate(34.0,9.0) translate(0.0,-0.0)"><g id="iris_scatter-__g-2"><text font-family="sans-serif" font-size="14" x="0.0" y="10.6">Petal width</text></g></g><g id="iris_scatter-__label-2" transform="translate(110.0,316.0) translate(-4.5,-0.0)"><g id="iris_scatter-__g-3"><svg xmlns:xlink="http://www.w3.org/1999/xlink" style="vertical-align: -0.400px" width="9.048px" height="12.456px" role="img" focusable="false" viewBox="0 -666 500 688" x="0.0" y="0.0"><defs><path id="iris_scatter-MJX-1-TEX-N-35" d="M164 157Q164 133 148 117T109 101H102Q148 22 224 22Q294 22 326 82Q345 115 345 210Q345 313 318 349Q292 382 260 382H254Q176 382 136 314Q132 307 129 306T114 304Q97 304 95 310Q93 314 93 485V614Q93 664 98 664Q100 666 102 666Q103 666 123 658T178 642T253 634Q324 634 389 662Q397 666 402 666Q410 666 410 648V635Q328 538 205 538Q174 538 149 544L139 546V374Q158 388 169 396T205 412T256 420Q337 420 393 355T449 201Q449 109 385 44T229 -22Q148 -22 99 32T50 154Q50 178 61 192T84 210T107 214Q132 214 148 197T164 157Z"/></defs><g stroke="currentColor" fill="currentColor" stroke-width="0" transform="scale(1,-1)"><g data-mml-node="math"><g data-mml-node="mtext" data-semantic-type="text" data-semantic-role="integer" data-semantic-font="normal" data-semantic-annotation="clearspeak:unit" data-semantic-id="0" data-semantic-speech="5"><use data-c="35" xlink:href="#iris_scatter-MJX-1-TEX-N-35"/></g></g></g></svg></g></g><g id="iris_scatter-__label-3" transform="translate(190.0,316.0) translate(-4.5,-0.0)"><g id="iris_scatter-__g-4"><svg xmlns:xlink="http://www.w3.org/1999/xlink" style="vertical-align: -0.400px" width="9.048px" height="12.456px" role="img" focusable="false" viewBox="0 -666 500 688" x="0.0" y="0.0"><defs><path id="iris_scatter-MJX-2-TEX-N-36" d="M42 313Q42 476 123 571T303 666Q372 666 402 630T432 550Q432 525 418 510T379 495Q356 495 341 509T326 548Q326 592 373 601Q351 623 311 626Q240 626 194 566Q147 500 147 364L148 360Q153 366 156 373Q197 433 263 433H267Q313 433 348 414Q372 400 396 374T435 317Q456 268 456 210V192Q456 169 451 149Q440 90 387 34T253 -22Q225 -22 199 -14T143 16T92 75T56 172T42 313ZM257 397Q227 397 205 380T171 335T154 278T148 216Q148 133 160 97T198 39Q222 21 251 21Q302 21 329 59Q342 77 347 104T352 209Q352 289 347 316T329 361Q302 397 257 397Z"/></defs><g stroke="currentColor" fill="currentColor" stroke-width="0" transform="scale(1,-1)"><g data-mml-node="math"><g data-mml-node="mtext" data-semantic-type="text" data-semantic-role="integer" data-semantic-font="normal" data-semantic-annotation="clearspeak:unit" data-semantic-id="0" data-semantic-speech="6"><use data-c="36" xlink:href="#iris_scatter-MJX-2-TEX-N-36"/></g></g></g></svg></g></g><g id="iris_scatter-__label-4" transform="translate(270.0,316.0) translate(-4.5,-0.0)"><g id="iris_scatter-__g-5"><svg xmlns:xlink="http://www.w3.org/1999/xlink" style="vertical-align: -0.400px" width="9.048px" height="12.632px" role="img" focusable="false" viewBox="0 -676 500 698" x="0.0" y="0.0"><defs><path id="iris_scatter-MJX-3-TEX-N-37" d="M55 458Q56 460 72 567L88 674Q88 676 108 676H128V672Q128 662 143 655T195 646T364 644H485V605L417 512Q408 500 387 472T360 435T339 403T319 367T305 330T292 284T284 230T278 162T275 80Q275 66 275 52T274 28V19Q270 2 255 -10T221 -22Q210 -22 200 -19T179 0T168 40Q168 198 265 368Q285 400 349 489L395 552H302Q128 552 119 546Q113 543 108 522T98 479L95 458V455H55V458Z"/></defs><g stroke="currentColor" fill="currentColor" stroke-width="0" transform="scale(1,-1)"><g data-mml-node="math"><g data-mml-node="mtext" data-semantic-type="text" data-semantic-role="integer" data-semantic-font="normal" data-semantic-annotation="clearspeak:unit" data-semantic-id="0" data-semantic-speech="7"><use data-c="37" xlink:href="#iris_scatter-MJX-3-TEX-N-37"/></g></g></g></svg></g></g><g id="iris_scatter-__label-5" transform="translate(350.0,316.0) translate(-4.5,-0.0)"><g id="iris_scatter-__g-6"><svg xmlns:xlink="http://www.w3.org/1999/xlink" style="vertical-align: -0.400px" width="9.048px" height="12.456px" role="img" focusable="false" viewBox="0 -666 500 688" x="0.0" y="0.0"><defs><path id="iris_scatter-MJX-4-TEX-N-38" d="M70 417T70 494T124 618T248 666Q319 666 374 624T429 515Q429 485 418 459T392 417T361 389T335 371T324 363L338 354Q352 344 366 334T382 323Q457 264 457 174Q457 95 399 37T249 -22Q159 -22 101 29T43 155Q43 263 172 335L154 348Q133 361 127 368Q70 417 70 494ZM286 386L292 390Q298 394 301 396T311 403T323 413T334 425T345 438T355 454T364 471T369 491T371 513Q371 556 342 586T275 624Q268 625 242 625Q201 625 165 599T128 534Q128 511 141 492T167 463T217 431Q224 426 228 424L286 386ZM250 21Q308 21 350 55T392 137Q392 154 387 169T375 194T353 216T330 234T301 253T274 270Q260 279 244 289T218 306L210 311Q204 311 181 294T133 239T107 157Q107 98 150 60T250 21Z"/></defs><g stroke="currentColor" fill="currentColor" stroke-width="0" transform="scale(1,-1)"><g data-mml-node="math"><g data-mml-node="mtext" data-semantic-type="text" data-semantic-role="integer" data-semantic-font="normal" data-semantic-annotation="clearspeak:unit" data-semantic-id="0" data-semantic-speech="8"><use data-c="38" xlink:href="#iris_scatter-MJX-4-TEX-N-38"/></g></g></g></svg></g></g><g id="iris_scatter-__label-6" transform="translate(19.0,205.0) translate(-9.0,-6.0)"><g id="iris_scatter-__g-7"><svg xmlns:xlink="http://www.w3.org/1999/xlink" style="vertical-align: 0.000px" width="9.048px" height="12.056px" role="img" focusable="false" viewBox="0 -666 500 666" x="0.0" y="0.0"><defs><path id="iris_scatter-MJX-5-TEX-N-31" d="M213 578L200 573Q186 568 160 563T102 556H83V602H102Q149 604 189 617T245 641T273 663Q275 666 285 666Q294 666 302 660V361L303 61Q310 54 315 52T339 48T401 46H427V0H416Q395 3 257 3Q121 3 100 0H88V46H114Q136 46 152 46T177 47T193 50T201 52T207 57T213 61V578Z"/></defs><g stroke="currentColor" fill="currentColor" stroke-width="0" transform="scale(1,-1)"><g data-mml-node="math"><g data-mml-node="mtext" data-semantic-type="text" data-semantic-role="integer" data-semantic-font="normal" data-semantic-annotation="clearspeak:unit" data-semantic-id="0" data-semantic-speech="1"><use data-c="31" xlink:href="#iris_scatter-MJX-5-TEX-N-31"/></g></g></g></svg></g></g><g id="iris_scatter-__label-7" transform="translate(19.0,105.0) translate(-9.0,-6.0)"><g id="iris_scatter-__g-8"><svg xmlns:xlink="http://www.w3.org/1999/xlink" style="vertical-align: 0.000px" width="9.048px" height="12.056px" role="img" focusable="false" viewBox="0 -666 500 666" x="0.0" y="0.0"><defs><path id="iris_scatter-MJX-6-TEX-N-32" d="M109 429Q82 429 66 447T50 491Q50 562 103 614T235 666Q326 666 387 610T449 465Q449 422 429 383T381 315T301 241Q265 210 201 149L142 93L218 92Q375 92 385 97Q392 99 409 186V189H449V186Q448 183 436 95T421 3V0H50V19V31Q50 38 56 46T86 81Q115 113 136 137Q145 147 170 174T204 211T233 244T261 278T284 308T305 340T320 369T333 401T340 431T343 464Q343 527 309 573T212 619Q179 619 154 602T119 569T109 550Q109 549 114 549Q132 549 151 535T170 489Q170 464 154 447T109 429Z"/></defs><g stroke="currentColor" fill="currentColor" stroke-width="0" transform="scale(1,-1)"><g data-mml-node="math"><g data-mml-node="mtext" data-semantic-type="text" data-semantic-role="integer" data-semantic-font="normal" data-semantic-annotation="clearspeak:unit" data-semantic-id="0" data-semantic-speech="2"><use data-c="32" xlink:href="#iris_scatter-MJX-6-TEX-N-32"/></g></g></g></svg></g></g></g><g id="iris_scatter-setosa"><circle id="iris_scatter-setosa-point-point_0" cx="118.0" cy="285.0" r="4" stroke="black" stroke-width="2" fill="blue"/><circle id="iris_scatter-setosa-point-point_1" cx="102.0" cy="285.0" r="4" stroke="black" stroke-width="2" fill="blue"/><circle id="iris_scatter-setosa-point-point_2" cx="86.0" cy="285.0" r="4" stroke="black" stroke-width="2" fill="blue"/><circle id="iris_scatter-setosa-point-point_3" cx="78.0" cy="285.0" r="4" stroke="black" stroke-width="2" fill="blue"/><circle id="iris_scatter-setosa-point-point_4" cx="110.0" cy="285.0" r="4" stroke="black" stroke-width="2" fill="blue"/><circle id="iris_scatter-setosa-point-point_5" cx="142.0" cy="265.0" r="4" stroke="black" stroke-width="2" fill="blue"/><circle id="iris_scatter-setosa-point-point_6" cx="78.0" cy="275.0" r="4" stroke="black" stroke-width="2" fill="blue"/><circle id="iris_scatter-setosa-point-point_7" cx="110.0" cy="285.0" r="4" stroke="black" stroke-width="2" fill="blue"/><circle id="iris_scatter-setosa-point-point_8" cx="62.0" cy="285.0" r="4" stroke="black" stroke-width="2" fill="blue"/><circle id="iris_scatter-setosa-point-point_9" cx="102.0" cy="295.0" r="4" stroke="black" stroke-width="2" fill="blue"/><circle id="iris_scatter-setosa-point-point_10" cx="142.0" cy="285.0" r="4" stroke="black" stroke-width="2" fill="blue"/><circle id="iris_scatter-setosa-point-point_11" cx="94.0" cy="285.0" r="4" stroke="black" stroke-width="2" fill="blue"/><circle id="iris_scatter-setosa-point-point_12" cx="94.0" cy="295.0" r="4" stroke="black" stroke-width="2" fill="blue"/><circle id="iris_scatter-setosa-point-point_13" cx="54.0" cy="295.0" r="4" stroke="black" stroke-width="2" fill="blue"/><circle id="iris_scatter-setosa-point-point_14" cx="174.0" cy="285.0" r="4" stroke="black" stroke-width="2" fill="blue"/><circle id="iris_scatter-setosa-point-point_15" cx="166.0" cy="265.0" r="4" stroke="black" stroke-width="2" fill="blue"/><circle id="iris_scatter-setosa-point-point_16" cx="142.0" cy="265.0" r="4" stroke="black" stroke-width="2" fill="blue"/><circle id="iris_scatter-setosa-point-point_17" cx="118.0" cy="275.0" r="4" stroke="black" stroke-width="2" fill="blue"/><circle id="iris_scatter-setosa-point-point_18" cx="166.0" cy="275.0" r="4" stroke="black" stroke-width="2" fill="blue"/><circle id="iris_scatter-setosa-point-point_19" cx="118.0" cy="275.0" r="4" stroke="black" stroke-width="2" fill="blue"/><circle id="iris_scatter-setosa-point-point_20" cx="142.0" cy="285.0" r="4" stroke="black" stroke-width="2" fill="blue"/><circle id="iris_scatter-setosa-point-point_21" cx="118.0" cy="265.0" r="4" stroke="black" stroke-width="2" fill="blue"/><circle id="iris_scatter-setosa-point-point_22" cx="78.0" cy="285.0" r="4" stroke="black" stroke-width="2" fill="blue"/><circle id="iris_scatter-setosa-point-point_23" cx="118.0" cy="255.0" r="4" stroke="black" stroke-width="2" fill="blue"/><circle id="iris_scatter-setosa-point-point_24" cx="94.0" cy="285.0" r="4" stroke="black" stroke-width="2" fill="blue"/><circle id="iris_scatter-setosa-point-point_25" cx="110.0" cy="285.0" r="4" stroke="black" stroke-width="2" fill="blue"/><circle id="iris_scatter-setosa-point-point_26" cx="110.0" cy="265.0" r="4" stroke="black" stroke-width="2" fill="blue"/><circle id="iris_scatter-setosa-point-point_27" cx="126.0" cy="285.0" r="4" stroke="black" stroke-width="2" fill="blue"/><circle id="iris_scatter-setosa-point-point_28" cx="126.0" cy="285.0" r="4" stroke="black" stroke-width="2" fill="blue"/><circle id="iris_scatter-setosa-point-point_29" cx="86.0" cy="285.0" r="4" stroke="black" stroke-width="2" fill="blue"/><circle id="iris_scatter-setosa-point-point_30" cx="94.0" cy="285.0" r="4" stroke="black" stroke-width="2" fill="blue"/><circle id="iris_scatter-setosa-point-point_31" cx="142.0" cy="265.0" r="4" stroke="black" stroke-width="2" fill="blue"/><circle id="iris_scatter-setosa-point-point_32" cx="126.0" cy="295.0" r="4" stroke="black" stroke-width="2" fill="blue"/><circle id="iris_scatter-setosa-point-point_33" cx="150.0" cy="285.0" r="4" stroke="black" stroke-width="2" fill="blue"/><circle id="iris_scatter-setosa-point-point_34" cx="102.0" cy="295.0" r="4" stroke="black" stroke-width="2" fill="blue"/><circle id="iris_scatter-setosa-point-point_35" cx="110.0" cy="285.0" r="4" stroke="black" stroke-width="2" fill="blue"/><circle id="iris_scatter-setosa-point-point_36" cx="150.0" cy="285.0" r="4" stroke="black" stroke-width="2" fill="blue"/><circle id="iris_scatter-setosa-point-point_37" cx="102.0" cy="295.0" r="4" stroke="black" stroke-width="2" fill="blue"/><circle id="iris_scatter-setosa-point-point_38" cx="62.0" cy="285.0" r="4" stroke="black" stroke-width="2" fill="blue"/><circle id="iris_scatter-setosa-point-point_39" cx="118.0" cy="285.0" r="4" stroke="black" stroke-width="2" fill="blue"/><circle id="iris_scatter-setosa-point-point_40" cx="110.0" cy="275.0" r="4" stroke="black" stroke-width="2" fill="blue"/><circle id="iris_scatter-setosa-point-point_41" cx="70.0" cy="275.0" r="4" stroke="black" stroke-width="2" fill="blue"/><circle id="iris_scatter-setosa-point-point_42" cx="62.0" cy="285.0" r="4" stroke="black" stroke-width="2" fill="blue"/><circle id="iris_scatter-setosa-point-point_43" cx="110.0" cy="245.0" r="4" stroke="black" stroke-width="2" fill="blue"/><circle id="iris_scatter-setosa-point-point_44" cx="118.0" cy="265.0" r="4" stroke="black" stroke-width="2" fill="blue"/><circle id="iris_scatter-setosa-point-point_45" cx="94.0" cy="275.0" r="4" stroke="black" stroke-width="2" fill="blue"/><circle id="iris_scatter-setosa-point-point_46" cx="118.0" cy="285.0" r="4" stroke="black" stroke-width="2" fill="blue"/><circle id="iris_scatter-setosa-point-point_47" cx="78.0" cy="285.0" r="4" stroke="black" stroke-width="2" fill="blue"/><circle id="iris_scatter-setosa-point-point_48" cx="134.0" cy="285.0" r="4" stroke="black" stroke-width="2" fill="blue"/><circle id="iris_scatter-setosa-point-point_49" cx="110.0" cy="285.0" r="4" stroke="black" stroke-width="2" fill="blue"/></g><g id="iris_scatter-versicolor"><rect id="iris_scatter-versicolor-point-point_0" x="266.0" y="161.0" width="8.0" height="8.0" stroke="black" stroke-width="2" fill="red"/><rect id="iris_scatter-versicolor-point-point_1" x="218.0" y="151.0" width="8.0" height="8.0" stroke="black" stroke-width="2" fill="red"/><rect id="iris_scatter-versicolor-point-point_2" x="258.0" y="151.0" width="8.0" height="8.0" stroke="black" stroke-width="2" fill="red"/><rect id="iris_scatter-versicolor-point-point_3" x="146.0" y="171.0" width="8.0" height="8.0" stroke="black" stroke-width="2" fill="red"/><rect id="iris_scatter-versicolor-point-point_4" x="226.0" y="151.0" width="8.0" height="8.0" stroke="black" stroke-width="2" fill="red"/><rect id="iris_scatter-versicolor-point-point_5" x="162.0" y="171.0" width="8.0" height="8.0" stroke="black" stroke-width="2" fill="red"/><rect id="iris_scatter-versicolor-point-point_6" x="210.0" y="141.0" width="8.0" height="8.0" stroke="black" stroke-width="2" fill="red"/><rect id="iris_scatter-versicolor-point-point_7" x="98.0" y="201.0" width="8.0" height="8.0" stroke="black" stroke-width="2" fill="red"/><rect id="iris_scatter-versicolor-point-point_8" x="234.0" y="171.0" width="8.0" height="8.0" stroke="black" stroke-width="2" fill="red"/><rect id="iris_scatter-versicolor-point-point_9" x="122.0" y="161.0" width="8.0" height="8.0" stroke="black" stroke-width="2" fill="red"/><rect id="iris_scatter-versicolor-point-point_10" x="106.0" y="201.0" width="8.0" height="8.0" stroke="black" stroke-width="2" fill="red"/><rect id="iris_scatter-versicolor-point-point_11" x="178.0" y="151.0" width="8.0" height="8.0" stroke="black" stroke-width="2" fill="red"/><rect id="iris_scatter-versicolor-point-point_12" x="186.0" y="201.0" width="8.0" height="8.0" stroke="black" stroke-width="2" fill="red"/><rect id="iris_scatter-versicolor-point-point_13" x="194.0" y="161.0" width="8.0" height="8.0" stroke="black" stroke-width="2" fill="red"/><rect id="iris_scatter-versicolor-point-point_14" x="154.0" y="171.0" width="8.0" height="8.0" stroke="black" stroke-width="2" fill="red"/><rect id="iris_scatter-versicolor-point-point_15" x="242.0" y="161.0" width="8.0" height="8.0" stroke="black" stroke-width="2" fill="red"/><rect id="iris_scatter-versicolor-point-point_16" x="154.0" y="151.0" width="8.0" height="8.0" stroke="black" stroke-width="2" fill="red"/><rect id="iris_scatter-versicolor-point-point_17" x="170.0" y="201.0" width="8.0" height="8.0" stroke="black" stroke-width="2" fill="red"/><rect id="iris_scatter-versicolor-point-point_18" x="202.0" y="151.0" width="8.0" height="8.0" stroke="black" stroke-width="2" fill="red"/><rect id="iris_scatter-versicolor-point-point_19" x="154.0" y="191.0" width="8.0" height="8.0" stroke="black" stroke-width="2" fill="red"/><rect id="iris_scatter-versicolor-point-point_20" x="178.0" y="121.0" width="8.0" height="8.0" stroke="black" stroke-width="2" fill="red"/><rect id="iris_scatter-versicolor-point-point_21" x="194.0" y="171.0" width="8.0" height="8.0" stroke="black" stroke-width="2" fill="red"/><rect id="iris_scatter-versicolor-point-point_22" x="210.0" y="151.0" width="8.0" height="8.0" stroke="black" stroke-width="2" fill="red"/><rect id="iris_scatter-versicolor-point-point_23" x="194.0" y="181.0" width="8.0" height="8.0" stroke="black" stroke-width="2" fill="red"/><rect id="iris_scatter-versicolor-point-point_24" x="218.0" y="171.0" width="8.0" height="8.0" stroke="black" stroke-width="2" fill="red"/><rect id="iris_scatter-versicolor-point-point_25" x="234.0" y="161.0" width="8.0" height="8.0" stroke="black" stroke-width="2" fill="red"/><rect id="iris_scatter-versicolor-point-point_26" x="250.0" y="161.0" width="8.0" height="8.0" stroke="black" stroke-width="2" fill="red"/><rect id="iris_scatter-versicolor-point-point_27" x="242.0" y="131.0" width="8.0" height="8.0" stroke="black" stroke-width="2" fill="red"/><rect id="iris_scatter-versicolor-point-point_28" x="186.0" y="151.0" width="8.0" height="8.0" stroke="black" stroke-width="2" fill="red"/><rect id="iris_scatter-versicolor-point-point_29" x="162.0" y="201.0" width="8.0" height="8.0" stroke="black" stroke-width="2" fill="red"/><rect id="iris_scatter-versicolor-point-point_30" x="146.0" y="191.0" width="8.0" height="8.0" stroke="black" stroke-width="2" fill="red"/><rect id="iris_scatter-versicolor-point-point_31" x="146.0" y="201.0" width="8.0" height="8.0" stroke="black" stroke-width="2" fill="red"/><rect id="iris_scatter-versicolor-point-point_32" x="170.0" y="181.0" width="8.0" height="8.0" stroke="black" stroke-width="2" fill="red"/><rect id="iris_scatter-versicolor-point-point_33" x="186.0" y="141.0" width="8.0" height="8.0" stroke="black" stroke-width="2" fill="red"/><rect id="iris_scatter-versicolor-point-point_34" x="138.0" y="151.0" width="8.0" height="8.0" stroke="black" stroke-width="2" fill="red"/><rect id="iris_scatter-versicolor-point-point_35" x="186.0" y="141.0" width="8.0" height="8.0" stroke="black" stroke-width="2" fill="red"/><rect id="iris_scatter-versicolor-point-point_36" x="242.0" y="151.0" width="8.0" height="8.0" stroke="black" stroke-width="2" fill="red"/><rect id="iris_scatter-versicolor-point-point_37" x="210.0" y="171.0" width="8.0" height="8.0" stroke="black" stroke-width="2" fill="red"/><rect id="iris_scatter-versicolor-point-point_38" x="154.0" y="171.0" width="8.0" height="8.0" stroke="black" stroke-width="2" fill="red"/><rect id="iris_scatter-versicolor-point-point_39" x="146.0" y="171.0" width="8.0" height="8.0" stroke="black" stroke-width="2" fill="red"/><rect id="iris_scatter-versicolor-point-point_40" x="146.0" y="181.0" width="8.0" height="8.0" stroke="black" stroke-width="2" fill="red"/><rect id="iris_scatter-versicolor-point-point_41" x="194.0" y="161.0" width="8.0" height="8.0" stroke="black" stroke-width="2" fill="red"/><rect id="iris_scatter-versicolor-point-point_42" x="170.0" y="181.0" width="8.0" height="8.0" stroke="black" stroke-width="2" fill="red"/><rect id="iris_scatter-versicolor-point-point_43" x="106.0" y="201.0" width="8.0" height="8.0" stroke="black" stroke-width="2" fill="red"/><rect id="iris_scatter-versicolor-point-point_44" x="154.0" y="171.0" width="8.0" height="8.0" stroke="black" stroke-width="2" fill="red"/><rect id="iris_scatter-versicolor-point-point_45" x="162.0" y="181.0" width="8.0" height="8.0" stroke="black" stroke-width="2" fill="red"/><rect id="iris_scatter-versicolor-point-point_46" x="162.0" y="171.0" width="8.0" height="8.0" stroke="black" stroke-width="2" fill="red"/><rect id="iris_scatter-versicolor-point-point_47" x="202.0" y="171.0" width="8.0" height="8.0" stroke="black" stroke-width="2" fill="red"/><rect id="iris_scatter-versicolor-point-point_48" x="114.0" y="191.0" width="8.0" height="8.0" stroke="black" stroke-width="2" fill="red"/><rect id="iris_scatter-versicolor-point-point_49" x="162.0" y="171.0" width="8.0" height="8.0" stroke="black" stroke-width="2" fill="red"/></g><g id="iris_scatter-virginica"><polygon id="iris_scatter-virginica-point-point_0" points="214.0,49.4 219.6,55.0 214.0,60.6 208.4,55.0" stroke="black" stroke-width="2" fill="green"/><polygon id="iris_scatter-virginica-point-point_1" points="174.0,109.4 179.6,115.0 174.0,120.6 168.4,115.0" stroke="black" stroke-width="2" fill="green"/><polygon id="iris_scatter-virginica-point-point_2" points="278.0,89.4 283.6,95.0 278.0,100.6 272.4,95.0" stroke="black" stroke-width="2" fill="green"/><polygon id="iris_scatter-virginica-point-point_3" points="214.0,119.4 219.6,125.0 214.0,130.6 208.4,125.0" stroke="black" stroke-width="2" fill="green"/><polygon id="iris_scatter-virginica-point-point_4" points="230.0,79.4 235.6,85.0 230.0,90.6 224.4,85.0" stroke="black" stroke-width="2" fill="green"/><polygon id="iris_scatter-virginica-point-point_5" points="318.0,89.4 323.6,95.0 318.0,100.6 312.4,95.0" stroke="black" stroke-width="2" fill="green"/><polygon id="iris_scatter-virginica-point-point_6" points="102.0,129.4 107.6,135.0 102.0,140.6 96.4,135.0" stroke="black" stroke-width="2" fill="green"/><polygon id="iris_scatter-virginica-point-point_7" points="294.0,119.4 299.6,125.0 294.0,130.6 288.4,125.0" stroke="black" stroke-width="2" fill="green"/><polygon id="iris_scatter-virginica-point-point_8" points="246.0,119.4 251.6,125.0 246.0,130.6 240.4,125.0" stroke="black" stroke-width="2" fill="green"/><polygon id="iris_scatter-virginica-point-point_9" points="286.0,49.4 291.6,55.0 286.0,60.6 280.4,55.0" stroke="black" stroke-width="2" fill="green"/><polygon id="iris_scatter-virginica-point-point_10" points="230.0,99.4 235.6,105.0 230.0,110.6 224.4,105.0" stroke="black" stroke-width="2" fill="green"/><polygon id="iris_scatter-virginica-point-point_11" points="222.0,109.4 227.6,115.0 222.0,120.6 216.4,115.0" stroke="black" stroke-width="2" fill="green"/><polygon id="iris_scatter-virginica-point-point_12" points="254.0,89.4 259.6,95.0 254.0,100.6 248.4,95.0" stroke="black" stroke-width="2" fill="green"/><polygon id="iris_scatter-virginica-point-point_13" points="166.0,99.4 171.6,105.0 166.0,110.6 160.4,105.0" stroke="black" stroke-width="2" fill="green"/><polygon id="iris_scatter-virginica-point-point_14" points="174.0,59.4 179.6,65.0 174.0,70.6 168.4,65.0" stroke="black" stroke-width="2" fill="green"/><polygon id="iris_scatter-virginica-point-point_15" points="222.0,69.4 227.6,75.0 222.0,80.6 216.4,75.0" stroke="black" stroke-width="2" fill="green"/><polygon id="iris_scatter-virginica-point-point_16" points="230.0,119.4 235.6,125.0 230.0,130.6 224.4,125.0" stroke="black" stroke-width="2" fill="green"/><polygon id="iris_scatter-virginica-point-point_17" points="326.0,79.4 331.6,85.0 326.0,90.6 320.4,85.0" stroke="black" stroke-width="2" fill="green"/><polygon id="iris_scatter-virginica-point-point_18" points="326.0,69.4 331.6,75.0 326.0,80.6 320.4,75.0" stroke="black" stroke-width="2" fill="green"/><polygon id="iris_scatter-virginica-point-point_19" points="190.0,149.4 195.6,155.0 190.0,160.6 184.4,155.0" stroke="black" stroke-width="2" fill="green"/><polygon id="iris_scatter-virginica-point-point_20" points="262.0,69.4 267.6,75.0 262.0,80.6 256.4,75.0" stroke="black" stroke-width="2" fill="green"/><polygon id="iris_scatter-virginica-point-point_21" points="158.0,99.4 163.6,105.0 158.0,110.6 152.4,105.0" stroke="black" stroke-width="2" fill="green"/><polygon id="iris_scatter-virginica-point-point_22" points="326.0,99.4 331.6,105.0 326.0,110.6 320.4,105.0" stroke="black" stroke-width="2" fill="green"/><polygon id="iris_scatter-virginica-point-point_23" points="214.0,119.4 219.6,125.0 214.0,130.6 208.4,125.0" stroke="black" stroke-width="2" fill="green"/><polygon id="iris_scatter-virginica-point-point_24" points="246.0,89.4 251.6,95.0 246.0,100.6 240.4,95.0" stroke="black" stroke-width="2" fill="green"/><polygon id="iris_scatter-virginica-point-point_25" points="286.0,119.4 291.6,125.0 286.0,130.6 280.4,125.0" stroke="black" stroke-width="2" fill="green"/><polygon id="iris_scatter-virginica-point-point_26" points="206.0,119.4 211.6,125.0 206.0,130.6 200.4,125.0" stroke="black" stroke-width="2" fill="green"/><polygon id="iris_scatter-virginica-point-point_27" points="198.0,119.4 203.6,125.0 198.0,130.6 192.4,125.0" stroke="black" stroke-width="2" fill="green"/><polygon id="iris_scatter-virginica-point-point_28" points="222.0,89.4 227.6,95.0 222.0,100.6 216.4,95.0" stroke="black" stroke-width="2" fill="green"/><polygon id="iris_scatter-virginica-point-point_29" points="286.0,139.4 291.6,145.0 286.0,150.6 280.4,145.0" stroke="black" stroke-width="2" fill="green"/><polygon id="iris_scatter-virginica-point-point_30" points="302.0,109.4 307.6,115.0 302.0,120.6 296.4,115.0" stroke="black" stroke-width="2" fill="green"/><polygon id="iris_scatter-virginica-point-point_31" points="342.0,99.4 347.6,105.0 342.0,110.6 336.4,105.0" stroke="black" stroke-width="2" fill="green"/><polygon id="iris_scatter-virginica-point-point_32" points="222.0,79.4 227.6,85.0 222.0,90.6 216.4,85.0" stroke="black" stroke-width="2" fill="green"/><polygon id="iris_scatter-virginica-point-point_33" points="214.0,149.4 219.6,155.0 214.0,160.6 208.4,155.0" stroke="black" stroke-width="2" fill="green"/><polygon id="iris_scatter-virginica-point-point_34" points="198.0,159.4 203.6,165.0 198.0,170.6 192.4,165.0" stroke="black" stroke-width="2" fill="green"/><polygon id="iris_scatter-virginica-point-point_35" points="326.0,69.4 331.6,75.0 326.0,80.6 320.4,75.0" stroke="black" stroke-width="2" fill="green"/><polygon id="iris_scatter-virginica-point-point_36" points="214.0,59.4 219.6,65.0 214.0,70.6 208.4,65.0" stroke="black" stroke-width="2" fill="green"/><polygon id="iris_scatter-virginica-point-point_37" points="222.0,119.4 227.6,125.0 222.0,130.6 216.4,125.0" stroke="black" stroke-width="2" fill="green"/><polygon id="iris_scatter-virginica-point-point_38" points="190.0,119.4 195.6,125.0 190.0,130.6 184.4,125.0" stroke="black" stroke-width="2" fill="green"/><polygon id="iris_scatter-virginica-point-point_39" points="262.0,89.4 267.6,95.0 262.0,100.6 256.4,95.0" stroke="black" stroke-width="2" fill="green"/><polygon id="iris_scatter-virginica-point-point_40" points="246.0,59.4 251.6,65.0 246.0,70.6 240.4,65.0" stroke="black" stroke-width="2" fill="green"/><polygon id="iris_scatter-virginica-point-point_41" points="262.0,69.4 267.6,75.0 262.0,80.6 256.4,75.0" stroke="black" stroke-width="2" fill="green"/><polygon id="iris_scatter-virginica-point-point_42" points="174.0,109.4 179.6,115.0 174.0,120.6 168.4,115.0" stroke="black" stroke-width="2" fill="green"/><polygon id="iris_scatter-virginica-point-point_43" points="254.0,69.4 259.6,75.0 254.0,80.6 248.4,75.0" stroke="black" stroke-width="2" fill="green"/><polygon id="iris_scatter-virginica-point-point_44" points="246.0,49.4 251.6,55.0 246.0,60.6 240.4,55.0" stroke="black" stroke-width="2" fill="green"/><polygon id="iris_scatter-virginica-point-point_45" points="246.0,69.4 251.6,75.0 246.0,80.6 240.4,75.0" stroke="black" stroke-width="2" fill="green"/><polygon id="iris_scatter-virginica-point-point_46" points="214.0,109.4 219.6,115.0 214.0,120.6 208.4,115.0" stroke="black" stroke-width="2" fill="green"/><polygon id="iris_scatter-virginica-point-point_47" points="230.0,99.4 235.6,105.0 230.0,110.6 224.4,105.0" stroke="black" stroke-width="2" fill="green"/><polygon id="iris_scatter-virginica-point-point_48" points="206.0,69.4 211.6,75.0 206.0,80.6 200.4,75.0" stroke="black" stroke-width="2" fill="green"/><polygon id="iris_scatter-virginica-point-point_49" points="182.0,119.4 187.6,125.0 182.0,130.6 176.4,125.0" stroke="black" stroke-width="2" fill="green"/></g><g id="iris_scatter-__g-0" transform="translate(426.0,271.0) translate(-124.4,-59.2) scale(1,1)"><rect x="0" y="0" width="124.431640625" height="59.21875" stroke="black" fill="white" fill-opacity="0.9"/><g id="iris_scatter-legend-label-0" transform="translate(25.0,5.0)"><g id="iris_scatter-__g-9"><text font-family="sans-serif" font-size="14" x="0.0" y="10.6">Iris-setosa</text></g></g><circle id="iris_scatter-legend-point-0" cx="10.0" cy="10.4" r="4" stroke="black" stroke-width="2" fill="blue"/><g id="iris_scatter-legend-label-1" transform="translate(25.0,22.8)"><g id="iris_scatter-__g-10"><text font-family="sans-serif" font-size="14" x="0.0" y="10.6">Iris-versicolor</text></g></g><rect id="iris_scatter-legend-point-1" x="6.0" y="24.3" width="8.0" height="8.0" stroke="black" stroke-width="2" fill="red"/><g id="iris_scatter-legend-label-2" transform="translate(25.0,40.7)"><g id="iris_scatter-__g-11"><text font-family="sans-serif" font-size="14" x="0.0" y="10.6">Iris-virginica</text></g></g><polygon id="iris_scatter-legend-point-2" points="10.0,41.8 15.6,47.4 10.0,53.0 4.4,47.4" stroke="black" stroke-width="2" fill="green"/></g></svg>