<svg xmlns="http://www.w3.org/2000/svg" id="outline-group-figure" width="310" height="310" viewBox="0 0 310 310"><defs><clipPath id="outline-group-__clipPath-0"><rect x="5.0" y="5.0" width="300.0" height="300.0"/></clipPath><clipPath id="outline-group-__clipPath-1"><rect x="5.0" y="5.0" width="300.0" height="300.0"/></clipPath><path id="outline-group-__plot-de-solution-0-outline" d="M 65.0 245.0 L 67.4 245.0 L 69.8 245.2 L 72.3 245.5 L 74.7 245.8 L 77.1 246.3 L 79.5 246.9 L 82.0 247.6 L 84.4 248.5 L 86.8 249.5 L 89.2 250.6 L 91.7 251.9 L 94.1 253.3 L 96.5 254.9 L 98.9 256.7 L 101.4 258.6 L 103.8 260.7 L 106.2 263.0 L 108.6 265.5 L 111.1 268.2 L 113.5 271.1 L 115.9 274.3 L 118.3 277.6 L 120.8 281.2 L 123.2 285.0 L 125.6 289.1 L 128.0 293.5 L 130.5 298.2 L 132.9 303.1 L 135.3 308.4 L 137.7 313.9 L 140.2 319.8 L 142.6 326.0 L 145.0 332.6 L 147.4 339.6 L 149.8 346.9 L 152.3 354.7 L 154.7 362.9 L 157.1 371.5 L 159.5 380.5 L 162.0 390.0 L 164.4 400.1 L 166.8 410.6 L 169.2 421.7 L 171.7 433.3 L 174.1 445.5 L 176.5 458.4 L 178.9 471.8 L 181.4 485.9 L 183.8 500.7 L 186.2 516.2 L 188.6 532.4 L 191.1 549.4 L 193.5 567.2 L 195.9 585.9 L 198.3 605.4 L 200.8 625.8 L 203.2 647.1 L 205.6 669.4 L 208.0 692.8 L 210.5 717.2 L 212.9 742.7 L 215.3 769.3 L 217.7 797.1 L 220.2 826.2 L 222.6 856.6 L 225.0 888.4 L 227.4 921.6 L 229.8 956.2 L 232.3 992.4 L 234.7 1030.2 L 237.1 1069.7 L 239.5 1110.8 L 242.0 1153.8 L 244.4 1198.7 L 246.8 1245.4 L 249.2 1294.2 L 251.7 1345.2 L 254.1 1398.3 L 256.5 1453.7 L 258.9 1511.5 L 261.4 1571.8 L 263.8 1634.6 L 266.2 1700.1 L 268.6 1768.5 L 271.1 1839.7 L 273.5 1914.0 L 275.9 1991.4 L 278.3 2072.1 L 280.8 2156.3 L 283.2 2244.0 L 285.6 2335.5 L 288.0 2430.8 L 290.5 2530.2 L 292.9 2633.8 L 295.3 2741.8 L 297.7 2854.3 L 300.2 2971.6 L 302.6 3093.8 L 305.0 3221.1" clip-path="url(#outline-group-__clipPath-1)"/><path id="outline-group-__plot-de-solution-1-outline" d="M 65.0 125.0 L 67.4 120.1 L 69.8 115.1 L 72.3 110.0 L 74.7 104.8 L 77.1 99.4 L 79.5 94.0 L 82.0 88.4 L 84.4 82.7 L 86.8 76.9 L 89.2 70.9 L 91.7 64.8 L 94.1 58.5 L 96.5 52.0 L 98.9 45.4 L 101.4 38.6 L 103.8 31.7 L 106.2 24.5 L 108.6 17.2 L 111.1 9.7 L 113.5 1.9 L 115.9 -6.1 L 118.3 -14.3 L 120.8 -22.7 L 123.2 -31.4 L 125.6 -40.4 L 128.0 -49.6 L 130.5 -59.1 L 132.9 -68.9 L 135.3 -79.0 L 137.7 -89.4 L 140.2 -100.1 L 142.6 -111.2 L 145.0 -122.7 L 147.4 -134.5 L 149.8 -146.7 L 152.3 -159.3 L 154.7 -172.3 L 157.1 -185.7 L 159.5 -199.6 L 162.0 -214.0 L 164.4 -228.8 L 166.8 -244.2 L 169.2 -260.1 L 171.7 -276.5 L 174.1 -293.5 L 176.5 -311.2 L 178.9 -329.4 L 181.4 -348.4 L 183.8 -368.0 L 186.2 -388.3 L 188.6 -409.4 L 191.1 -431.2 L 193.5 -453.9 L 195.9 -477.4 L 198.3 -501.8 L 200.8 -527.1 L 203.2 -553.3 L 205.6 -580.5 L 208.0 -608.7 L 210.5 -638.0 L 212.9 -668.4 L 215.3 -699.9 L 217.7 -732.6 L 220.2 -766.6 L 222.6 -802.0 L 225.0 -838.6 L 227.4 -876.7 L 229.8 -916.2 L 232.3 -957.2 L 234.7 -999.8 L 237.1 -1044.0 L 239.5 -1090.0 L 242.0 -1137.7 L 244.4 -1187.2 L 246.8 -1238.7 L 249.2 -1292.2 L 251.7 -1347.7 L 254.1 -1405.5 L 256.5 -1465.6 L 258.9 -1528.0 L 261.4 -1592.9 L 263.8 -1660.5 L 266.2 -1730.7 L 268.6 -1803.8 L 271.1 -1879.8 L 273.5 -1958.9 L 275.9 -2041.2 L 278.3 -2126.8 L 280.8 -2215.9 L 283.2 -2308.6 L 285.6 -2405.0 L 288.0 -2505.3 L 290.5 -2609.7 L 292.9 -2718.3 L 295.3 -2831.2 L 297.7 -2948.7 L 300.2 -3070.9 L 302.6 -3197.9 L 305.0 -3330.0" clip-path="url(#outline-group-__clipPath-1)"/></defs><g id="outline-group-grid-axes"><g id="outline-group-grid" stroke="#ccc" stroke-width="1"><line x1="5.0" y1="305.0" x2="5.0" y2="5.0"/><line x1="35.0" y1="305.0" x2="35.0" y2="5.0"/><line x1="65.0" y1="305.0" x2="65.0" y2="5.0"/><line x1="95.0" y1="305.0" x2="95.0" y2="5.0"/><line x1="125.0" y1="305.0" x2="125.0" y2="5.0"/><line x1="155.0" y1="305.0" x2="155.0" y2="5.0"/><line x1="185.0" y1="305.0" x2="185.0" y2="5.0"/><line x1="215.0" y1="305.0" x2="215.0" y2="5.0"/><line x1="245.0" y1="305.0" x2="245.0" y2="5.0"/><line x1="275.0" y1="305.0" x2="275.0" y2="5.0"/><line x1="305.0" y1="305.0" x2="305.0" y2="5.0"/><line x1="5.0" y1="305.0" x2="305.0" y2="305.0"/><line x1="5.0" y1="275.0" x2="305.0" y2="275.0"/><line x1="5.0" y1="245.0" x2="305.0" y2="245.0"/><line x1="5.0" y1="215.0" x2="305.0" y2="215.0"/><line x1="5.0" y1="185.0" x2="305.0" y2="185.0"/><line x1="5.0" y1="155.0" x2="305.0" y2="155.0"/><line x1="5.0" y1="125.0" x2="305.0" y2="125.0"/><line x1="5.0" y1="95.0" x2="305.0" y2="95.0"/><line x1="5.0" y1="65.0" x2="305.0" y2="65.0"/><line x1="5.0" y1="35.0" x2="305.0" y2="35.0"/><line x1="5.0" y1="5.0" x2="305.0" y2="5.0"/></g><g id="outline-group-axes" stroke="black" stroke-width="2"><line id="outline-group-__line-22" x1="5.0" y1="245.0" x2="305.0" y2="245.0" stroke="black" stroke-width="2"/><g><line id="outline-group-__line-23" x1="125.0" y1="248.0" x2="125.0" y2="242.0"/><line id="outline-group-__line-24" x1="185.0" y1="248.0" x2="185.0" y2="242.0"/><line id="outline-group-__line-25" x1="245.0" y1="248.0" x2="245.0" y2="242.0"/></g><line id="outline-group-__line-26" x1="65.0" y1="305.0" x2="65.0" y2="5.0" stroke="black" stroke-width="2"/><g><line id="outline-group-__line-27" x1="62.0" y1="185.0" x2="68.0" y2="185.0"/><line id="outline-group-__line-28" x1="62.0" y1="125.0" x2="68.0" y2="125.0"/><line id="outline-group-__line-29" x1="62.0" y1="65.0" x2="68.0" y2="65.0"/></g></g><g id="outline-group-__label-0" transform="translate(125.0,256.0) translate(-4.5,-0.0)"><g id="outline-group-__g-0"><svg xmlns:xlink="http://www.w3.org/1999/xlink" style="vertical-align: 0.000px" width="9.048px" height="12.056px" role="img" focusable="false" viewBox="0 -666 500 666" x="0.0" y="0.0"><defs><path id="outline-group-MJX-1-NCM-N-31" d="M269 666C228 624 168 603 89 603L89 564C141 564 184 572 217 588L217 82C217 64 213 52 204 47C195 42 170 39 130 39L95 39L95 0C120 2 174 3 257 3C340 3 394 2 419 0L419 39L384 39C343 39 318 42 310 47C302 52 297 64 297 82L297 636C297 660 295 666 269 666Z"/></defs><g stroke="currentColor" fill="currentColor" stroke-width="0" transform="scale(1,-1)"><g data-mml-node="math"><g data-mml-node="mtext" data-semantic-type="number" data-semantic-role="integer" data-semantic-font="normal" data-semantic-annotation="general:text;clearspeak:simple;nemeth:number;depth:1" data-semantic-id="0" data-semantic-attributes="latex:\text{1}" data-semantic-speech="1"><use data-c="31" xlink:href="#outline-group-MJX-1-NCM-N-31"/></g></g></g></svg></g></g><g id="outline-group-__label-1" transform="translate(185.0,256.0) translate(-4.5,-0.0)"><g id="outline-group-__g-1"><svg xmlns:xlink="http://www.w3.org/1999/xlink" style="vertical-align: 0.000px" width="9.048px" height="12.056px" role="img" focusable="false" viewBox="0 -666 500 666" x="0.0" y="0.0"><defs><path id="outline-group-MJX-2-NCM-N-32" d="M237 666C186 666 143 648 106 612C69 576 50 534 50 483C50 449 75 424 106 424C136 424 161 450 161 480C161 513 137 536 105 536C102 536 100 536 98 535C117 584 161 627 224 627C306 627 352 556 352 470C352 403 318 331 250 255L62 43C49 28 50 29 50 0L421 0L450 180L417 180C409 129 402 100 396 91C391 86 361 84 306 84L139 84L236 179C304 243 390 312 419 365C439 400 449 435 449 470C449 588 357 666 237 666Z"/></defs><g stroke="currentColor" fill="currentColor" stroke-width="0" transform="scale(1,-1)"><g data-mml-node="math"><g data-mml-node="mtext" data-semantic-type="number" data-semantic-role="integer" data-semantic-font="normal" data-semantic-annotation="general:text;clearspeak:simple;nemeth:number;depth:1" data-semantic-id="0" data-semantic-attributes="latex:\text{2}" data-semantic-speech="2"><use data-c="32" xlink:href="#outline-group-MJX-2-NCM-N-32"/></g></g></g></svg></g></g><g id="outline-group-__label-2" transform="translate(245.0,256.0) translate(-4.5,-0.0)"><g id="outline-group-__g-2"><svg xmlns:xlink="http://www.w3.org/1999/xlink" style="vertical-align: -0.400px" width="9.048px" height="12.456px" role="img" focusable="false" viewBox="0 -666 500 688" x="0.0" y="0.0"><defs><path id="outline-group-MJX-3-NCM-N-33" d="M303 353C369 378 431 441 431 526C431 569 410 604 369 631C333 654 292 666 246 666C201 666 162 654 127 631C88 605 68 571 68 528C68 495 90 472 122 472C154 472 176 495 176 527C176 560 157 578 119 580C145 615 186 633 242 633C302 633 332 598 332 527C332 485 324 450 309 421C282 373 245 364 183 364C171 362 165 357 165 348C165 333 172 333 192 333L235 333C310 333 348 280 348 173C348 88 317 14 241 14C176 14 128 36 99 80C134 79 160 105 160 139C160 173 135 198 101 198C62 198 42 178 42 137C42 88 64 49 108 18C147-9 193-22 244-22C301-22 350-3 393 34C436 71 457 117 457 173C457 267 383 332 303 353Z"/></defs><g stroke="currentColor" fill="currentColor" stroke-width="0" transform="scale(1,-1)"><g data-mml-node="math"><g data-mml-node="mtext" data-semantic-type="number" data-semantic-role="integer" data-semantic-font="normal" data-semantic-annotation="general:text;clearspeak:simple;nemeth:number;depth:1" data-semantic-id="0" data-semantic-attributes="latex:\text{3}" data-semantic-speech="3"><use data-c="33" xlink:href="#outline-group-MJX-3-NCM-N-33"/></g></g></g></svg></g></g><g id="outline-group-__label-3" transform="translate(54.0,185.0) translate(-9.0,-6.0)"><g id="outline-group-__g-3"><svg xmlns:xlink="http://www.w3.org/1999/xlink" style="vertical-align: 0.000px" width="9.048px" height="12.056px" role="img" focusable="false" viewBox="0 -666 500 666" x="0.0" y="0.0"><defs><path id="outline-group-MJX-4-NCM-N-31" d="M269 666C228 624 168 603 89 603L89 564C141 564 184 572 217 588L217 82C217 64 213 52 204 47C195 42 170 39 130 39L95 39L95 0C120 2 174 3 257 3C340 3 394 2 419 0L419 39L384 39C343 39 318 42 310 47C302 52 297 64 297 82L297 636C297 660 295 666 269 666Z"/></defs><g stroke="currentColor" fill="currentColor" stroke-width="0" transform="scale(1,-1)"><g data-mml-node="math"><g data-mml-node="mtext" data-semantic-type="number" data-semantic-role="integer" data-semantic-font="normal" data-semantic-annotation="general:text;clearspeak:simple;nemeth:number;depth:1" data-semantic-id="0" data-semantic-attributes="latex:\text{1}" data-semantic-speech="1"><use data-c="31" xlink:href="#outline-group-MJX-4-NCM-N-31"/></g></g></g></svg></g></g><g id="outline-group-__label-4" transform="translate(54.0,125.0) translate(-9.0,-6.0)"><g id="outline-group-__g-4"><svg xmlns:xlink="http://www.w3.org/1999/xlink" style="vertical-align: 0.000px" width="9.048px" height="12.056px" role="img" focusable="false" viewBox="0 -666 500 666" x="0.0" y="0.0"><defs><path id="outline-group-MJX-5-NCM-N-32" d="M237 666C186 666 143 648 106 612C69 576 50 534 50 483C50 449 75 424 106 424C136 424 161 450 161 480C161 513 137 536 105 536C102 536 100 536 98 535C117 584 161 627 224 627C306 627 352 556 352 470C352 403 318 331 250 255L62 43C49 28 50 29 50 0L421 0L450 180L417 180C409 129 402 100 396 91C391 86 361 84 306 84L139 84L236 179C304 243 390 312 419 365C439 400 449 435 449 470C449 588 357 666 237 666Z"/></defs><g stroke="currentColor" fill="currentColor" stroke-width="0" transform="scale(1,-1)"><g data-mml-node="math"><g data-mml-node="mtext" data-semantic-type="number" data-semantic-role="integer" data-semantic-font="normal" data-semantic-annotation="general:text;clearspeak:simple;nemeth:number;depth:1" data-semantic-id="0" data-semantic-attributes="latex:\text{2}" data-semantic-speech="2"><use data-c="32" xlink:href="#outline-group-MJX-5-NCM-N-32"/></g></g></g></svg></g></g><g id="outline-group-__label-5" transform="translate(54.0,65.0) translate(-9.0,-6.2)"><g id="outline-group-__g-5"><svg xmlns:xlink="http://www.w3.org/1999/xlink" style="vertical-align: -0.400px" width="9.048px" height="12.456px" role="img" focusable="false" viewBox="0 -666 500 688" x="0.0" y="0.0"><defs><path id="outline-group-MJX-6-NCM-N-33" d="M303 353C369 378 431 441 431 526C431 569 410 604 369 631C333 654 292 666 246 666C201 666 162 654 127 631C88 605 68 571 68 528C68 495 90 472 122 472C154 472 176 495 176 527C176 560 157 578 119 580C145 615 186 633 242 633C302 633 332 598 332 527C332 485 324 450 309 421C282 373 245 364 183 364C171 362 165 357 165 348C165 333 172 333 192 333L235 333C310 333 348 280 348 173C348 88 317 14 241 14C176 14 128 36 99 80C134 79 160 105 160 139C160 173 135 198 101 198C62 198 42 178 42 137C42 88 64 49 108 18C147-9 193-22 244-22C301-22 350-3 393 34C436 71 457 117 457 173C457 267 383 332 303 353Z"/></defs><g stroke="currentColor" fill="currentColor" stroke-width="0" transform="scale(1,-1)"><g data-mml-node="math"><g data-mml-node="mtext" data-semantic-type="number" data-semantic-role="integer" data-semantic-font="normal" data-semantic-annotation="general:text;clearspeak:simple;nemeth:number;depth:1" data-semantic-id="0" data-semantic-attributes="latex:\text{3}" data-semantic-speech="3"><use data-c="33" xlink:href="#outline-group-MJX-6-NCM-N-33"/></g></g></g></svg></g></g></g><g id="outline-group-__group-0-outline"><use xmlns:ns0="http://www.w3.org/1999/xlink" fill="none" stroke-width="6" stroke="white" ns0:href="#outline-group-__plot-de-solution-0-outline"/><use xmlns:ns1="http://www.w3.org/1999/xlink" fill="none" stroke-width="6" stroke="white" ns1:href="#outline-group-__plot-de-solution-1-outline"/></g><g id="outline-group-__group-0"><use xmlns:ns2="http://www.w3.org/1999/xlink" id="outline-group-__plot-de-solution-0" fill="none" stroke-width="2" stroke="blue" stroke-dasharray="none" ns2:href="#outline-group-__plot-de-solution-0-outline"/><use xmlns:ns3="http://www.w3.org/1999/xlink" id="outline-group-__plot-de-solution-1" fill="none" stroke-width="2" stroke="blue" stroke-dasharray="none" ns3:href="#outline-group-__plot-de-solution-1-outline"/></g><circle id="outline-group-__circle-0" cx="65.0" cy="125.0" r="4" stroke="black" stroke-width="2" fill="red"/><circle id="outline-group-__circle-1" cx="65.0" cy="245.0" r="4" stroke="black" stroke-width="2" fill="red"/></svg>