<svg xmlns="http://www.w3.org/2000/svg" id="tangent-annotated-figure" width="310" height="310" viewBox="0 0 310 310"><defs><clipPath id="tangent-annotated-__clipPath-0"><rect x="5.0" y="5.0" width="300.0" height="300.0"/></clipPath><clipPath id="tangent-annotated-__clipPath-1"><rect x="5.0" y="5.0" width="300.0" height="300.0"/></clipPath></defs><g id="tangent-annotated-grid-axes"><g id="tangent-annotated-grid" stroke="#ccc" stroke-width="1"><line x1="5.0" y1="305.0" x2="5.0" y2="5.0"/><line x1="42.5" y1="305.0" x2="42.5" y2="5.0"/><line x1="80.0" y1="305.0" x2="80.0" y2="5.0"/><line x1="117.5" y1="305.0" x2="117.5" y2="5.0"/><line x1="155.0" y1="305.0" x2="155.0" y2="5.0"/><line x1="192.5" y1="305.0" x2="192.5" y2="5.0"/><line x1="230.0" y1="305.0" x2="230.0" y2="5.0"/><line x1="267.5" y1="305.0" x2="267.5" y2="5.0"/><line x1="305.0" y1="305.0" x2="305.0" y2="5.0"/><line x1="5.0" y1="305.0" x2="305.0" y2="305.0"/><line x1="5.0" y1="267.5" x2="305.0" y2="267.5"/><line x1="5.0" y1="230.0" x2="305.0" y2="230.0"/><line x1="5.0" y1="192.5" x2="305.0" y2="192.5"/><line x1="5.0" y1="155.0" x2="305.0" y2="155.0"/><line x1="5.0" y1="117.5" x2="305.0" y2="117.5"/><line x1="5.0" y1="80.0" x2="305.0" y2="80.0"/><line x1="5.0" y1="42.5" x2="305.0" y2="42.5"/><line x1="5.0" y1="5.0" x2="305.0" y2="5.0"/></g><g id="tangent-annotated-axes" stroke="black" stroke-width="2"><line id="tangent-annotated-__line-18" x1="5.0" y1="155.0" x2="305.0" y2="155.0" stroke="black" stroke-width="2"/><g><line id="tangent-annotated-__line-19" x1="80.0" y1="158.0" x2="80.0" y2="152.0"/><line id="tangent-annotated-__line-20" x1="230.0" y1="158.0" x2="230.0" y2="152.0"/></g><line id="tangent-annotated-__line-21" x1="155.0" y1="305.0" x2="155.0" y2="5.0" stroke="black" stroke-width="2"/><g><line id="tangent-annotated-__line-22" x1="152.0" y1="230.0" x2="158.0" y2="230.0"/><line id="tangent-annotated-__line-23" x1="152.0" y1="80.0" x2="158.0" y2="80.0"/></g></g><g id="tangent-annotated-__label-0" transform="translate(301.0,151.0) translate(-10.4,-8.2)"><g id="tangent-annotated-__g-0"><svg xmlns:xlink="http://www.w3.org/1999/xlink" style="vertical-align: -0.200px" width="10.352px" height="8.200px" role="img" focusable="false" viewBox="0 -442 572 453" x="0.0" y="0.0"><defs><path id="tangent-annotated-MJX-1-NCM-I-1D465" d="M527 373C527 419 482 442 432 442C389 442 355 419 329 373C308 419 273 442 222 442C173 442 133 419 101 374C74 335 60 306 60 287C60 278 65 273 75 273C84 273 90 278 92 287C111 345 153 413 220 413C253 413 269 392 269 351C269 330 251 252 216 118C199 51 169 18 126 18C112 18 99 21 88 26C114 36 127 54 127 80C127 106 114 119 87 119C54 119 29 91 29 58C29 12 76-11 125-11C167-11 201 12 228 58C247 12 283-11 335-11C383-11 423 12 455 57C482 96 496 125 496 144C496 153 491 158 481 158C472 158 467 153 464 144C447 87 402 18 337 18C304 18 287 38 287 79C287 92 292 120 303 165L337 300C356 375 387 413 431 413C445 413 458 410 469 405C442 396 429 378 429 351C429 325 443 312 470 312C502 312 527 341 527 373Z"/></defs><g stroke="currentColor" fill="currentColor" stroke-width="0" transform="scale(1,-1)"><g data-mml-node="math"><g data-mml-node="mi" data-semantic-type="identifier" data-semantic-role="latinletter" data-semantic-font="italic" data-semantic-annotation="clearspeak:simple;nemeth:number;depth:1" data-semantic-id="0" data-semantic-attributes="latex:x" data-semantic-speech="x"><use data-c="1D465" xlink:href="#tangent-annotated-MJX-1-NCM-I-1D465"/></g></g></g></svg></g></g><g id="tangent-annotated-__label-1" transform="translate(159.0,9.0) translate(0.0,-0.0)"><g id="tangent-annotated-__g-1"><svg xmlns:xlink="http://www.w3.org/1999/xlink" style="vertical-align: -3.712px" width="8.872px" height="11.712px" role="img" focusable="false" viewBox="0 -442 490 647" x="0.0" y="0.0"><defs><path id="tangent-annotated-MJX-2-NCM-I-1D466" d="M163 442C118 442 83 417 58 367C39 328 29 301 29 286C29 277 34 272 45 272C59 272 60 278 64 293C87 372 119 412 160 412C173 412 180 403 180 385C180 369 175 346 164 317C126 214 107 145 107 108C107 32 154-13 231-13C264-13 295-1 323 23C288-109 233-175 158-175C124-175 101-164 89-142C129-140 149-121 149-85C149-60 136-47 109-47C72-47 50-78 50-115C50-170 100-205 158-205C273-205 367-99 392-1L486 377C489 388 490 396 490 401C490 421 479 431 458 431C442 431 429 423 420 408C414 387 409 369 406 354L342 97C332 61 279 16 234 16C196 16 177 41 177 92C177 134 194 198 227 284C240 319 247 343 247 357C247 406 212 442 163 442Z"/></defs><g stroke="currentColor" fill="currentColor" stroke-width="0" transform="scale(1,-1)"><g data-mml-node="math"><g data-mml-node="mi" data-semantic-type="identifier" data-semantic-role="latinletter" data-semantic-font="italic" data-semantic-annotation="clearspeak:simple;nemeth:number;depth:1" data-semantic-id="0" data-semantic-attributes="latex:y" data-semantic-speech="y"><use data-c="1D466" xlink:href="#tangent-annotated-MJX-2-NCM-I-1D466"/></g></g></g></svg></g></g><g id="tangent-annotated-__label-2" transform="translate(80.0,166.0) translate(-7.5,-0.0)"><g id="tangent-annotated-__g-2"><svg xmlns:xlink="http://www.w3.org/1999/xlink" style="vertical-align: 0.000px" width="15.080px" height="12.056px" role="img" focusable="false" viewBox="0 -666 833 666" x="0.0" y="0.0"><defs><path id="tangent-annotated-MJX-3-NCM-N-2D" d="M11 187L276 187L276 245L11 245Z"/><path id="tangent-annotated-MJX-3-NCM-N-32" d="M237 666C186 666 143 648 106 612C69 576 50 534 50 483C50 449 75 424 106 424C136 424 161 450 161 480C161 513 137 536 105 536C102 536 100 536 98 535C117 584 161 627 224 627C306 627 352 556 352 470C352 403 318 331 250 255L62 43C49 28 50 29 50 0L421 0L450 180L417 180C409 129 402 100 396 91C391 86 361 84 306 84L139 84L236 179C304 243 390 312 419 365C439 400 449 435 449 470C449 588 357 666 237 666Z"/></defs><g stroke="currentColor" fill="currentColor" stroke-width="0" transform="scale(1,-1)"><g data-mml-node="math"><g data-mml-node="mtext" data-semantic-type="text" data-semantic-role="unknown" data-semantic-font="normal" data-semantic-annotation="clearspeak:unit;nemeth:number;depth:1" data-semantic-id="0" data-semantic-attributes="latex:\text{-2}" data-semantic-speech="minus 2"><use data-c="2D" xlink:href="#tangent-annotated-MJX-3-NCM-N-2D"/><use data-c="32" xlink:href="#tangent-annotated-MJX-3-NCM-N-32" transform="translate(333,0)"/></g></g></g></svg></g></g><g id="tangent-annotated-__label-3" transform="translate(230.0,166.0) translate(-4.5,-0.0)"><g id="tangent-annotated-__g-3"><svg xmlns:xlink="http://www.w3.org/1999/xlink" style="vertical-align: 0.000px" width="9.048px" height="12.056px" role="img" focusable="false" viewBox="0 -666 500 666" x="0.0" y="0.0"><defs><path id="tangent-annotated-MJX-4-NCM-N-32" d="M237 666C186 666 143 648 106 612C69 576 50 534 50 483C50 449 75 424 106 424C136 424 161 450 161 480C161 513 137 536 105 536C102 536 100 536 98 535C117 584 161 627 224 627C306 627 352 556 352 470C352 403 318 331 250 255L62 43C49 28 50 29 50 0L421 0L450 180L417 180C409 129 402 100 396 91C391 86 361 84 306 84L139 84L236 179C304 243 390 312 419 365C439 400 449 435 449 470C449 588 357 666 237 666Z"/></defs><g stroke="currentColor" fill="currentColor" stroke-width="0" transform="scale(1,-1)"><g data-mml-node="math"><g data-mml-node="mtext" data-semantic-type="number" data-semantic-role="integer" data-semantic-font="normal" data-semantic-annotation="general:text;clearspeak:simple;nemeth:number;depth:1" data-semantic-id="0" data-semantic-attributes="latex:\text{2}" data-semantic-speech="2"><use data-c="32" xlink:href="#tangent-annotated-MJX-4-NCM-N-32"/></g></g></g></svg></g></g><g id="tangent-annotated-__label-4" transform="translate(144.0,230.0) translate(-15.1,-6.0)"><g id="tangent-annotated-__g-4"><svg xmlns:xlink="http://www.w3.org/1999/xlink" style="vertical-align: 0.000px" width="15.080px" height="12.056px" role="img" focusable="false" viewBox="0 -666 833 666" x="0.0" y="0.0"><defs><path id="tangent-annotated-MJX-5-NCM-N-2D" d="M11 187L276 187L276 245L11 245Z"/><path id="tangent-annotated-MJX-5-NCM-N-32" d="M237 666C186 666 143 648 106 612C69 576 50 534 50 483C50 449 75 424 106 424C136 424 161 450 161 480C161 513 137 536 105 536C102 536 100 536 98 535C117 584 161 627 224 627C306 627 352 556 352 470C352 403 318 331 250 255L62 43C49 28 50 29 50 0L421 0L450 180L417 180C409 129 402 100 396 91C391 86 361 84 306 84L139 84L236 179C304 243 390 312 419 365C439 400 449 435 449 470C449 588 357 666 237 666Z"/></defs><g stroke="currentColor" fill="currentColor" stroke-width="0" transform="scale(1,-1)"><g data-mml-node="math"><g data-mml-node="mtext" data-semantic-type="text" data-semantic-role="unknown" data-semantic-font="normal" data-semantic-annotation="clearspeak:unit;nemeth:number;depth:1" data-semantic-id="0" data-semantic-attributes="latex:\text{-2}" data-semantic-speech="minus 2"><use data-c="2D" xlink:href="#tangent-annotated-MJX-5-NCM-N-2D"/><use data-c="32" xlink:href="#tangent-annotated-MJX-5-NCM-N-32" transform="translate(333,0)"/></g></g></g></svg></g></g><g id="tangent-annotated-__label-5" transform="translate(144.0,80.0) translate(-9.0,-6.0)"><g id="tangent-annotated-__g-5"><svg xmlns:xlink="http://www.w3.org/1999/xlink" style="vertical-align: 0.000px" width="9.048px" height="12.056px" role="img" focusable="false" viewBox="0 -666 500 666" x="0.0" y="0.0"><defs><path id="tangent-annotated-MJX-6-NCM-N-32" d="M237 666C186 666 143 648 106 612C69 576 50 534 50 483C50 449 75 424 106 424C136 424 161 450 161 480C161 513 137 536 105 536C102 536 100 536 98 535C117 584 161 627 224 627C306 627 352 556 352 470C352 403 318 331 250 255L62 43C49 28 50 29 50 0L421 0L450 180L417 180C409 129 402 100 396 91C391 86 361 84 306 84L139 84L236 179C304 243 390 312 419 365C439 400 449 435 449 470C449 588 357 666 237 666Z"/></defs><g stroke="currentColor" fill="currentColor" stroke-width="0" transform="scale(1,-1)"><g data-mml-node="math"><g data-mml-node="mtext" data-semantic-type="number" data-semantic-role="integer" data-semantic-font="normal" data-semantic-annotation="general:text;clearspeak:simple;nemeth:number;depth:1" data-semantic-id="0" data-semantic-attributes="latex:\text{2}" data-semantic-speech="2"><use data-c="32" xlink:href="#tangent-annotated-MJX-6-NCM-N-32"/></g></g></g></svg></g></g></g><path id="tangent-annotated-function" stroke="blue" stroke-width="2" fill="none" d="M 5.0 161.5 L 8.0 162.2 L 11.0 163.0 L 14.0 163.7 L 17.0 164.4 L 20.0 165.1 L 23.0 165.8 L 26.0 166.4 L 29.0 166.9 L 32.0 167.4 L 35.0 167.9 L 38.0 168.3 L 41.0 168.5 L 44.0 168.8 L 47.0 168.9 L 50.0 168.9 L 53.0 168.8 L 56.0 168.6 L 59.0 168.3 L 62.0 167.9 L 65.0 167.4 L 68.0 166.8 L 71.0 166.0 L 74.0 165.1 L 77.0 164.1 L 80.0 163.0 L 83.0 161.8 L 86.0 160.4 L 89.0 158.9 L 92.0 157.3 L 95.0 155.6 L 98.0 153.9 L 101.0 152.0 L 104.0 150.0 L 107.0 148.0 L 110.0 145.9 L 113.0 143.8 L 116.0 141.6 L 119.0 139.4 L 122.0 137.2 L 125.0 135.0 L 128.0 132.8 L 131.0 130.7 L 134.0 128.6 L 137.0 126.7 L 140.0 124.8 L 143.0 123.0 L 146.0 121.4 L 149.0 119.9 L 152.0 118.6 L 155.0 117.5 L 158.0 116.6 L 161.0 116.0 L 164.0 115.5 L 167.0 115.4 L 170.0 115.5 L 173.0 116.0 L 176.0 116.7 L 179.0 117.8 L 182.0 119.2 L 185.0 120.9 L 188.0 123.0 L 191.0 125.4 L 194.0 128.2 L 197.0 131.3 L 200.0 134.7 L 203.0 138.5 L 206.0 142.7 L 209.0 147.1 L 212.0 151.8 L 215.0 156.9 L 218.0 162.2 L 221.0 167.7 L 224.0 173.4 L 227.0 179.3 L 230.0 185.4 L 233.0 191.6 L 236.0 197.8 L 239.0 204.1 L 242.0 210.3 L 245.0 216.5 L 248.0 222.6 L 251.0 228.6 L 254.0 234.3 L 257.0 239.7 L 260.0 244.9 L 263.0 249.6 L 266.0 253.9 L 269.0 257.8 L 272.0 261.1 L 275.0 263.8 L 278.0 265.8 L 281.0 267.2 L 284.0 267.8 L 287.0 267.7 L 290.0 266.7 L 293.0 264.8 L 296.0 262.0 L 299.0 258.3 L 302.0 253.6 L 305.0 248.0" clip-path="url(#tangent-annotated-__clipPath-1)"/><line id="tangent-annotated-tangent" x1="60.6" y1="5.0" x2="305.0" y2="230.6" stroke="red" stroke-width="2" fill="none" clip-path="url(#tangent-annotated-__clipPath-1)"/><g id="tangent-annotated-point"><circle id="tangent-annotated-__circle-0" cx="192.5" cy="126.7" r="4" stroke="black" stroke-width="2" fill="red"/><g id="tangent-annotated-__label-6" transform="translate(196.5,122.7) translate(0.0,-18.0)"><g id="tangent-annotated-__g-6"><svg xmlns:xlink="http://www.w3.org/1999/xlink" style="vertical-align: -4.488px" width="65.352px" height="18.024px" role="img" focusable="false" viewBox="0 -748 3610.7 996" x="0.0" y="0.0"><defs><path id="tangent-annotated-MJX-7-NCM-N-28" d="M318-248C327-248 332-243 332-234C332-231 330-227 327-223C275-183 233-117 202-26C175 53 161 131 161 208L161 292C161 369 175 447 202 526C233 617 275 683 327 723C330 726 332 730 332 734C332 743 327 748 318 748C317 748 314 747 311 745C251 699 201 631 160 540C121 453 101 371 101 292L101 208C101 129 121 47 160-40C201-131 251-199 311-245C314-247 317-248 318-248Z"/><path id="tangent-annotated-MJX-7-NCM-I-1D44E" d="M498 144C498 153 493 158 482 158C474 158 468 151 465 137C445 58 421 18 394 18C377 18 368 32 368 60C368 73 372 97 381 132L438 357C443 376 445 387 445 392C445 412 434 422 412 422C391 422 377 410 370 387C349 424 319 442 281 442C216 442 159 409 109 343C63 281 40 217 40 150C40 63 91-11 175-11C218-11 260 12 300 58C311 20 345-11 392-11C461-11 482 70 498 144M341 374C350 353 355 339 355 330C355 326 354 321 353 314L304 122C301 111 294 99 285 87C248 41 212 18 177 18C138 18 118 48 118 107C118 131 124 167 136 215C157 300 187 357 224 388C244 405 263 413 282 413C309 413 329 400 341 374Z"/><path id="tangent-annotated-MJX-7-NCM-N-2C" d="M139 106C107 106 86 82 86 50C86 20 109-5 139-5C153-5 165-1 174 8L175 0C175-63 154-117 112-160C105-168 101-174 101-178C101-188 105-193 114-193C123-193 135-181 152-158C186-110 203-57 203 0C203 53 185 106 139 106Z"/><path id="tangent-annotated-MJX-7-NCM-I-1D453" d="M552 633C552 677 509 705 462 705C400 705 357 665 334 586C329 568 318 517 302 433L237 433C215 433 204 432 204 411C204 400 214 395 235 395L295 395L222 8C211-49 201-91 192-119C180-156 163-175 141-175C126-175 114-171 103-164C135-159 151-140 151-108C151-82 138-69 111-69C77-69 53-99 53-133C53-177 94-205 141-205C166-205 189-195 208-174C240-141 265-94 283-31C294 8 304 46 311 84L369 395L451 395C474 395 484 396 484 419C484 428 474 433 454 433L377 433C383 474 411 625 420 644C430 665 444 675 462 675C477 675 490 671 501 664C470 657 454 639 454 608C454 582 467 569 494 569C528 569 552 599 552 633Z"/><path id="tangent-annotated-MJX-7-NCM-N-2061" d=""/><path id="tangent-annotated-MJX-7-NCM-N-29" d="M78-245C138-199 188-131 229-40C268 47 288 129 288 208L288 292C288 371 268 453 229 540C188 631 138 699 78 745C75 747 72 748 71 748C62 748 57 743 57 734C57 730 59 726 62 723C114 683 156 617 187 526C214 447 228 369 228 292L228 208C228 131 214 53 187-26C156-117 114-183 62-223C59-227 57-231 57-234C57-243 62-248 71-248C72-248 75-247 78-245Z"/></defs><g stroke="currentColor" fill="currentColor" stroke-width="0" transform="scale(1,-1)"><g data-mml-node="math" data-semantic-type="fenced" data-semantic-role="leftright" data-semantic-annotation="fences:paren;depth:1" data-semantic-id="12" data-semantic-children="11" data-semantic-content="0,7" data-semantic-attributes="latex:(a,f(a))" data-semantic-speech="left parenthesis a comma f left parenthesis a right parenthesis right parenthesis"><g data-mml-node="mo" data-semantic-type="fence" data-semantic-role="open" data-semantic-annotation="depth:2" data-semantic-id="0" data-semantic-parent="12" data-semantic-attributes="latex:(" data-semantic-operator="fenced" data-semantic-speech="left parenthesis"><use data-c="28" xlink:href="#tangent-annotated-MJX-7-NCM-N-28"/></g><g data-mml-node="mrow" data-semantic-added="true" data-semantic-type="punctuated" data-semantic-role="sequence" data-semantic-annotation="depth:2" data-semantic-id="11" data-semantic-children="1,2,10" data-semantic-content="2" data-semantic-parent="12" data-semantic-speech="a comma f left parenthesis a right parenthesis" transform="translate(389,0)"><g data-mml-node="mi" data-semantic-type="identifier" data-semantic-role="latinletter" data-semantic-font="italic" data-semantic-annotation="clearspeak:simple;depth:3" data-semantic-id="1" data-semantic-parent="11" data-semantic-attributes="latex:a" data-semantic-speech="a"><use data-c="1D44E" xlink:href="#tangent-annotated-MJX-7-NCM-I-1D44E"/></g><g data-mml-node="mo" data-semantic-type="punctuation" data-semantic-role="comma" data-semantic-annotation="nemeth:number;depth:3" data-semantic-id="2" data-semantic-parent="11" data-semantic-attributes="latex:," data-semantic-operator="punctuated" data-semantic-speech="comma" transform="translate(529,0)"><use data-c="2C" xlink:href="#tangent-annotated-MJX-7-NCM-N-2C"/></g><g data-mml-node="mrow" data-semantic-added="true" data-semantic-type="appl" data-semantic-role="simple function" data-semantic-annotation="clearspeak:simple;depth:3" data-semantic-id="10" data-semantic-children="3,8" data-semantic-content="9,3" data-semantic-parent="11" data-semantic-speech="f left parenthesis a right parenthesis" transform="translate(973.7,0)"><g data-mml-node="mi" data-semantic-type="identifier" data-semantic-role="simple function" data-semantic-font="italic" data-semantic-annotation="clearspeak:simple;nemeth:number;depth:4" data-semantic-id="3" data-semantic-parent="10" data-semantic-attributes="latex:f" data-semantic-operator="appl" data-semantic-speech="f"><use data-c="1D453" xlink:href="#tangent-annotated-MJX-7-NCM-I-1D453"/></g><g data-mml-node="mo" data-semantic-type="punctuation" data-semantic-role="application" data-semantic-annotation="nemeth:number;depth:4" data-semantic-id="9" data-semantic-parent="10" data-semantic-added="true" data-semantic-operator="appl" data-semantic-speech="of" transform="translate(552,0)"><use data-c="2061" xlink:href="#tangent-annotated-MJX-7-NCM-N-2061"/></g><g data-mml-node="mrow" data-semantic-added="true" data-semantic-type="fenced" data-semantic-role="leftright" data-semantic-annotation="fences:paren;depth:4" data-semantic-id="8" data-semantic-children="5" data-semantic-content="4,6" data-semantic-parent="10" data-semantic-speech="left parenthesis a right parenthesis" transform="translate(552,0)"><g data-mml-node="mo" data-semantic-type="fence" data-semantic-role="open" data-semantic-annotation="depth:5" data-semantic-id="4" data-semantic-parent="8" data-semantic-attributes="latex:(" data-semantic-operator="fenced" data-semantic-speech="left parenthesis"><use data-c="28" xlink:href="#tangent-annotated-MJX-7-NCM-N-28"/></g><g data-mml-node="mi" data-semantic-type="identifier" data-semantic-role="latinletter" data-semantic-font="italic" data-semantic-annotation="clearspeak:simple;depth:5" data-semantic-id="5" data-semantic-parent="8" data-semantic-attributes="latex:a" data-semantic-speech="a" transform="translate(389,0)"><use data-c="1D44E" xlink:href="#tangent-annotated-MJX-7-NCM-I-1D44E"/></g><g data-mml-node="mo" data-semantic-type="fence" data-semantic-role="close" data-semantic-annotation="depth:5" data-semantic-id="6" data-semantic-parent="8" data-semantic-attributes="latex:)" data-semantic-operator="fenced" data-semantic-speech="right parenthesis" transform="translate(918,0)"><use data-c="29" xlink:href="#tangent-annotated-MJX-7-NCM-N-29"/></g></g></g></g><g data-mml-node="mo" data-semantic-type="fence" data-semantic-role="close" data-semantic-annotation="depth:2" data-semantic-id="7" data-semantic-parent="12" data-semantic-attributes="latex:)" data-semantic-operator="fenced" data-semantic-speech="right parenthesis" transform="translate(3221.7,0)"><use data-c="29" xlink:href="#tangent-annotated-MJX-7-NCM-N-29"/></g></g></g></svg></g></g></g></svg>