<svg xmlns="http://www.w3.org/2000/svg" id="transform-2-figure" width="310" height="310" viewBox="0 0 310 310"><defs><clipPath id="transform-2-__clipPath-0"><rect x="5.0" y="5.0" width="300.0" height="300.0"/></clipPath><clipPath id="transform-2-__clipPath-1"><rect x="5.0" y="5.0" width="300.0" height="300.0"/></clipPath></defs><g id="transform-2-grid-axes"><g id="transform-2-grid" stroke="#ccc" stroke-width="1"><line x1="5.0" y1="305.0" x2="5.0" y2="5.0"/><line x1="35.0" y1="305.0" x2="35.0" y2="5.0"/><line x1="65.0" y1="305.0" x2="65.0" y2="5.0"/><line x1="95.0" y1="305.0" x2="95.0" y2="5.0"/><line x1="125.0" y1="305.0" x2="125.0" y2="5.0"/><line x1="155.0" y1="305.0" x2="155.0" y2="5.0"/><line x1="185.0" y1="305.0" x2="185.0" y2="5.0"/><line x1="215.0" y1="305.0" x2="215.0" y2="5.0"/><line x1="245.0" y1="305.0" x2="245.0" y2="5.0"/><line x1="275.0" y1="305.0" x2="275.0" y2="5.0"/><line x1="305.0" y1="305.0" x2="305.0" y2="5.0"/><line x1="5.0" y1="305.0" x2="305.0" y2="305.0"/><line x1="5.0" y1="275.0" x2="305.0" y2="275.0"/><line x1="5.0" y1="245.0" x2="305.0" y2="245.0"/><line x1="5.0" y1="215.0" x2="305.0" y2="215.0"/><line x1="5.0" y1="185.0" x2="305.0" y2="185.0"/><line x1="5.0" y1="155.0" x2="305.0" y2="155.0"/><line x1="5.0" y1="125.0" x2="305.0" y2="125.0"/><line x1="5.0" y1="95.0" x2="305.0" y2="95.0"/><line x1="5.0" y1="65.0" x2="305.0" y2="65.0"/><line x1="5.0" y1="35.0" x2="305.0" y2="35.0"/><line x1="5.0" y1="5.0" x2="305.0" y2="5.0"/></g><g id="transform-2-axes" stroke="black" stroke-width="2"><line id="transform-2-__line-22" x1="5.0" y1="305.0" x2="305.0" y2="305.0" stroke="black" stroke-width="2"/><line id="transform-2-__line-23" x1="5.0" y1="305.0" x2="5.0" y2="5.0" stroke="black" stroke-width="2"/></g></g><path id="transform-2-__path-0" d="M 35.0 125.0 L 65.0 125.0 L 65.0 65.0 L 35.0 65.0 Z" stroke="black" stroke-width="2" fill="green"/><path id="transform-2-__path-1" d="M 273.5 236.2 L 252.3 215.0 L 209.9 257.4 L 231.1 278.6 Z" stroke="black" stroke-width="2" fill="blue"/><circle id="transform-2-__circle-0" cx="125.0" cy="215.0" r="4" stroke="black" stroke-width="2" fill="red"/><path id="transform-2-__path-2" d="M 185.0 125.0 L 275.0 125.0 L 275.0 35.0 L 185.0 35.0 Z" stroke="black" stroke-width="2" fill="red"/></svg>